<?xml version="1.0" encoding="UTF-8"?>
<svg width="32px" height="32px" viewBox="0 0 32 32" version="1.1" xmlns="http://www.w3.org/2000/svg" xmlns:xlink="http://www.w3.org/1999/xlink">
    <title>web export </title>
    <g id="教师端-web-153" stroke="none" stroke-width="1" fill="none" fill-rule="evenodd" opacity="0.5">
        <g id="投票问卷-进行中" transform="translate(-1370.000000, -157.000000)" fill="#000000" fill-rule="nonzero">
            <g id="c-活动信息" transform="translate(410.000000, 117.000000)">
                <g id="label-state" transform="translate(840.000000, 40.000000)">
                    <g id="web-export-" transform="translate(120.000000, 0.000000)">
                        <rect id="矩形" opacity="0" x="0" y="0" width="32" height="32"></rect>
                        <path d="M23.5565076,20.8781611 L22.4557051,20.8781611 C22.3697689,20.8781611 22.2981553,20.9497746 22.2981553,21.0357109 L22.2981553,22.3002014 L9.41385594,22.3002014 L9.41385594,9.41385594 L22.3002014,9.41385594 L22.3002014,10.6783465 C22.3002014,10.7642827 22.371815,10.8358963 22.4577512,10.8358963 L23.5585537,10.8358963 C23.6444899,10.8358963 23.7161035,10.7663288 23.7161035,10.6783465 L23.7161035,8.62815307 C23.7161035,8.28031587 23.4357876,8 23.0879504,8 L8.62815307,8 C8.28031587,8 8,8.28031587 8,8.62815307 L8,23.0859043 C8,23.4337415 8.28031587,23.7140574 8.62815307,23.7140574 L23.0859043,23.7140574 C23.4337415,23.7140574 23.7140574,23.4337415 23.7140574,23.0859043 L23.7140574,21.0357109 C23.7140574,20.9477285 23.6424438,20.8781611 23.5565076,20.8781611 Z M23.9370824,15.7281243 L21.0336648,13.4364909 C20.9252214,13.3505547 20.7676716,13.4283065 20.7676716,13.5653953 L20.7676716,15.1204322 L14.3429138,15.1204322 C14.2528853,15.1204322 14.1792257,15.1940919 14.1792257,15.2841203 L14.1792257,16.429937 C14.1792257,16.5199655 14.2528853,16.5936251 14.3429138,16.5936251 L20.7676716,16.5936251 L20.7676716,18.148662 C20.7676716,18.2857508 20.9272675,18.3635027 21.0336648,18.2775664 L23.9370824,15.9859331 C24.0209725,15.9204578 24.0209725,15.7935995 23.9370824,15.7281243 L23.9370824,15.7281243 Z" id="形状"></path>
                    </g>
                </g>
            </g>
        </g>
    </g>
</svg>