<?xml version="1.0" encoding="UTF-8"?>
<svg width="32px" height="32px" viewBox="0 0 32 32" version="1.1" xmlns="http://www.w3.org/2000/svg" xmlns:xlink="http://www.w3.org/1999/xlink">
    <title>ico-check</title>
    <defs>
        <filter id="filter-1">
            <feColorMatrix in="SourceGraphic" type="matrix" values="0 0 0 0 0.380529 0 0 0 0 0.839042 0 0 0 0 0.756406 0 0 0 1.000000 0"></feColorMatrix>
        </filter>
    </defs>
    <g id="学生端-web-153" stroke="none" stroke-width="1" fill="none" fill-rule="evenodd">
        <g id="作业-已提交-未批改" transform="translate(-1386.000000, -157.000000)">
            <g id="c-活动信息" transform="translate(410.000000, 117.000000)">
                <g id="label-state" transform="translate(840.000000, 40.000000)">
                    <g id="ico-check" transform="translate(136.000000, 0.000000)" filter="url(#filter-1)">
                        <g>
                            <rect id="矩形" fill="#000000" fill-rule="nonzero" opacity="0" x="0" y="0" width="32" height="32"></rect>
                            <path d="M16,2.13333333 C8.34238095,2.13333333 2.13333333,8.34238095 2.13333333,16 C2.13333333,23.657619 8.34238095,29.8666667 16,29.8666667 C23.657619,29.8666667 29.8666667,23.657619 29.8666667,16 C29.8666667,8.34238095 23.657619,2.13333333 16,2.13333333 Z M21.9892857,11.4716667 L15.4707143,20.5097619 C15.077619,21.057619 14.2635714,21.057619 13.8704762,20.5097619 L10.0107143,15.1611905 C9.89309524,14.9971429 10.0107143,14.7680952 10.2119048,14.7680952 L11.6635714,14.7680952 C11.9792857,14.7680952 12.2795238,14.9197619 12.4652381,15.1797619 L14.6690476,18.2378571 L19.5347619,11.4902381 C19.7204762,11.2333333 20.017619,11.0785714 20.3364286,11.0785714 L21.7880952,11.0785714 C21.9892857,11.0785714 22.1069048,11.307619 21.9892857,11.4716667 Z" id="形状" fill="#000000" fill-rule="nonzero"></path>
                        </g>
                    </g>
                </g>
            </g>
        </g>
    </g>
</svg>