<svg xmlns="http://www.w3.org/2000/svg" viewBox="0 0 113.62 74"><defs><style>.cls-1{fill:#dff2f2;}</style></defs><g id="Layer_2"><g id="svb"><path class="cls-1" d="M98.82,27.07v0h0Z"></path><path class="cls-1" d="M82.42,9.66Z"></path><path class="cls-1" d="M97.58,28.64l0-.07-.07.08Z"></path><path class="cls-1" d="M94,33v0l0,0Z"></path><polygon class="cls-1" points="81.55 40.99 81.55 40.99 81.54 40.99 81.55 40.99"></polygon><path class="cls-1" d="M84,8.74s0,0,0,0l0,0Z"></path><path class="cls-1" d="M83.67,42.26h0Z"></path><path class="cls-1" d="M91.83,15.52h-.17a.52.52,0,0,1,.1.11A.86.86,0,0,0,91.83,15.52Z"></path><polygon class="cls-1" points="88.61 11.71 88.61 11.71 88.61 11.72 88.61 11.71"></polygon><path class="cls-1" d="M98.49,23.71h-.16s.06.07.1.1Z"></path><path class="cls-1" d="M1.65,47.18q31.31,0,62.62,0c.79,0,1-.17,1-1q0-20.56,0-41.13c0-.79-.22-1-1-1q-15.67,0-31.36,0t-31.35,0c-.75,0-1,.15-1,.94q0,20.57,0,41.14C.63,47,.84,47.18,1.65,47.18ZM40,13.13c0-.28.31-.24.52-.24,1.55,0,3.1,0,4.64,0,.61,0,.61.33.6.77,0,2.41,0,4.82,0,7.22V22a6.53,6.53,0,0,1,4.38-2.1,4.81,4.81,0,0,1,4.93,3.21,16.51,16.51,0,0,1,.83,7.57,14.13,14.13,0,0,1-.44,2.64,5.66,5.66,0,0,1-9.29,3c-.26-.21-.51-.43-.79-.68-.07.12-.12.19-.15.26-.23.41-.05,1.15-.61,1.24a9.72,9.72,0,0,1-2.41,0c-.35,0-.21-.46-.21-.71q0-3.52,0-7c0-4.3,0-8.59,0-12.88,0-.69-.1-1.1-.9-1.16-.35,0-1,.06-1.06-.37A6.22,6.22,0,0,1,40,13.13ZM23.68,21c0-.46.18-.57.6-.57q2.92,0,5.85,0c.43,0,.63.13.59.58a3.05,3.05,0,0,0,0,.74c.09.73-.07,1.2-.95,1.14-.68,0-.69.32-.52.88.91,2.91,1.92,5.79,2.67,8.75.11.41,0,.88.43,1.35.81-3.61,1.95-7,2.94-10.43.13-.43,0-.55-.42-.59s-1,.06-1.1-.28a5.79,5.79,0,0,1-.09-1.82c0-.38.32-.31.55-.31h5.29c.43,0,.64.12.6.58a3.66,3.66,0,0,0,0,.74c.1.74-.09,1.19-.95,1.15-.52,0-.71.33-.87.79-1.44,4.26-2.93,8.51-4.36,12.78-.22.63-.48.91-1.16.84-.89-.09-2,.34-2.62-.16s-.69-1.59-1-2.43q-1.89-5.46-3.74-10.94c-.2-.58-.41-1-1.12-1-.5,0-.69-.28-.64-.78A5,5,0,0,0,23.68,21ZM10.87,32.85c0-.49.18-.61.65-.63,1.94-.08,2-.1,2.36,1.86A1.21,1.21,0,0,0,15,35.18a7.17,7.17,0,0,0,1.85,0c1.27-.13,1.94-.66,2.13-1.69a2.39,2.39,0,0,0-1.32-2.78,21,21,0,0,0-3-1c-1.86-.65-3.31-1.71-3.64-3.8-.54-3.39,1.21-5.63,4.74-6a12.48,12.48,0,0,1,5,.5c.79.24,1.13.64,1,1.46a6.93,6.93,0,0,0,0,1v.37c0,1.86-.23,2.05-2.1,1.75a.49.49,0,0,1-.5-.44,4.68,4.68,0,0,1-.2-.9c-.07-1.08-.69-1.44-1.71-1.47-1.66,0-2.59.36-3,1.37A2,2,0,0,0,15.18,26a8.13,8.13,0,0,0,2.14.86c.59.19,1.19.34,1.77.55,2.55.92,3.55,2.6,3.4,5.49-.13,2.57-1.63,4.12-4.28,4.59a11.66,11.66,0,0,1-6.55-.69,1,1,0,0,1-.79-1.16C10.93,34.71,10.9,33.78,10.87,32.85Z"></path><path class="cls-1" d="M112,51.63c0-.66-.12-.88-.85-.88q-54.82,0-109.67,0c-.72,0-.85.21-.85.88q0,8.61,0,17.23c0,.82.16,1.07,1,1.07q27.28,0,54.56,0t54.75,0c.86,0,1-.24,1-1.06C112,63.12,112,57.38,112,51.63ZM11,62.51c-.25,1.32-1.34,2-3.35,2-.09,0-.43,0-.76-.1-1.25-.24-1.56-.76-1.27-2,.07-.29.22-.31.45-.32s.65,0,.67.43c.06.91.66,1,1.37.95A1.3,1.3,0,0,0,9.54,62.4a1.42,1.42,0,0,0-.8-1.7c-.5-.24-1-.41-1.53-.65a2.59,2.59,0,0,1-1.49-3A2.38,2.38,0,0,1,8.2,55.13a5.3,5.3,0,0,1,1.19.08c1.26.21,1.57.74,1.28,2-.08.37-.31.3-.55.33a.47.47,0,0,1-.6-.5c-.07-.86-.66-.91-1.33-.85A1,1,0,0,0,7.13,57c-.1.57-.11,1.15.46,1.48a8.91,8.91,0,0,0,1.35.59C10.66,59.74,11.35,60.85,11,62.51Zm2.53,1.88c-.44,0-.85.07-.83-.63,0-1.38,0-2.77,0-4.16,0-.39.1-.81-.51-.89-.32,0-.25-.37-.25-.62s.28-.32.52-.35c1.73-.16,1.73-.16,1.73,1.56v1.76c0,.89,0,1.79,0,2.68C14.27,64.3,14.05,64.42,13.55,64.39Zm4.4.14A1.41,1.41,0,0,1,16,63.07c-.05-2.1,0-4.19,0-6.29,0-.48.12-1-.63-1.1-.29,0-.22-.32-.23-.52s.22-.33.45-.33h.09c1.82-.15,1.82-.15,1.82,1.65v6.2c0,.4,0,.81.58.82.36,0,.38.36.39.63S18.18,64.48,18,64.53Zm2.73-.14c-.43,0-.77,0-.75-.6,0-1.36,0-2.71,0-4.07,0-.44.14-.94-.58-1-.31,0-.29-.34-.28-.6s.25-.37.51-.37h.09c1.76-.1,1.76-.1,1.76,1.63v1.76c0,.89,0,1.79,0,2.68C21.48,64.46,21.08,64.38,20.68,64.39Zm6.66-.14c-2.36,1.29-4.42-.19-4.41-3.16a4.19,4.19,0,0,1,.37-2,2.92,2.92,0,0,1,4.14-1c.5.39.24.91.28,1.37s-.24.31-.46.31-.62,0-.64-.44a.69.69,0,0,0-.76-.73,1,1,0,0,0-1.16.72,5.57,5.57,0,0,0,0,3.45c.31.84,1.11,1,2.2.56.4-.18.62-.26.85.21S27.59,64.12,27.34,64.25Zm3.92.29h-.09a2.38,2.38,0,0,1-2.07-2c-.34-1.56-.49-3.19.85-4.39a2.74,2.74,0,0,1,3.14-.27,3.06,3.06,0,0,1,1.55,3C34.63,63.61,33.43,64.79,31.26,64.54Zm10.94-.41c0,.2-.17.24-.33.25H40.21c-.43,0-.36-.34-.36-.61,0-1.29,0-2.59,0-3.88,0-.52,0-1-.71-1.06A1.21,1.21,0,0,0,37.77,60c0,1.26,0,2.53,0,3.79,0,.7-.38.61-.82.63s-.74-.08-.7-.65,0-1.42,0-2.12V59.67c0-.41.13-.87-.53-1-.31,0-.23-.39-.23-.63a.31.31,0,0,1,.44-.31c.57.18,1.4-.51,1.71.53.06.2.25,0,.38,0a4.53,4.53,0,0,1,.88-.5,1.61,1.61,0,0,1,2.4,1.65c0,1,0,1.92,0,2.87,0,.55-.32,1.3.7,1.38C42.25,63.67,42.21,64,42.2,64.13Zm8.43-7.94c-.51,0-.52.44-.62.79-.66,2.24-1.35,4.47-2,6.73-.16.59-.45.68-1,.69a.82.82,0,0,1-1-.71c-.63-2.19-1.31-4.36-2-6.54-.13-.42-.12-.93-.76-1-.29,0-.21-.34-.21-.54s.23-.32.45-.32H46c.28,0,.49,0,.48.39s0,.5-.37.51-.5.15-.4.52c.51,1.86,1,3.73,1.56,5.85.54-2.07,1-3.85,1.49-5.63.1-.4.25-.74-.37-.75-.34,0-.37-.25-.37-.52s.24-.38.51-.37h1.94c.23,0,.45,0,.45.33S51,56.16,50.63,56.19Zm5.54,8.36c-.28,0-.64.16-.81,0-.76-.55-1.43-.23-2.19,0A1.69,1.69,0,0,1,51,63.29c-.31-1.37.16-2.32,1.33-2.64a9.51,9.51,0,0,1,1.19-.19c.34-.05.85.19.81-.52s-.14-1.11-.89-1.15a2.85,2.85,0,0,0-1.44.27c-.45.22-.58,0-.74-.36s.08-.55.38-.66a3.63,3.63,0,0,1,.78-.28c2.54-.48,3.65.07,3.44,2.6,0,.24,0,.49,0,.73v1.39c0,.46-.09,1,.55,1.11.29.08.28.4.28.63S56.38,64.53,56.17,64.55Zm3.7,0c-1.23.28-2-.33-2-1.71,0-2,0-4,0-6,0-.47.15-1-.59-1.12-.28,0-.2-.34-.2-.55s.18-.28.38-.29h.19c1.72-.11,1.72-.11,1.72,1.65v6.11c0,.43,0,.89.62.91.38,0,.38.38.41.63S60.1,64.47,59.87,64.52Zm3.65,0a1.44,1.44,0,0,1-2-1.45c0-2.13,0-4.25,0-6.38,0-.43.09-.89-.55-1-.33,0-.33-.3-.32-.56s.3-.32.54-.34C63,54.67,63,54.67,63,56.47v2.77c0,1,0,2.1,0,3.15,0,.48-.2,1.09.66,1.13.29,0,.29.36.3.6S63.73,64.45,63.52,64.51Zm6.56-3.41c-.15.47-.49.27-.76.29a10.25,10.25,0,0,1-1.11,0,2.54,2.54,0,0,0-.73,0c-.38.12-1-.39-1.11.37a1.48,1.48,0,0,0,.87,1.68,2.33,2.33,0,0,0,1.88-.19c.32-.16.53-.22.72.17s-.06.55-.33.72a3,3,0,0,1-4.64-2.38A6.17,6.17,0,0,1,65,59.4a2.68,2.68,0,0,1,3.59-1.67A3,3,0,0,1,70.08,61.1Zm7-2.5c-.53.11-.54.56-.65.91-.58,1.76-1.13,3.52-1.71,5.28A3.08,3.08,0,0,1,72.52,67c-.47.13-.58-.06-.72-.42s0-.57.36-.65a1.84,1.84,0,0,0,1.1-.65c.23-.31.67-.64,0-1-.14-.08-.17-.38-.23-.59-.45-1.38-.88-2.76-1.33-4.13-.11-.34-.13-.74-.61-.84-.31-.07-.25-.38-.24-.62s.32-.32.56-.32h1.67c.23,0,.53-.07.56.3s.09.55-.21.64c-.49.14-.31.42-.23.71.35,1.18.69,2.36,1.07,3.66l1.15-3.89c.11-.34-.1-.45-.36-.51s-.33-.39-.32-.66.33-.3.56-.3c.5,0,1,0,1.49,0,.2,0,.47,0,.48.27S77.41,58.54,77.07,58.6Zm6.72,5.71c-1.33.09-2.66,0-4,0-.21,0-.45,0-.47-.28s0-.53.34-.54c.61,0,.55-.44.55-.85,0-1.85,0-3.71,0-5.56,0-.44.06-.88-.59-.91-.37,0-.3-.33-.3-.57s.2-.33.43-.33c1.3,0,2.6,0,3.9.05a2,2,0,0,1,2,1.42,2.19,2.19,0,0,1-1,2.79A2.22,2.22,0,0,1,86,60.82,2.45,2.45,0,0,1,83.79,64.31Zm9.3-.18c0,.27-.16.36-.4.41-.4.08-.88.24-1.17,0-.57-.5-1-.23-1.58,0a1.84,1.84,0,0,1-2.53-1.17,2,2,0,0,1,1.46-2.72c.35-.09.73-.09,1.09-.16s.9.24.85-.48-.1-1.14-.87-1.19a2.73,2.73,0,0,0-1.44.26c-.43.2-.6.06-.77-.33s0-.56.36-.68l.6-.22c2.54-.79,3.65,0,3.65,2.62v.74c0,.46,0,.92,0,1.39s-.07.88.53,1C93.17,63.65,93.07,63.93,93.09,64.13Zm6.89.25h-.09c-1.76.13-1.76.13-1.76-1.63V59.88c0-.51,0-1-.72-1.05A1.2,1.2,0,0,0,96.06,60c0,1.2,0,2.41,0,3.61,0,.56-.08.83-.74.82s-.8-.17-.78-.78c0-1.36,0-2.72,0-4.08,0-.36.08-.74-.47-.83-.38,0-.3-.41-.28-.68s.35-.33.57-.28c.55.12,1.33-.43,1.62.55,0,.19.3-.06.44-.15a3,3,0,0,1,1.27-.53c1.19-.16,1.87.36,1.9,1.55s0,2.41,0,3.61c0,.38,0,.77.5.8.29,0,.31.25.31.48S100.2,64.37,100,64.38Zm7.26,0a2,2,0,0,1-1.95-.51c-.5-.78-1-1.57-1.48-2.34-.12-.19-.18-.49-.51-.45,0,.9,0,1.79,0,2.68,0,.61-.28.62-.74.63s-.79,0-.78-.68c0-2.31,0-4.63,0-6.94,0-.46.11-1-.56-1.07-.28-.05-.2-.34-.2-.55s.27-.28.48-.3h.09c1.69-.12,1.69-.12,1.69,1.6,0,1.45,0,2.9,0,4.35h0c.75-.36,1.09-1.14,1.65-1.69.2-.2.06-.3-.15-.36s-.32-.42-.28-.69.35-.28.58-.28h1.57c.28,0,.49,0,.49.39s0,.51-.33.57c-.94.17-1.18,1.1-1.77,1.64-.25.23-.08.47.08.65.74.86.89,2.18,2.13,2.66C107.51,63.75,107.52,64.16,107.24,64.35Z"></path><path class="cls-1" d="M69.88,4.08c-.86,0-1,.27-1,1q0,19.62,0,39.26c0,.71,0,1.42,0,2.12,0,.46.09.67.6.67,2.6,0,5.19,0,7.79-.06v-43C74.83,4.12,72.35,4.16,69.88,4.08Z"></path><path class="cls-1" d="M108.11,4.14q0,21.48,0,43a5.91,5.91,0,0,0,1.68,0v-43Z"></path><path class="cls-1" d="M77.3,4.14a1.56,1.56,0,0,1,.3,1.22V45.88a1.72,1.72,0,0,1-.3,1.23h1.3v-43Z"></path><path class="cls-1" d="M77.6,5.36a1.56,1.56,0,0,0-.3-1.22v43a1.72,1.72,0,0,0,.3-1.23Z"></path><path class="cls-1" d="M104.58,4.14v43a3.55,3.55,0,0,0,1.3,0v-43Z"></path><path class="cls-1" d="M107.81,5.36a1.52,1.52,0,0,1,.3-1.22h-1.3v43a3.5,3.5,0,0,0,1.29,0,1.72,1.72,0,0,1-.3-1.23Q107.8,25.63,107.81,5.36Z"></path><path class="cls-1" d="M107.81,5.36q0,20.27,0,40.52a1.72,1.72,0,0,0,.3,1.23q0-21.48,0-43A1.52,1.52,0,0,0,107.81,5.36Z"></path><path class="cls-1" d="M104.28,5.36a1.56,1.56,0,0,1,.3-1.22h-1.3v43a3.55,3.55,0,0,0,1.3,0,1.67,1.67,0,0,1-.3-1.23Q104.26,25.63,104.28,5.36Z"></path><path class="cls-1" d="M104.28,5.36q0,20.27,0,40.52a1.67,1.67,0,0,0,.3,1.23v-43A1.56,1.56,0,0,0,104.28,5.36Z"></path><path class="cls-1" d="M99.75,4.14q0,9.81,0,19.62a4.8,4.8,0,0,1-.19,1.46,1.12,1.12,0,0,1,.15.69,8.76,8.76,0,0,1,.22,2.65V47.11h1.11v-43Z"></path><path class="cls-1" d="M78.6,4.14a1.6,1.6,0,0,1,.3,1.22V45.88a1.72,1.72,0,0,1-.3,1.23h1.11v-43Z"></path><path class="cls-1" d="M78.9,5.36a1.6,1.6,0,0,0-.3-1.22v43a1.72,1.72,0,0,0,.3-1.23Z"></path><path class="cls-1" d="M110.89,4.14v43c.87.24,1.13-.06,1.13-1q0-20.51,0-41C112,4.18,111.73,3.94,110.89,4.14Z"></path><path class="cls-1" d="M110.59,5.36a1.56,1.56,0,0,1,.3-1.22h-1.11a1.56,1.56,0,0,1,.29,1.22q0,20.27,0,40.53a1.7,1.7,0,0,1-.3,1.22,2.6,2.6,0,0,0,1.11,0,1.7,1.7,0,0,1-.3-1.22Q110.57,25.63,110.59,5.36Z"></path><path class="cls-1" d="M110.07,5.36a1.56,1.56,0,0,0-.29-1.22v43a1.7,1.7,0,0,0,.3-1.22Q110.08,25.63,110.07,5.36Z"></path><path class="cls-1" d="M110.59,5.36q0,20.27,0,40.53a1.7,1.7,0,0,0,.3,1.22v-43A1.56,1.56,0,0,0,110.59,5.36Z"></path><path class="cls-1" d="M101.05,4.14a1.56,1.56,0,0,1,.3,1.22q0,20.27,0,40.52a1.67,1.67,0,0,1-.3,1.23h1.12v-43Z"></path><path class="cls-1" d="M101.35,5.36a1.56,1.56,0,0,0-.3-1.22v43a1.67,1.67,0,0,0,.3-1.23Q101.37,25.63,101.35,5.36Z"></path><path class="cls-1" d="M103,5.36a1.56,1.56,0,0,1,.3-1.22h-1.11a1.6,1.6,0,0,1,.3,1.22V45.88a1.72,1.72,0,0,1-.3,1.23h1.11a1.7,1.7,0,0,1-.3-1.22Q103,25.63,103,5.36Z"></path><path class="cls-1" d="M103,5.36q0,20.27,0,40.53a1.7,1.7,0,0,0,.3,1.22v-43A1.56,1.56,0,0,0,103,5.36Z"></path><path class="cls-1" d="M102.47,5.36a1.6,1.6,0,0,0-.3-1.22v43a1.72,1.72,0,0,0,.3-1.23Z"></path><path class="cls-1" d="M106.51,5.36a1.56,1.56,0,0,1,.3-1.22h-.93a1.56,1.56,0,0,1,.3,1.22V45.89a1.7,1.7,0,0,1-.3,1.22h.93a1.67,1.67,0,0,1-.3-1.23Q106.5,25.63,106.51,5.36Z"></path><path class="cls-1" d="M106.18,5.36a1.56,1.56,0,0,0-.3-1.22v43a1.7,1.7,0,0,0,.3-1.22Z"></path><path class="cls-1" d="M106.51,5.36q0,20.27,0,40.52a1.67,1.67,0,0,0,.3,1.23v-43A1.56,1.56,0,0,0,106.51,5.36Z"></path><path class="cls-1" d="M81.54,41h0c-.55-.34-.74-.73-.21-1.27a.69.69,0,0,0,.23-.59c-.39-.18-.37-.53-.37-.87q0-12.82,0-25.64c0-.28-.11-.65.35-.73a.75.75,0,0,0-.28-.63c-.52-.46-.23-.74.18-1h0c-.36-.22-.25-.59-.25-.91,0-1.73,0-3.47,0-5.2h-.74v43h.74c0-1.77,0-3.54,0-5.31C81.2,41.5,81,41.1,81.54,41Z"></path><path class="cls-1" d="M80.15,5.36a1.56,1.56,0,0,1,.3-1.22h-.74A1.56,1.56,0,0,1,80,5.36q0,20.27,0,40.53a1.7,1.7,0,0,1-.3,1.22h.74a1.72,1.72,0,0,1-.3-1.23Z"></path><path class="cls-1" d="M80,5.36a1.56,1.56,0,0,0-.3-1.22v43a1.7,1.7,0,0,0,.3-1.22Q80,25.63,80,5.36Z"></path><path class="cls-1" d="M80.15,5.36V45.88a1.72,1.72,0,0,0,.3,1.23v-43A1.56,1.56,0,0,0,80.15,5.36Z"></path><path class="cls-1" d="M97.58,28.64h-.12L96.39,30a4.66,4.66,0,0,1,.21,1.62c0,5.17,0,10.33,0,15.49a3.55,3.55,0,0,0,1.3,0c0-5.72,0-11.44,0-17.17A1.91,1.91,0,0,0,97.58,28.64Z"></path><path class="cls-1" d="M94,33h0l-1.43,1.7a5,5,0,0,1,.2,1.54q0,5.45,0,10.89a5.84,5.84,0,0,0,1.67,0c0-4.13,0-8.26,0-12.4A3.14,3.14,0,0,0,94,33Z"></path><path class="cls-1" d="M98.82,27.07h0a8,8,0,0,0-1.27,1.51l0,.07h.16A1.56,1.56,0,0,1,98.19,30q0,8,0,16a1.58,1.58,0,0,1-.29,1.13H99q0-9.21,0-18.42A5.5,5.5,0,0,0,98.82,27.07Z"></path><path class="cls-1" d="M98.19,30a1.56,1.56,0,0,0-.45-1.35h-.16a1.91,1.91,0,0,1,.32,1.3c0,5.73,0,11.45,0,17.17A1.58,1.58,0,0,0,98.19,46Q98.21,38,98.19,30Z"></path><path class="cls-1" d="M97.51,22.68a4.09,4.09,0,0,0,.82,1h.16a2.23,2.23,0,0,0,.34-1.37q0-9.1,0-18.2H97.71V19.93A10.15,10.15,0,0,1,97.51,22.68Z"></path><path class="cls-1" d="M96.42,21.33a5.36,5.36,0,0,0,.91,1.15v0c.21-5.57,0-11.15.1-16.72,0-.54-.12-1.12.29-1.59H96.6c0,5.24,0,10.49,0,15.74A4.69,4.69,0,0,1,96.42,21.33Z"></path><path class="cls-1" d="M97.42,5.73c-.07,5.57.11,11.15-.1,16.72v0a1.71,1.71,0,0,0,.18.2,10.15,10.15,0,0,0,.2-2.75V4.14C97.3,4.61,97.43,5.19,97.42,5.73Z"></path><path class="cls-1" d="M99.12,5.36q0,8.4,0,16.81a1.76,1.76,0,0,1-.45,1.53h-.18l-.06.1a6.43,6.43,0,0,0,.95,1.2,18.25,18.25,0,0,0,.07-2q0-8.7,0-17.41c0-.52-.11-1.06.29-1.5h-.92A1.6,1.6,0,0,1,99.12,5.36Z"></path><path class="cls-1" d="M99.46,5.64q0,8.7,0,17.41a18.25,18.25,0,0,1-.07,2l.19.21a4.8,4.8,0,0,0,.19-1.46q0-9.81,0-19.62C99.35,4.58,99.46,5.12,99.46,5.64Z"></path><path class="cls-1" d="M98.49,23.71h.18a1.76,1.76,0,0,0,.45-1.53q0-8.42,0-16.81a1.6,1.6,0,0,0-.29-1.22q0,9.09,0,18.2A2.23,2.23,0,0,1,98.49,23.71Z"></path><path class="cls-1" d="M99.64,45.6v-17a16,16,0,0,0-.14-2.4h0a3.78,3.78,0,0,0-.69.9v0a.53.53,0,0,1,.26.24,2.53,2.53,0,0,1,.23,1.27v17.3a1.74,1.74,0,0,1-.3,1.23h.93A2.12,2.12,0,0,1,99.64,45.6Z"></path><path class="cls-1" d="M99.72,25.91l-.22.24h0a16,16,0,0,1,.14,2.4v17a2.12,2.12,0,0,0,.3,1.51V28.56A8.76,8.76,0,0,0,99.72,25.91Z"></path><path class="cls-1" d="M99.31,28.58a2.53,2.53,0,0,0-.23-1.27.53.53,0,0,0-.26-.24,5.5,5.5,0,0,1,.2,1.62q0,9.21,0,18.42a1.74,1.74,0,0,0,.3-1.23Z"></path><path class="cls-1" d="M95.27,19.92a6.45,6.45,0,0,0,1,1.26.7.7,0,0,1,0-.14c.14-3.14,0-6.27.06-9.41,0-2.06,0-4.12,0-6.18a1.69,1.69,0,0,1,.29-1.31H95.49c0,4.37,0,8.75,0,13.13A8.76,8.76,0,0,1,95.27,19.92Z"></path><path class="cls-1" d="M96.31,5.45c0,2.06,0,4.12,0,6.18,0,3.14.08,6.27-.06,9.41a.7.7,0,0,0,0,.14c0,.05.09.1.15.15a4.69,4.69,0,0,0,.18-1.45c0-5.25,0-10.5,0-15.74A1.69,1.69,0,0,0,96.31,5.45Z"></path><path class="cls-1" d="M96.3,45.61V32.32a17.24,17.24,0,0,0-.09-2,.7.7,0,0,1,0-.14,6.3,6.3,0,0,0-.95,1.18,5.08,5.08,0,0,1,.2,1.55q0,7.11,0,14.23H96.6A2.13,2.13,0,0,1,96.3,45.61Z"></path><path class="cls-1" d="M96.39,30a1.06,1.06,0,0,0-.15.15.7.7,0,0,0,0,.14,17.24,17.24,0,0,1,.09,2V45.61a2.13,2.13,0,0,0,.3,1.5c0-5.16,0-10.32,0-15.49A4.66,4.66,0,0,0,96.39,30Z"></path><path class="cls-1" d="M95.19,45.61c0-4,0-8,0-11.92a19.57,19.57,0,0,0-.08-2c0-.06,0-.12,0-.18A8.84,8.84,0,0,0,94,33v0a.6.6,0,0,1,.25.13,2,2,0,0,1,.43,1.48c0,3.79,0,7.59,0,11.38a1.59,1.59,0,0,1-.29,1.14h1.11A2.14,2.14,0,0,1,95.19,45.61Z"></path><path class="cls-1" d="M94.66,34.59a2,2,0,0,0-.43-1.48A.6.6,0,0,0,94,33a3.14,3.14,0,0,1,.4,1.73c0,4.14,0,8.27,0,12.4A1.59,1.59,0,0,0,94.66,46C94.67,42.18,94.67,38.38,94.66,34.59Z"></path><path class="cls-1" d="M95.29,31.33l-.14.15c0,.06,0,.12,0,.18a19.57,19.57,0,0,1,.08,2c0,4,0,8,0,11.92a2.14,2.14,0,0,0,.29,1.5q0-7.11,0-14.23A5.08,5.08,0,0,0,95.29,31.33Z"></path><path class="cls-1" d="M94,18.37a8.19,8.19,0,0,0,1.11,1.38.86.86,0,0,1,0-.17c.23-2.61.07-5.23.1-7.85,0-2.09,0-4.19,0-6.28a1.74,1.74,0,0,1,.3-1.31H94.37c0,4.11,0,8.23,0,12.35A4,4,0,0,1,94,18.37Z"></path><path class="cls-1" d="M95.19,5.45c0,2.09,0,4.19,0,6.28,0,2.62.13,5.24-.1,7.85a.86.86,0,0,0,0,.17c.06.06.1.12.16.17a8.76,8.76,0,0,0,.22-2.65c0-4.38,0-8.76,0-13.13A1.74,1.74,0,0,0,95.19,5.45Z"></path><path class="cls-1" d="M90.45,14a9.36,9.36,0,0,0,1.21,1.53h.17a1.91,1.91,0,0,0,.32-1.18q0-5.1,0-10.2H90.66v8.68A2.11,2.11,0,0,1,90.45,14Z"></path><path class="cls-1" d="M92.41,45.71c0-3.13,0-6.26,0-9.39A10.39,10.39,0,0,0,92.33,35a.19.19,0,0,0,0-.07L91,36.52a3,3,0,0,1,.38,1.58c0,3,0,6,0,9h1.3A2,2,0,0,1,92.41,45.71Z"></path><path class="cls-1" d="M92.51,34.68l-.16.2a.19.19,0,0,1,0,.07,10.39,10.39,0,0,1,.07,1.37c0,3.13,0,6.26,0,9.39a2,2,0,0,0,.29,1.4q0-5.45,0-10.89A5,5,0,0,0,92.51,34.68Z"></path><path class="cls-1" d="M93.18,17a1.85,1.85,0,0,0,.08.46,2.77,2.77,0,0,0,.67.85,1.7,1.7,0,0,1,0-.22,12,12,0,0,0,.19-2.39c0-3.38,0-6.77,0-10.15a1.88,1.88,0,0,1,.29-1.4H93.26C93.21,8.42,93.36,12.71,93.18,17Z"></path><path class="cls-1" d="M94.08,5.54c0,3.38,0,6.77,0,10.15a12,12,0,0,1-.19,2.39,1.7,1.7,0,0,0,0,.22.23.23,0,0,1,.07.07,4,4,0,0,0,.38-1.88c0-4.12,0-8.24,0-12.35A1.88,1.88,0,0,0,94.08,5.54Z"></path><path class="cls-1" d="M92.43,14.16A1.65,1.65,0,0,1,92,15.53h-.18a.86.86,0,0,1-.07.1A12.29,12.29,0,0,0,93,17.16C92.93,13.1,93,9,93,5a1.07,1.07,0,0,1,.28-.85H92.14a1.44,1.44,0,0,1,.29,1.13C92.44,8.23,92.44,11.2,92.43,14.16Z"></path><path class="cls-1" d="M91.83,15.52H92a1.65,1.65,0,0,0,.42-1.37c0-3,0-5.93,0-8.89a1.44,1.44,0,0,0-.29-1.13q0,5.1,0,10.2A1.91,1.91,0,0,1,91.83,15.52Z"></path><path class="cls-1" d="M93,17.16c.09.09.17.19.26.29a1.85,1.85,0,0,1-.08-.46c.18-4.28,0-8.57.08-12.85A1.07,1.07,0,0,0,93,5C93,9,92.93,13.1,93,17.16Z"></path><path class="cls-1" d="M91.12,45.79q0-3.55,0-7.12a6.62,6.62,0,0,0-.19-1.83,2.14,2.14,0,0,1,.06-.27,6,6,0,0,0-1.06,1.29c.39,3.08.09,6.17.18,9.25h1.3A1.86,1.86,0,0,1,91.12,45.79Z"></path><path class="cls-1" d="M91.41,38.1A3,3,0,0,0,91,36.52l0,0a2.14,2.14,0,0,0-.06.27,6.62,6.62,0,0,1,.19,1.83q0,3.57,0,7.12a1.86,1.86,0,0,0,.28,1.32h0C91.4,44.11,91.39,41.1,91.41,38.1Z"></path><path class="cls-1" d="M89.81,45.7c0-2.53.11-5.06-.1-7.58,0,0,0,0,0,0a7.45,7.45,0,0,0-1.11,1.39,11.42,11.42,0,0,1,.19,3.3c0,1.45,0,2.9,0,4.34h1.3A2.05,2.05,0,0,1,89.81,45.7Z"></path><path class="cls-1" d="M89.92,37.86l-.2.22s0,0,0,0c.21,2.52.05,5.05.1,7.58a2.05,2.05,0,0,0,.29,1.41C90,44,90.31,40.94,89.92,37.86Z"></path><path class="cls-1" d="M87.29,10.11a8.84,8.84,0,0,0,1.32,1.61h0c.41-2.51.1-5.05.19-7.57H87.51q0,2.4,0,4.8A2.25,2.25,0,0,1,87.29,10.11Z"></path><path class="cls-1" d="M88.43,39.79c0-.07,0-.12,0-.19a6.27,6.27,0,0,0-1,1.2v6.31h1.3a1.91,1.91,0,0,1-.28-1.32C88.48,43.79,88.6,41.79,88.43,39.79Z"></path><path class="cls-1" d="M88.8,42.77a11.42,11.42,0,0,0-.19-3.3l-.13.13c0,.07,0,.12,0,.19.17,2,0,4,.09,6a1.91,1.91,0,0,0,.28,1.32C88.8,45.67,88.83,44.22,88.8,42.77Z"></path><path class="cls-1" d="M89.53,12.85a4,4,0,0,0,.81,1,.8.8,0,0,1,0-.15c.13-2.73,0-5.46.06-8.18,0-.48-.09-1,.29-1.4h-.93v7.55A2.11,2.11,0,0,1,89.53,12.85Z"></path><path class="cls-1" d="M90.37,5.54c0,2.72.07,5.45-.06,8.18a.8.8,0,0,0,0,.15s.07.08.11.11a2.11,2.11,0,0,0,.21-1.16V4.14C90.28,4.54,90.38,5.06,90.37,5.54Z"></path><path class="cls-1" d="M87.24,41.09a15.65,15.65,0,0,0-1.41,1.73A20.54,20.54,0,0,1,86,47.11H87.5a1.13,1.13,0,0,1-.26-.77C87.24,44.59,87.18,42.84,87.24,41.09Z"></path><path class="cls-1" d="M87.24,41.09c-.06,1.75,0,3.5,0,5.25a1.13,1.13,0,0,0,.26.77V40.8C87.41,40.9,87.33,41,87.24,41.09Z"></path><path class="cls-1" d="M89.07,10.48a2,2,0,0,1-.26,1.06.45.45,0,0,1-.2.17h0a3.88,3.88,0,0,0,.82,1,1,1,0,0,1,0-.18c.09-2.37,0-4.74,0-7.11a1.74,1.74,0,0,1,.28-1.31H88.8a1.06,1.06,0,0,1,.28.84C89.1,6.82,89.11,8.65,89.07,10.48Z"></path><path class="cls-1" d="M88.61,11.71a.45.45,0,0,0,.2-.17,2,2,0,0,0,.26-1.06c0-1.83,0-3.66,0-5.5a1.06,1.06,0,0,0-.28-.84C88.71,6.66,89,9.2,88.61,11.71Z"></path><path class="cls-1" d="M89.45,5.45c0,2.37,0,4.74,0,7.11a1,1,0,0,0,0,.18.52.52,0,0,0,.1.11,2.11,2.11,0,0,0,.2-1.16V4.14A1.74,1.74,0,0,0,89.45,5.45Z"></path><path class="cls-1" d="M82.42,9.66h0A6.7,6.7,0,0,0,84,8.78s0,0,0,0c-.47-.09-.36-.47-.36-.78,0-1.27,0-2.55,0-3.82H82.12c0,1.43,0,2.87,0,4.31A1.79,1.79,0,0,0,82.42,9.66Z"></path><path class="cls-1" d="M83.67,42.26h0a3.67,3.67,0,0,0-1.19-.7c-.51.09-.35.5-.35.8,0,1.59,0,3.18,0,4.76h1.3c0-1.31,0-2.62,0-3.94C83.43,42.85,83.32,42.49,83.67,42.26Z"></path><path class="cls-1" d="M84,8.63,84,8.74h0L85.31,8c-.45-.61-.15-1.3-.21-1.95s0-1.28,0-1.92H83.61c.35.38.25.85.27,1.3A16.25,16.25,0,0,0,84,8.63Z"></path><path class="cls-1" d="M84,8.74,84,8.63a16.25,16.25,0,0,1-.15-3.19c0-.45.08-.92-.27-1.3,0,1.27,0,2.55,0,3.82C83.61,8.27,83.5,8.65,84,8.74Z"></path><path class="cls-1" d="M86.2,8.75a6,6,0,0,0,1,1.25c0-.05,0-.09,0-.14.1-1.5,0-3,0-4.51a1.59,1.59,0,0,1,.29-1.21H86.39C86.3,5.67,86.59,7.23,86.2,8.75Z"></path><path class="cls-1" d="M87.17,9.86c0,.05,0,.09,0,.14a.52.52,0,0,1,.1.11h0a2.25,2.25,0,0,0,.22-1.17q0-2.4,0-4.8a1.59,1.59,0,0,0-.29,1.21C87.19,6.85,87.27,8.36,87.17,9.86Z"></path><path class="cls-1" d="M85.65,43.09c0-.07,0-.12.07-.19A.81.81,0,0,1,85,43c-.44.17-.42.55-.42.92,0,1.06,0,2.12,0,3.18H86a1.73,1.73,0,0,1-.28-1.21A21.93,21.93,0,0,0,85.65,43.09Z"></path><path class="cls-1" d="M85.83,42.82l-.11.08c0,.07,0,.12-.07.19a21.93,21.93,0,0,1,.09,2.81A1.73,1.73,0,0,0,86,47.11,20.54,20.54,0,0,0,85.83,42.82Z"></path><path class="cls-1" d="M81.48,5.35c0,1.55,0,3.1,0,4.66l0,.24a2.13,2.13,0,0,0,1-.59h-.15c-.07-.07-.16-.12-.18-.21a11.13,11.13,0,0,1,0-5.32h-.93A1.58,1.58,0,0,1,81.48,5.35Z"></path><path class="cls-1" d="M81.45,10.25h0l0-.24c0-1.56,0-3.11,0-4.66a1.58,1.58,0,0,0-.29-1.21c0,1.73,0,3.47,0,5.2C81.2,9.66,81.09,10,81.45,10.25Z"></path><path class="cls-1" d="M82.09,9.46c0,.09.11.14.18.21h.15a1.79,1.79,0,0,1-.3-1.21c0-1.44,0-2.88,0-4.31A11.13,11.13,0,0,0,82.09,9.46Z"></path><path class="cls-1" d="M81.84,42.57c0-.41,0-.88.43-1.13h.08a2.43,2.43,0,0,0-.8-.45h0c0,.06,0,.12,0,.18a41.68,41.68,0,0,0-.11,4.61,1.92,1.92,0,0,1-.29,1.32h.93a1.55,1.55,0,0,1-.29-1C81.83,44.91,81.82,43.74,81.84,42.57Z"></path><path class="cls-1" d="M81.59,41.18c0-.06,0-.12,0-.18-.5.1-.34.5-.34.8,0,1.77,0,3.54,0,5.31a1.92,1.92,0,0,0,.29-1.32A41.68,41.68,0,0,1,81.59,41.18Z"></path><path class="cls-1" d="M82.48,41.55l-.13-.11h-.08c-.47.25-.42.72-.43,1.13,0,1.17,0,2.34,0,3.5a1.55,1.55,0,0,0,.29,1c0-1.58,0-3.17,0-4.76C82.13,42.05,82,41.64,82.48,41.55Z"></path><path class="cls-1" d="M85.36,5.73c0,.7,0,1.41,0,2.12a1.3,1.3,0,0,1-.08.17c.35.09.51.4.75.62l0-.12c.12-1.06.07-2.12.09-3.18a1.55,1.55,0,0,1,.27-1.2h-1.3C85.5,4.61,85.35,5.19,85.36,5.73Z"></path><path class="cls-1" d="M85.1,6.06c.06.65-.24,1.34.21,2h0a1.3,1.3,0,0,0,.08-.17c0-.71,0-1.42,0-2.12,0-.54.14-1.12-.27-1.59C85.09,4.78,85.05,5.42,85.1,6.06Z"></path><path class="cls-1" d="M86.12,5.34c0,1.06,0,2.12-.09,3.18l0,.12.14.11c.39-1.52.1-3.08.19-4.61A1.55,1.55,0,0,0,86.12,5.34Z"></path><path class="cls-1" d="M84.69,43l.11,0a4.08,4.08,0,0,0-1.12-.66h0a.43.43,0,0,1,0,.12c0,1.17,0,2.34,0,3.5a1.73,1.73,0,0,1-.28,1.23h1.12A5.19,5.19,0,0,1,84.69,43Z"></path><path class="cls-1" d="M83.72,42.38a.43.43,0,0,0,0-.12c-.35.23-.24.59-.24.91,0,1.32,0,2.63,0,3.94a1.73,1.73,0,0,0,.28-1.23C83.71,44.72,83.7,43.55,83.72,42.38Z"></path><path class="cls-1" d="M85,43l-.15-.1-.11,0a5.19,5.19,0,0,0-.15,4.16c0-1.06,0-2.12,0-3.18C84.53,43.56,84.51,43.18,85,43Z"></path><path class="cls-1" d="M103.3,60.77h0v.28A.19.19,0,0,0,103.3,60.77Z"></path><path class="cls-1" d="M99.47,26l.25-.1a1.12,1.12,0,0,0-.15-.69l-.2-.09C99.38,25.42,99.43,25.71,99.47,26Z"></path><path class="cls-1" d="M81.67,39.39a.44.44,0,0,0,0-.4l-.09.14a.69.69,0,0,1-.23.59c-.53.54-.34.93.21,1.27A2,2,0,0,1,81.67,39.39Z"></path><path class="cls-1" d="M81.62,11.43a1.58,1.58,0,0,1-.16-1.18h0c-.41.27-.7.55-.18,1a.75.75,0,0,1,.28.63s0,.08.07.13A.59.59,0,0,0,81.62,11.43Z"></path><path class="cls-1" d="M96.26,30.06a.52.52,0,0,1,.13-.06l1.07-1.35A1.63,1.63,0,0,0,96.26,30.06Z"></path><path class="cls-1" d="M93.42,33.21a3.22,3.22,0,0,0-1,1.55.91.91,0,0,1,.13-.08L93.94,33A.66.66,0,0,0,93.42,33.21Z"></path><path class="cls-1" d="M98.4,27.18c-.42.37-.88.74-.87,1.39a8,8,0,0,1,1.27-1.51A.44.44,0,0,0,98.4,27.18Z"></path><path class="cls-1" d="M98.33,23.71a4.09,4.09,0,0,1-.82-1l-.15-.07C97.58,23.39,97.82,23.68,98.33,23.71Z"></path><path class="cls-1" d="M97.36,22.61l0-.13a5.36,5.36,0,0,1-.91-1.15l-.13,0A1.74,1.74,0,0,0,97.36,22.61Z"></path><path class="cls-1" d="M97.51,22.68a1.71,1.71,0,0,1-.18-.2l0,.13Z"></path><path class="cls-1" d="M99.37,25.13v0a.19.19,0,0,1,0-.08,6.43,6.43,0,0,1-.95-1.2A1.38,1.38,0,0,0,99.37,25.13Z"></path><path class="cls-1" d="M99.37,25.09v0l.2.09L99.38,25A.19.19,0,0,0,99.37,25.09Z"></path><path class="cls-1" d="M98.81,27.05a3.78,3.78,0,0,1,.69-.9l0-.14A1,1,0,0,0,98.81,27.05Z"></path><path class="cls-1" d="M99.5,26.15l.22-.24-.25.1Z"></path><path class="cls-1" d="M96.29,21.28a.3.3,0,0,0,0-.1,6.45,6.45,0,0,1-1-1.26l-.14-.07A1.78,1.78,0,0,0,96.29,21.28Z"></path><path class="cls-1" d="M96.42,21.33c-.06,0-.1-.1-.15-.15a.3.3,0,0,1,0,.1Z"></path><path class="cls-1" d="M95.18,31.39l.11-.06a6.3,6.3,0,0,1,.95-1.18.29.29,0,0,1,0-.09A1.64,1.64,0,0,0,95.18,31.39Z"></path><path class="cls-1" d="M96.24,30.15a1.06,1.06,0,0,1,.15-.15.52.52,0,0,0-.13.06A.29.29,0,0,0,96.24,30.15Z"></path><path class="cls-1" d="M94,33a8.84,8.84,0,0,1,1.18-1.47l0-.09A1.8,1.8,0,0,0,94,33Z"></path><path class="cls-1" d="M95.15,31.48l.14-.15-.11.06Z"></path><path class="cls-1" d="M95.13,19.85a.44.44,0,0,0,0-.1A8.19,8.19,0,0,1,94,18.37h0A2,2,0,0,0,95.13,19.85Z"></path><path class="cls-1" d="M95.27,19.92c-.06-.05-.1-.11-.16-.17a.44.44,0,0,1,0,.1Z"></path><path class="cls-1" d="M91.66,15.51A9.36,9.36,0,0,1,90.45,14l-.1,0A1.92,1.92,0,0,0,91.66,15.51Z"></path><path class="cls-1" d="M91,36.54l0,0,1.32-1.64a.53.53,0,0,1,0-.12A2.43,2.43,0,0,0,91,36.54Z"></path><path class="cls-1" d="M92.35,34.88l.16-.2a.91.91,0,0,0-.13.08A.53.53,0,0,0,92.35,34.88Z"></path><path class="cls-1" d="M94,18.36s0,0,0-.06a2.77,2.77,0,0,1-.67-.85L93,17.32C93.21,17.78,93.32,18.3,94,18.36Z"></path><path class="cls-1" d="M94,18.37a.23.23,0,0,0-.07-.07s0,0,0,.06Z"></path><path class="cls-1" d="M93,17.32s0,0,0-.06v-.1a12.29,12.29,0,0,1-1.24-1.54A2.37,2.37,0,0,0,93,17.32Z"></path><path class="cls-1" d="M93,17.32l.24.13c-.09-.1-.17-.2-.26-.29v.1S93,17.3,93,17.32Z"></path><path class="cls-1" d="M89.76,37.94l.16-.08A6,6,0,0,1,91,36.57v0A1.73,1.73,0,0,0,89.76,37.94Z"></path><path class="cls-1" d="M91,36.57l0,0,0,0Z"></path><path class="cls-1" d="M88.5,39.52a.37.37,0,0,1,.11-.05,7.45,7.45,0,0,1,1.11-1.39s0-.09,0-.14A2.16,2.16,0,0,0,88.5,39.52Z"></path><path class="cls-1" d="M89.72,38.08l.2-.22-.16.08C89.75,38,89.73,38,89.72,38.08Z"></path><path class="cls-1" d="M87.2,10.07a2.91,2.91,0,0,0,.93,1.48.44.44,0,0,0,.48.17,8.84,8.84,0,0,1-1.32-1.61h0Z"></path><path class="cls-1" d="M87.26,41a1.94,1.94,0,0,0,.24-.15,6.27,6.27,0,0,1,1-1.2.19.19,0,0,1,0-.08C87.79,39.73,87.55,40.37,87.26,41Z"></path><path class="cls-1" d="M88.48,39.6l.13-.13a.37.37,0,0,0-.11.05A.19.19,0,0,0,88.48,39.6Z"></path><path class="cls-1" d="M90.35,13.94s0,0,0-.07a4,4,0,0,1-.81-1l-.09,0A1.2,1.2,0,0,0,90.35,13.94Z"></path><path class="cls-1" d="M90.45,14s-.07-.08-.11-.11,0,.05,0,.07Z"></path><path class="cls-1" d="M87.26,41a3.22,3.22,0,0,0-1.5,1.86h.07a15.65,15.65,0,0,1,1.41-1.73s0-.07,0-.1Z"></path><path class="cls-1" d="M87.25,41s0,.07,0,.1.17-.19.26-.29a1.94,1.94,0,0,1-.24.15Z"></path><path class="cls-1" d="M89.44,12.82a.22.22,0,0,1,0-.08,3.88,3.88,0,0,1-.82-1A1.07,1.07,0,0,0,89.44,12.82Z"></path><path class="cls-1" d="M89.53,12.85a.52.52,0,0,1-.1-.11.22.22,0,0,0,0,.08Z"></path><path class="cls-1" d="M84,8.78a6.7,6.7,0,0,1-1.51.88A1.43,1.43,0,0,0,84,8.78Z"></path><path class="cls-1" d="M82.45,41.45a.29.29,0,0,1,0,.1,3.67,3.67,0,0,1,1.19.7A1.18,1.18,0,0,0,82.45,41.45Z"></path><path class="cls-1" d="M85.31,8h0L84,8.74A1.11,1.11,0,0,0,85.31,8Z"></path><path class="cls-1" d="M87.2,10.07s0-.05,0-.07a6,6,0,0,1-1-1.25s-.07,0-.11,0A1.73,1.73,0,0,0,87.2,10.07Z"></path><path class="cls-1" d="M87.29,10.11h0a.52.52,0,0,0-.1-.11s0,0,0,.07Z"></path><path class="cls-1" d="M84.87,42.88A.57.57,0,0,1,85,43a.81.81,0,0,0,.77-.11.36.36,0,0,1,0-.09A1.29,1.29,0,0,0,84.87,42.88Z"></path><path class="cls-1" d="M85.72,42.9l.11-.08h-.07A.36.36,0,0,0,85.72,42.9Z"></path><path class="cls-1" d="M82.42,9.66a2.13,2.13,0,0,1-1,.59h0C82,10.33,82.36,10.28,82.42,9.66Z"></path><polygon class="cls-1" points="81.46 10.26 81.46 10.25 81.45 10.25 81.45 10.25 81.46 10.26"></polygon><path class="cls-1" d="M81.55,41a2.43,2.43,0,0,1,.8.45h.1C82.33,41,82,40.91,81.55,41Z"></path><path class="cls-1" d="M82.35,41.44l.13.11a.29.29,0,0,0,0-.1Z"></path><path class="cls-1" d="M86.09,8.74l0-.1c-.24-.22-.4-.53-.75-.62h0C85.47,8.38,85.66,8.71,86.09,8.74Z"></path><polygon class="cls-1" points="85.31 8.02 85.31 8.02 85.31 8.01 85.31 8.01 85.31 8.01 85.31 8.02"></polygon><path class="cls-1" d="M86.2,8.75l-.14-.11,0,.1S86.16,8.76,86.2,8.75Z"></path><path class="cls-1" d="M83.68,42.25h0a4.08,4.08,0,0,1,1.12.66l.07,0A1.05,1.05,0,0,0,83.68,42.25Z"></path><path class="cls-1" d="M84.8,42.91,85,43a.57.57,0,0,0-.08-.13Z"></path><path class="cls-1" d="M82.43,37.14c-.06,0-.1,0-.11-.15a4.7,4.7,0,0,1,0-.65V14.69a1.55,1.55,0,0,1,.06-.77.91.91,0,0,1-.07-.14c-.08-.59-.63-1-.74-1.59a5.94,5.94,0,0,0-.07,1.33V37.4a7.48,7.48,0,0,0,.06,1.25c.11-.19.31-.35.4-.54A8.74,8.74,0,0,0,82.43,37.14Z"></path><path class="cls-1" d="M81.55,38.65a7.48,7.48,0,0,1-.06-1.25V13.52a5.94,5.94,0,0,1,.07-1.33.74.74,0,0,1,0-.3c-.46.08-.35.45-.35.73q0,12.83,0,25.64c0,.34,0,.69.37.87A.48.48,0,0,1,81.55,38.65Z"></path><path class="cls-1" d="M81.56,12.19c.11.59.66,1,.74,1.59a.91.91,0,0,0,.07.14.68.68,0,0,1,.13-.18A4.61,4.61,0,0,0,81.62,12a.61.61,0,0,1-.05.12A.43.43,0,0,1,81.56,12.19Z"></path><path class="cls-1" d="M82.43,37.14a8.74,8.74,0,0,1-.48,1c-.09.19-.29.35-.4.54s0,.14,0,.21,0,.09.05.13a6,6,0,0,0,1-1.89A.93.93,0,0,1,82.43,37.14Z"></path><path class="cls-1" d="M81.6,38.86c0-.07,0-.14,0-.21a.48.48,0,0,0,0,.48l.09-.14S81.62,38.9,81.6,38.86Z"></path><path class="cls-1" d="M81.57,12.14a.61.61,0,0,0,.05-.12s-.05-.09-.07-.13a.74.74,0,0,0,0,.3A.43.43,0,0,0,81.57,12.14Z"></path><path class="cls-1" d="M45.74,28.94V33c0,.27-.08.57.16.78A4.09,4.09,0,0,0,49.47,35a2.49,2.49,0,0,0,2-2.19,18.94,18.94,0,0,0,0-7.72c-.38-1.87-1.53-2.57-3.4-2.2a4.67,4.67,0,0,0-1.84.84,1.14,1.14,0,0,0-.54,1.08C45.76,26.16,45.74,27.55,45.74,28.94Z"></path><path class="cls-1" d="M82.52,60.22c-1.24,0-.54.89-.72,1.37a.86.86,0,0,0,0,.28,4.45,4.45,0,0,1,0,.73c-.12.73.22.94.88.84.18,0,.37,0,.55,0,.92-.09,1.36-.69,1.3-1.77S84,60.24,82.52,60.22Z"></path><path class="cls-1" d="M81.8,57.47a.87.87,0,0,0,0,.28c0,.34,0,.67,0,1s.06.44.38.51c1.39.29,2.19-.44,2-1.83-.14-.89-.63-1.17-1.78-1.13C81.38,56.35,81.94,57.07,81.8,57.47Z"></path><path class="cls-1" d="M90.27,61.21c-.92,0-1.42.41-1.41,1.2,0,.61.19,1.1,1,1.07s1.18-.43,1-1.43C90.73,61.85,91.19,61.17,90.27,61.21Z"></path><path class="cls-1" d="M31.72,58.57a.93.93,0,0,0-1,.69,6.69,6.69,0,0,0,0,3.66,1.08,1.08,0,0,0,2,0A7.56,7.56,0,0,0,33,61a6.28,6.28,0,0,0-.22-1.81A1,1,0,0,0,31.72,58.57Z"></path><path class="cls-1" d="M53.76,61.21c-.92.07-1.31.37-1.33,1.17,0,.63.15,1.11.92,1.1s1.08-.31,1.08-1.31C54.4,61.71,54.62,61.14,53.76,61.21Z"></path><path class="cls-1" d="M67.53,58.57a1.29,1.29,0,0,0-1.13,1.51c.06.84.75.19,1.07.48.36-.3,1.15.41,1.15-.61S68.27,58.55,67.53,58.57Z"></path><path class="cls-1" d="M82.55,36.67a1.09,1.09,0,0,0,0,.18,7.84,7.84,0,0,0,.83-1.5l.06-.1a1.71,1.71,0,0,1-.22-1q0-8.62,0-17.26a1.64,1.64,0,0,1,.23-1l-.06-.1a5,5,0,0,0-.89-1.64C82.69,21.69,82.61,29.18,82.55,36.67Z"></path><path class="cls-1" d="M83.4,15.85l.06.1a1,1,0,0,1,.14-.17,7,7,0,0,0-1.1-2c0,.16,0,.31,0,.47A5,5,0,0,1,83.4,15.85Z"></path><path class="cls-1" d="M83.39,35.35a7.84,7.84,0,0,1-.83,1.5.6.6,0,0,0,.1.25,5.4,5.4,0,0,0,.92-1.68,1.09,1.09,0,0,1-.13-.17Z"></path><path class="cls-1" d="M82.31,14.69V36.34a4.7,4.7,0,0,0,0,.65c0,.11.05.14.11.15l0-.09c0-.07.07-.13.1-.2a1.09,1.09,0,0,1,0-.18c.06-7.49.14-15,0-22.46a2.59,2.59,0,0,1-.14-.29A1.55,1.55,0,0,0,82.31,14.69Z"></path><path class="cls-1" d="M82.51,14.21c0-.16,0-.31,0-.47a.68.68,0,0,0-.13.18A2.59,2.59,0,0,0,82.51,14.21Z"></path><path class="cls-1" d="M82.46,37.05l0,.09a.93.93,0,0,0,.23,0,.6.6,0,0,1-.1-.25C82.53,36.92,82.49,37,82.46,37.05Z"></path><path class="cls-1" d="M84.16,32.51a1.3,1.3,0,0,0,.27.93,9.58,9.58,0,0,0,1.06-2,.56.56,0,0,0,.05-.08,1.28,1.28,0,0,1-.07-.7q0-5,0-10c0-.21-.21-.64.17-.65a17.53,17.53,0,0,0-1.27-2.33,2.29,2.29,0,0,0-.22,1.07C84.17,23.34,84.16,27.92,84.16,32.51Z"></path><path class="cls-1" d="M85.65,20a.69.69,0,0,1,.23,0,17.73,17.73,0,0,0-1.36-2.59,2,2,0,0,0-.14.23A17.53,17.53,0,0,1,85.65,20Z"></path><path class="cls-1" d="M85.49,31.47a9.58,9.58,0,0,1-1.06,2,.57.57,0,0,0,.13.14,5.61,5.61,0,0,0,1.1-2,.44.44,0,0,1-.12-.15A.56.56,0,0,1,85.49,31.47Z"></path><path class="cls-1" d="M83.54,17.71c0,5.81,0,11.62,0,17.43a10.6,10.6,0,0,0,.84-1.6c-.27-.09-.34-.37-.42-.63a3.15,3.15,0,0,1-.07-.92c0-4.29,0-8.58,0-12.87,0-.55-.12-1.19.43-1.55h0a7.39,7.39,0,0,0-.77-1.44A14.06,14.06,0,0,0,83.54,17.71Z"></path><path class="cls-1" d="M84.31,17.56h0l.21-.12a7,7,0,0,0-.92-1.67c0,.12,0,.23-.06.34A7.39,7.39,0,0,1,84.31,17.56Z"></path><path class="cls-1" d="M83.52,35.14v0a.76.76,0,0,0,.06.26,6,6,0,0,0,1-1.84.59.59,0,0,1-.2,0A10.6,10.6,0,0,1,83.52,35.14Z"></path><path class="cls-1" d="M83.23,34.23a1.71,1.71,0,0,0,.22,1,.41.41,0,0,1,.07-.11c0-5.81,0-11.62,0-17.43a14.06,14.06,0,0,1,0-1.59.89.89,0,0,1-.08-.17,1.64,1.64,0,0,0-.23,1Q83.24,25.6,83.23,34.23Z"></path><path class="cls-1" d="M83.52,35.14a.41.41,0,0,0-.07.11,1.09,1.09,0,0,0,.13.17.76.76,0,0,1-.06-.26Z"></path><path class="cls-1" d="M83.54,16.12c0-.11,0-.22.06-.34a1,1,0,0,0-.14.17A.89.89,0,0,0,83.54,16.12Z"></path><path class="cls-1" d="M83.88,19.12c0,4.29,0,8.58,0,12.87a3.15,3.15,0,0,0,.07.92c.08.26.15.54.42.63v0l.06-.08a1.3,1.3,0,0,1-.27-.93c0-4.59,0-9.17,0-13.76a2.29,2.29,0,0,1,.22-1.07.67.67,0,0,0-.07-.11C83.76,17.93,83.88,18.57,83.88,19.12Z"></path><path class="cls-1" d="M84.37,33.52v0a.59.59,0,0,0,.2,0,.57.57,0,0,1-.13-.14Z"></path><path class="cls-1" d="M84.38,17.68a2,2,0,0,1,.14-.23l-.21.12A.67.67,0,0,1,84.38,17.68Z"></path><path class="cls-1" d="M85.75,21.4v7.85c0,.65,0,1.29-.06,1.93a13.58,13.58,0,0,0,1.09-2.11l.06-.08a.81.81,0,0,1-.08-.44c0-1.88,0-3.76,0-5.64,0-.21-.08-.5.18-.5-.33-.73-.79-1.39-1.15-2.11A5.76,5.76,0,0,0,85.75,21.4Z"></path><path class="cls-1" d="M87,22.41a.58.58,0,0,1,.2,0A12.9,12.9,0,0,0,85.88,20a1.12,1.12,0,0,0-.08.26C86.16,21,86.62,21.68,87,22.41Z"></path><path class="cls-1" d="M86.78,29.07a13.58,13.58,0,0,1-1.09,2.11c0,.12,0,.24,0,.36A7.72,7.72,0,0,0,87,29.13a.53.53,0,0,1-.12-.14Z"></path><path class="cls-1" d="M85.48,20.66q0,5,0,10a1.28,1.28,0,0,0,.07.7,1.59,1.59,0,0,0,.15-.21c0-.64.06-1.28.06-1.93V21.4a5.76,5.76,0,0,1,0-1.1,1.51,1.51,0,0,1-.11-.22l0-.07C85.27,20,85.48,20.45,85.48,20.66Z"></path><path class="cls-1" d="M85.54,31.39a.44.44,0,0,0,.12.15c0-.12,0-.24,0-.36A1.59,1.59,0,0,1,85.54,31.39Z"></path><path class="cls-1" d="M85.65,20l0,.07a1.51,1.51,0,0,0,.11.22,1.12,1.12,0,0,1,.08-.26A.69.69,0,0,0,85.65,20Z"></path><path class="cls-1" d="M87,25.93c0,.95,0,1.89-.05,2.83.56-.83.91-1.8,1.48-2.64.27-.4.08-.77-.13-1.11-.45-.73-.84-1.5-1.22-2.27A26.14,26.14,0,0,0,87,25.93Z"></path><path class="cls-1" d="M88.34,25c.21.34.4.71.13,1.11-.57.84-.92,1.81-1.48,2.64,0,.13,0,.25,0,.37A26.51,26.51,0,0,0,88.8,26a.58.58,0,0,0,0-.61l-1.61-2.89a2.85,2.85,0,0,0,0,.29C87.5,23.51,87.89,24.28,88.34,25Z"></path><path class="cls-1" d="M86.77,22.91c0,1.88,0,3.76,0,5.64a.81.81,0,0,0,.08.44l.15-.23c.06-.94,0-1.88.05-2.83a26.14,26.14,0,0,1,.08-3.19c-.05-.08-.09-.16-.13-.24l0-.09C86.69,22.41,86.77,22.7,86.77,22.91Z"></path><path class="cls-1" d="M86.84,29a.53.53,0,0,0,.12.14c0-.12,0-.24,0-.37Z"></path><path class="cls-1" d="M87,22.41l0,.09c0,.08.08.16.13.24a2.85,2.85,0,0,1,0-.29A.58.58,0,0,0,87,22.41Z"></path></g></g></svg>