<svg xmlns="http://www.w3.org/2000/svg" viewBox="0 0 150.79 74"><defs><style>.cls-1{fill:#dff2f2;}</style></defs><g id="Layer_2"><g id="paypal"><path class="cls-1" d="M2,51.05c-.43,0-.63-.35-.84-.66v-.7c.2-1.64.49-3.27.74-4.9.83-5.21,1.64-10.42,2.47-15.62.47-3,.93-5.93,1.41-8.89a1.65,1.65,0,0,1,.79-1.19,1.75,1.75,0,0,1,.58-.17h12a.72.72,0,0,0,.46,0h.06c.12.06.24,0,.36,0a.65.65,0,0,1,.28,0,12.91,12.91,0,0,1,5,1.16A6.37,6.37,0,0,1,29,25.59a10.32,10.32,0,0,1-.1,2.29,2.11,2.11,0,0,0,0,.26c0,.07,0,.09-.09.07a10,10,0,0,0-4.07-1.08c-1.62-.13-3.23,0-4.85-.05-1.84,0-3.68,0-5.52,0a1.45,1.45,0,0,0-1.56,1.34c-.46,3.07-1,6.14-1.44,9.2-.11.68-.2,1.36-.34,2a1.13,1.13,0,0,0,0,.26c-.56,3.19-1,6.41-1.54,9.61-.07.42-.16.84-.22,1.26a.3.3,0,0,1-.33.29Z"></path><path class="cls-1" d="M19.63,18.92a.45.45,0,0,1-.46,0Z"></path><path class="cls-1" d="M20,19c-.12,0-.24.05-.35,0H20s0,0,0,0S20.05,19,20,19Z"></path><path class="cls-1" d="M20,19v0h.29v0Z"></path><path class="cls-1" d="M28.82,28.21l.06-.07a5,5,0,0,1,2.49,2.64,7.15,7.15,0,0,1,.52,3.3,14,14,0,0,1-1.34,5.36A9.26,9.26,0,0,1,24,44.63a18.37,18.37,0,0,1-4.44.41,1.39,1.39,0,0,0-1.57,1.32c-.38,2.28-.73,4.58-1.1,6.87,0,.21-.07.43-.12.65a1.4,1.4,0,0,1-1.4,1.2c-1.93,0-3.87,0-5.81,0A.86.86,0,0,1,8.65,54c.14-.88.26-1.76.43-2.64.05-.28-.05-.29-.27-.29H2.39a.82.82,0,0,1-.35,0h6.8c.2,0,.29-.06.33-.26.24-1.53.5-3.06.74-4.59s.51-3.31.77-5A5.6,5.6,0,0,1,11,39.88c.09-.46.45-.66.82-.83a1.67,1.67,0,0,1,.74-.12c1.25,0,2.5,0,3.75,0a15.28,15.28,0,0,0,6-1.22,10.14,10.14,0,0,0,4.24-3.51,13.7,13.7,0,0,0,2.08-5.06A2.45,2.45,0,0,1,28.82,28.21Z"></path><path class="cls-1" d="M28.82,28.21a14.35,14.35,0,0,1-1.69,5.14,10.73,10.73,0,0,1-7.67,5.31A20.91,20.91,0,0,1,15,39c-.79,0-1.58,0-2.38,0a1.7,1.7,0,0,0-1.64.88c-.14-.22,0-.43,0-.64.16-1.06.33-2.11.49-3.16.14-.89.29-1.78.43-2.67s.3-1.88.44-2.82.27-1.72.42-2.58A1.38,1.38,0,0,1,14,27c3.37,0,6.74,0,10.11,0a10.13,10.13,0,0,1,4.42,1C28.67,28.05,28.8,28.07,28.82,28.21Z"></path><path class="cls-1" d="M122.34,32A4.8,4.8,0,0,0,119,27.62a9.88,9.88,0,0,0-3.56-.61c-2.78,0-5.56,0-8.34,0a1.17,1.17,0,0,0-1.25,1.08c-.41,2.64-.83,5.27-1.24,7.91l-2,12.91a.67.67,0,0,0,.71.86h4.1a.77.77,0,0,0,.85-.73q.47-2.88.92-5.76a1.14,1.14,0,0,1,1.26-1.09h1.74a19,19,0,0,0,2.5-.11c.42,0,.84-.13,1.25-.22a7.41,7.41,0,0,0,4.87-3.34A10.63,10.63,0,0,0,122.34,32Zm-6.12,2.1a5.92,5.92,0,0,1-.2,1.25,2.81,2.81,0,0,1-2.14,2.07,15.66,15.66,0,0,1-3.82.17c.19-1.23.39-2.47.58-3.71l.27-1.66c.06-.38.27-.63.6-.64a14,14,0,0,1,2.89.12A2,2,0,0,1,116.22,34.09Z"></path><path class="cls-1" d="M63.79,32a4.67,4.67,0,0,0-2.47-4,8.28,8.28,0,0,0-3.61-1c-1.52-.11-3,0-4.29-.05H48.56a1.17,1.17,0,0,0-1.25,1.06l-1.62,10.3Q44.85,43.64,44,48.9a.68.68,0,0,0,.68.86q1.95,0,3.9,0a1.12,1.12,0,0,0,1.13-1l.87-5.5a1.14,1.14,0,0,1,1.24-1.08h2.41a13.52,13.52,0,0,0,3.11-.32,7.5,7.5,0,0,0,4.82-3.28A10.68,10.68,0,0,0,63.79,32Zm-6.43,3.64a2.86,2.86,0,0,1-2.43,1.85,26,26,0,0,1-3.43.12c.29-1.85.58-3.66.87-5.47a.62.62,0,0,1,.56-.58,12.28,12.28,0,0,1,3.15.17,1.92,1.92,0,0,1,1.59,2A4.72,4.72,0,0,1,57.36,35.65Z"></path><path class="cls-1" d="M81.17,34.59c-1.29,0-2.58,0-3.86,0a.65.65,0,0,0-.71.59c-.06.34-.12.68-.18,1.06a1.25,1.25,0,0,1-.14-.2,3.41,3.41,0,0,0-1.84-1.39,8.9,8.9,0,0,0-5-.18,9.27,9.27,0,0,0-6.64,10.94,5.56,5.56,0,0,0,3.33,4.16,7.68,7.68,0,0,0,7.1-.63,7.22,7.22,0,0,0,1.31-1c-.06.37-.1.67-.15,1a.69.69,0,0,0,.72.88h3.46a1.11,1.11,0,0,0,1.14-1c.12-.69.23-1.38.34-2.06q.89-5.64,1.78-11.28A.68.68,0,0,0,81.17,34.59ZM75.78,41.8a4.4,4.4,0,0,1-3.62,4.09A4.25,4.25,0,0,1,70,45.77a2.86,2.86,0,0,1-2-3,4.44,4.44,0,0,1,3.62-4.36,4.19,4.19,0,0,1,1.93.06A3,3,0,0,1,75.78,41.8Z"></path><path class="cls-1" d="M139.71,34.59q-1.92,0-3.84,0a.68.68,0,0,0-.73.64c0,.32-.1.64-.17,1l-.11-.14a3.42,3.42,0,0,0-2.07-1.5,8.94,8.94,0,0,0-4.73-.13,9.28,9.28,0,0,0-6.67,10.91,5.62,5.62,0,0,0,3.27,4.18,7.85,7.85,0,0,0,8.2-1.39c.07-.07.13-.17.26-.19-.05.31-.09.62-.14.92a.69.69,0,0,0,.73.87h3.43a1.11,1.11,0,0,0,1.16-1c.16-.92.3-1.85.45-2.77q.84-5.28,1.67-10.57A.68.68,0,0,0,139.71,34.59Zm-5.39,7.24a4.37,4.37,0,0,1-3.58,4.05,4.5,4.5,0,0,1-.9.09A3.2,3.2,0,0,1,127,44.66,3.48,3.48,0,0,1,126.6,42a4.44,4.44,0,0,1,5.45-3.54A3,3,0,0,1,134.32,41.83Z"></path><path class="cls-1" d="M102.75,35a.76.76,0,0,0-.76-.38c-1.21,0-2.42,0-3.63,0a1.34,1.34,0,0,0-1.22.64c-.81,1.22-1.63,2.42-2.46,3.63L91.8,43.09c0-.12-.06-.19-.08-.27-.72-2.4-1.44-4.81-2.17-7.21a1.19,1.19,0,0,0-1.36-1c-1.17,0-2.35,0-3.52,0a.75.75,0,0,0-.76,1.07c1.41,4.07,2.79,8.16,4.2,12.24a.6.6,0,0,1-.1.63l-3.8,5.35a.75.75,0,0,0-.14.83.76.76,0,0,0,.76.38h3.66a1.29,1.29,0,0,0,1.15-.6l13-18.71A.76.76,0,0,0,102.75,35Z"></path><path class="cls-1" d="M148.79,27q-1.84,0-3.69,0a.67.67,0,0,0-.71.62c-.13.76-.25,1.53-.37,2.29q-.6,3.79-1.19,7.59-.54,3.41-1.07,6.81c-.24,1.53-.49,3-.73,4.58a.69.69,0,0,0,.77.87H145a1.11,1.11,0,0,0,1.19-1c.26-1.62.52-3.24.77-4.87l1-6.41q.54-3.4,1.07-6.81c.15-1,.31-1.89.44-2.84A.67.67,0,0,0,148.79,27Z"></path></g></g></svg>