<svg xmlns="http://www.w3.org/2000/svg" viewBox="0 0 101.51 74"><defs><style>.cls-1{fill:#dff2f2;}</style></defs><g id="Layer_2"><g id="bankofamerica"><path class="cls-1" d="M100.78,27a1.1,1.1,0,0,1-1,.68,1,1,0,0,1-1-.79,1,1,0,0,1,.64-1.14,1,1,0,0,1,1.26.45l.1.17Zm-1,.51a.86.86,0,0,0,.87-.82.87.87,0,0,0-.88-.87.89.89,0,0,0-.89.87A.87.87,0,0,0,99.79,27.51Z"></path><path class="cls-1" d="M49.5,57.32,44,53.6c.37-.26.76-.54,1.15-.8A95.67,95.67,0,0,1,63,43.14c1.83-.74,3.69-1.39,5.53-2.09a.75.75,0,0,1,.7.06c1.16.67,2.33,1.33,3.5,2l.41.26A101.24,101.24,0,0,0,49.5,57.32Z"></path><path class="cls-1" d="M67.4,40.18l-3.5,1.16A87.15,87.15,0,0,0,53,45.93a91.62,91.62,0,0,0-10.85,6.4.33.33,0,0,1-.38.05c-1.63-.88-3.26-1.74-4.89-2.61l-.12-.09,1.56-1a86,86,0,0,1,16.57-8.19c2.45-.9,4.93-1.68,7.44-2.36a.89.89,0,0,1,.66,0l4.2,1.93A1.5,1.5,0,0,1,67.4,40.18Z"></path><path class="cls-1" d="M7.12,22l.44.2A2.75,2.75,0,0,1,9.17,25a2.61,2.61,0,0,1-2,2.32,5.9,5.9,0,0,1-1.39.2c-1.29,0-2.58,0-3.88,0l-.26,0V16.92l.23,0c1.35,0,2.7,0,4.05,0a4.09,4.09,0,0,1,1.34.26A2.35,2.35,0,0,1,8.9,19.34a2.43,2.43,0,0,1-1.42,2.42ZM4.17,25.58c.45,0,.86,0,1.26,0A1.21,1.21,0,0,0,6.6,24.3a1.26,1.26,0,0,0-1.09-1.39c-.36,0-.73,0-1.09,0-.19,0-.25.07-.25.26,0,.62,0,1.24,0,1.86Zm0-5.62c0,.32,0,.65,0,1,0,.07.11.2.16.2A6.81,6.81,0,0,0,5.7,21a1.06,1.06,0,0,0,.78-1.24,1,1,0,0,0-1-1c-.35,0-.69,0-1,0-.19,0-.24.07-.24.25S4.17,19.64,4.17,20Z"></path><path class="cls-1" d="M59,27.53H57.79c-.28,0-.56,0-.83,0s-.29-.12-.29-.33V20.31c0-.13,0-.25.19-.25.68,0,1.37,0,2.09,0l.09.76.3-.24a3.13,3.13,0,0,1,1.85-.7,1.47,1.47,0,0,1,1.43.83l.11.16.37-.32a2.59,2.59,0,0,1,2.3-.6,1.46,1.46,0,0,1,1.16,1.39,1.77,1.77,0,0,1,0,.23V27.2c0,.24,0,.34-.31.33-.58,0-1.15,0-1.73,0-.26,0-.31-.09-.31-.33q0-2.34,0-4.68c0-.29,0-.62-.31-.77A.8.8,0,0,0,63,22a.69.69,0,0,0-.2.43c0,1.59,0,3.18,0,4.77,0,.3-.09.37-.37.36-.57,0-1.13,0-1.7,0-.24,0-.31-.07-.31-.31,0-.62,0-1.24,0-1.86V22.48c0-.48-.1-.67-.37-.75a1,1,0,0,0-1,.36.67.67,0,0,0-.07.35c0,1.56,0,3.12,0,4.68Z"></path><path class="cls-1" d="M55.8,27.53H53.4c-.06,0-.16-.12-.17-.2-.12-.56-.23-1.13-.33-1.69,0-.2-.12-.27-.32-.27q-1,0-2,0a.26.26,0,0,0-.31.25c-.12.54-.26,1.08-.37,1.62,0,.22-.12.31-.35.3-.65,0-1.3,0-2,0l.52-2.21c.63-2.69,1.27-5.36,1.89-8,.06-.27.15-.39.46-.38,1,0,1.92,0,2.87,0,.2,0,.29.06.33.26.5,2.4,1,4.79,1.51,7.19Zm-3.34-4c-.25-1.48-.5-2.93-.77-4.37h-.12l-.92,4.36Z"></path><path class="cls-1" d="M48.75,41.49l-2.64,1.13a84.81,84.81,0,0,0-9.38,4.84.49.49,0,0,1-.52,0c-1.16-.58-2.32-1.14-3.48-1.7l-.27-.14,1.73-1A92.37,92.37,0,0,1,44,40.07a1.84,1.84,0,0,1,1.62,0c1,.47,2,.87,3,1.3Z"></path><path class="cls-1" d="M31.87,20.06c-.39.46-.75.86-1.11,1.27s-.48.55-.73.81a.35.35,0,0,0-.07.41c.6,1.53,1.19,3.07,1.79,4.6,0,.11.07.22.12.36l-.33,0c-.59,0-1.19,0-1.78,0a.38.38,0,0,1-.45-.31c-.31-.9-.64-1.8-1-2.7,0-.08-.06-.16-.12-.29-.25.29-.57.47-.56.9,0,.7,0,1.4,0,2.1,0,.21,0,.31-.28.3-.61,0-1.23,0-1.84,0-.22,0-.28-.08-.28-.28,0-3.37,0-6.73,0-10.09,0-.11,0-.26.17-.26h2.21v5.36l.07,0a2,2,0,0,0,.2-.21c.48-.6,1-1.21,1.44-1.82a.47.47,0,0,1,.41-.2C30.46,20.07,31.13,20.06,31.87,20.06Z"></path><path class="cls-1" d="M19.86,20.06l.07.76.28-.24a2.78,2.78,0,0,1,1.87-.7,1.54,1.54,0,0,1,1.64,1.58c0,1,0,1.93,0,2.9s0,1.89,0,2.84c0,.24-.05.34-.31.33-.6,0-1.19,0-1.78,0-.25,0-.31-.08-.31-.31,0-1.58,0-3.16,0-4.74,0-.3,0-.62-.35-.74a.8.8,0,0,0-.9.28.85.85,0,0,0-.14.45v4.68c0,.38,0,.38-.38.38-.58,0-1.15,0-1.72,0-.21,0-.29-.07-.29-.28,0-2.31,0-4.61,0-6.92,0-.13,0-.27.2-.27C18.45,20.07,19.14,20.06,19.86,20.06Z"></path><path class="cls-1" d="M26.91,43.38c1-.51,1.93-1,2.89-1.46a71.54,71.54,0,0,1,9.58-3.86.92.92,0,0,1,.52,0c1,.33,2,.68,3.13,1.05l-.29.14a70.64,70.64,0,0,0-11.82,5.53.49.49,0,0,1-.37.06Z"></path><path class="cls-1" d="M40.47,23.75A5.25,5.25,0,0,1,40,25.93a2.92,2.92,0,0,1-2.58,1.74,5.23,5.23,0,0,1-1.25-.08,2.78,2.78,0,0,1-2.18-2A5.53,5.53,0,0,1,34,22.08a3.1,3.1,0,0,1,3.51-2.22,3.17,3.17,0,0,1,2.92,3C40.43,23.16,40.45,23.46,40.47,23.75Zm-2.43,0H38a5,5,0,0,0,0-.55,12.16,12.16,0,0,0-.19-1.33.67.67,0,0,0-.69-.54.73.73,0,0,0-.72.52.9.9,0,0,0-.07.27c0,.95-.08,1.89-.07,2.83a2.35,2.35,0,0,0,.27,1,.67.67,0,0,0,1.15,0,1.11,1.11,0,0,0,.16-.39C37.91,24.93,38,24.33,38,23.73Z"></path><path class="cls-1" d="M95.18,26.89c-.29.19-.55.38-.82.53a2.13,2.13,0,0,1-2.87-.74,2.28,2.28,0,0,1,.7-2.94,5.53,5.53,0,0,1,2.6-.91c.25,0,.36-.12.33-.38s0-.3,0-.45a.65.65,0,0,0-.47-.62.69.69,0,0,0-.8.31,4.44,4.44,0,0,0-.26.62l-.2,0c-.51-.11-1-.23-1.54-.33-.25,0-.26-.14-.19-.35a2.24,2.24,0,0,1,1.23-1.36,4.07,4.07,0,0,1,3.43,0,1.93,1.93,0,0,1,1.2,1.86c0,1.06,0,2.11,0,3.16,0,.75,0,1.49.06,2.27H95.74c-.48,0-.48,0-.53-.47A.67.67,0,0,0,95.18,26.89Zm-.07-3-.3,0a1.31,1.31,0,0,0-1.18,1.68.67.67,0,0,0,.68.51c.32,0,.79-.32.8-.56C95.12,25,95.11,24.5,95.11,23.92Z"></path><path class="cls-1" d="M16.18,27.53H14c-.06,0-.14-.11-.16-.18a2.61,2.61,0,0,1-.07-.47l-.3.22a2.37,2.37,0,0,1-2.31.47,2,2,0,0,1-1.3-2.22A2.23,2.23,0,0,1,11,23.59a5.8,5.8,0,0,1,2.36-.76c.25,0,.36-.12.32-.38s0-.28,0-.43a.64.64,0,0,0-.46-.65.75.75,0,0,0-.84.36,4.53,4.53,0,0,0-.2.59c-.63-.13-1.27-.26-1.9-.41,0,0-.1-.17-.08-.24a2.09,2.09,0,0,1,1.14-1.37,4,4,0,0,1,3.68,0,1.89,1.89,0,0,1,1.06,1.8c0,1.3,0,2.61,0,3.91C16.1,26.51,16.14,27,16.18,27.53Zm-2.49-3.61-.3,0a1.32,1.32,0,0,0-1.18,1.71.7.7,0,0,0,.73.48c.31,0,.74-.31.74-.55C13.7,25.05,13.69,24.51,13.69,23.92Z"></path><path class="cls-1" d="M74.16,24.29H70.5c-.47,0-.48,0-.43.48a2.46,2.46,0,0,0,.14.61,1,1,0,0,0,1,.75,1.19,1.19,0,0,0,1.11-.64c.06-.1.11-.22.18-.36l1.56.54a3,3,0,0,1-1.85,1.83A3.26,3.26,0,0,1,67.8,25a5.13,5.13,0,0,1,.35-3.45,3.14,3.14,0,0,1,5.06-.76,4,4,0,0,1,.87,2.15C74.13,23.38,74.14,23.82,74.16,24.29ZM71,22.89c.25,0,.5,0,.75,0s.22-.06.19-.21a6.19,6.19,0,0,0-.15-.86.76.76,0,0,0-.7-.51.72.72,0,0,0-.73.37,4.89,4.89,0,0,0-.29.94c0,.19,0,.28.25.27S70.76,22.89,71,22.89Z"></path><path class="cls-1" d="M45.76,18.54c-.26,0-.47,0-.68,0a.67.67,0,0,0-.65.67c-.07.84-.07.84.77.84.56,0,.56,0,.56.56,0,.27,0,.53,0,.8s-.06.3-.28.28-.5,0-.75,0-.32.09-.32.33c0,1.7,0,3.39,0,5.08,0,.43,0,.43-.41.43s-1.06,0-1.58,0c-.3,0-.37-.1-.36-.38,0-1.7,0-3.4,0-5.11,0-.26-.06-.37-.35-.36-.65,0-.65,0-.65-.66a.41.41,0,0,1,0-.11c0-.27-.08-.61,0-.78s.48-.07.73-.07.21-.11.21-.26a10.41,10.41,0,0,1,.09-1.48,1.94,1.94,0,0,1,2-1.65,9.74,9.74,0,0,1,1.32.08c.08,0,.21.12.21.19C45.77,17.48,45.76,18,45.76,18.54Z"></path><path class="cls-1" d="M90.6,22.78h-2c0-.1,0-.2,0-.3a5.71,5.71,0,0,0-.18-.74.71.71,0,0,0-1.29,0,3.84,3.84,0,0,0-.26,1.14c0,.72,0,1.45,0,2.18a2,2,0,0,0,.16.61.71.71,0,0,0,.7.49.75.75,0,0,0,.76-.47,8.85,8.85,0,0,0,.25-1l1.75.23a2.63,2.63,0,0,1-2.2,2.68,3.28,3.28,0,0,1-4-3,4.42,4.42,0,0,1,1.16-3.92,3.12,3.12,0,0,1,4.43.08A3.28,3.28,0,0,1,90.6,22.78Z"></path><path class="cls-1" d="M39.44,36.49l2.73-.86h0a2.5,2.5,0,0,1,2,0,84.35,84.35,0,0,1,9.59,3.82l.2.1-1,.37c-.77.29-1.55.57-2.32.84a.53.53,0,0,1-.35,0,79,79,0,0,0-8.54-3.45l-2.29-.74Z"></path><path class="cls-1" d="M45.25,34.75c.55-.13,1.09-.27,1.64-.39s1.06-.24,1.6-.32a1.64,1.64,0,0,1,.62.06,79.69,79.69,0,0,1,10.36,3.67l.17.09-.36.11-3,.88a.61.61,0,0,1-.4,0,74.45,74.45,0,0,0-9.47-3.67l-1.12-.35Z"></path><path class="cls-1" d="M75.22,20.08h2.27V21a7.14,7.14,0,0,1,1.09-.81,7.53,7.53,0,0,1,1.29-.38v2.36c-.39,0-.78-.07-1.17-.07a1.84,1.84,0,0,0-.6.16.77.77,0,0,0-.53.82c0,1.37,0,2.75,0,4.13,0,.26-.08.33-.33.32-.6,0-1.21,0-1.81,0-.18,0-.26-.05-.26-.24,0-2.36,0-4.71,0-7.07C75.2,20.19,75.21,20.15,75.22,20.08Z"></path><path class="cls-1" d="M83.1,20.08c0,.11,0,.21,0,.3,0,2.28,0,4.56,0,6.83,0,.26-.08.33-.32.32-.6,0-1.21,0-1.81,0-.16,0-.27,0-.27-.23,0-2.36,0-4.73,0-7.09a.83.83,0,0,1,0-.13Z"></path><path class="cls-1" d="M83.1,19H80.94c-.13,0-.22,0-.21-.19V16.92H83.1Z"></path><path class="cls-1" d="M73.23,45.23c.12.09.23.14.27.23.14.32.27.65.44,1.06.14-.41.25-.73.37-1.05s.08-.19.34-.14a9.79,9.79,0,0,1,0,1.43h-.1V45.59l-.09,0L74,46.79h-.1l-.47-1.22-.07,0v1.15h-.08Z"></path><path class="cls-1" d="M71.78,46.45a2.7,2.7,0,0,0,.63.19c.08,0,.24-.14.25-.23s-.12-.21-.21-.26-.29-.07-.41-.14a.52.52,0,0,1-.24-.27c-.08-.24.08-.43.36-.47s.56.07.59.38a.65.65,0,0,0-.58-.25.33.33,0,0,0-.21.22c0,.08.1.2.18.24a2.4,2.4,0,0,0,.44.12.32.32,0,0,1,.26.39.68.68,0,0,1-.26.39A.54.54,0,0,1,71.78,46.45Z"></path><path class="cls-1" d="M100,26.81l.23.38-.07,0a4,4,0,0,0-.28-.4.86.86,0,0,0-.23-.13,1.8,1.8,0,0,0-.08.21,2.89,2.89,0,0,0,0,.29h-.09v-1a2.79,2.79,0,0,1,.64-.07c.08,0,.24.19.23.25A1.87,1.87,0,0,1,100,26.81Zm-.12-.16c.1-.08.27-.15.28-.23s-.19-.22-.35-.23-.24,0-.25.19S99.66,26.61,99.86,26.65Z"></path></g></g></svg>