<svg xmlns="http://www.w3.org/2000/svg" viewBox="0 0 72.39 74"><defs><style>.cls-1{fill:#dff2f2;}.cls-2{fill:none;stroke:#dff2f2;stroke-miterlimit:10;stroke-width:0.75px;}</style></defs><g id="Layer_2"><g id="americanexpress"><path class="cls-1" d="M70.47,47.4V71.55H1.37V2.45h69.1V45.68s-.06,0-.07-.07a2.17,2.17,0,0,0-2.14-1.35c-.71,0-1.42,0-2.13,0a.7.7,0,0,1-.72-1,.73.73,0,0,1,.75-.43h3.18a.39.39,0,0,0,.3-.11c.25-.52.48-1.06.72-1.6l-.14,0c-1.48,0-3,0-4.45,0a2.46,2.46,0,0,0-1.9.92,2.58,2.58,0,0,0-.49,2,2,2,0,0,0,.81,1.43,2.77,2.77,0,0,0,1.62.5h2a.69.69,0,0,1,.78.69.7.7,0,0,1-.78.69c-1.29,0-2.58,0-3.88,0-.14,0-.29,0-.28.21,0,.46,0,.92,0,1.38a.26.26,0,0,0,.19.19c1.53,0,3.06,0,4.59-.07a2.14,2.14,0,0,0,1.86-1.26Zm-43-6.13c.34-.45.68-.86,1-1.29a.67.67,0,0,1,.62-.31H70c.39,0,.39,0,.39-.39V2.92c0-.4,0-.4-.41-.4H1.86c-.41,0-.41,0-.41.4V31.29l.11-.18c.76-1.8,1.53-3.59,2.29-5.38.06-.14.11-.26.32-.26H8.28a.36.36,0,0,1,.27.18c.2.4.36.82.54,1.23l.73,1.71c0-.94,0-1.86,0-2.78,0-.27.07-.36.35-.35H15c.65,0,.51-.12.74.53l.65,1.84c.25-.73.49-1.37.69-2a.44.44,0,0,1,.51-.36c5.91,0,11.82,0,17.73,0,2.2,0,4.39,0,6.59,0,.26,0,.35.08.33.34s0,.54,0,.85l.28-.21a4.68,4.68,0,0,1,2.72-1c2.76,0,5.53,0,8.3,0a.42.42,0,0,1,.29.2c.19.41.36.82.54,1.23.24.57.48,1.13.73,1.69,0-.94,0-1.87,0-2.8,0-.27.08-.33.34-.33q2.09,0,4.17,0a.43.43,0,0,1,.42.23c.32.52.66,1,1,1.56l0,0V25.49l.31,0c1.37,0,2.74,0,4.11,0,.27,0,.34.07.34.33q0,5.13,0,10.24c0,.27-.09.34-.35.34-1.19,0-2.39-.05-3.59,0a1.12,1.12,0,0,1-1.23-.7,12,12,0,0,0-.75-1.19c0,.59,0,1.08,0,1.58,0,.2-.05.3-.27.3q-3.19,0-6.38,0a.32.32,0,0,1-.34-.25c-.16-.4-.34-.79-.48-1.19a.32.32,0,0,0-.34-.24c-.45,0-.9,0-1.35,0a.31.31,0,0,0-.34.24c-.13.36-.29.7-.41,1.07a.48.48,0,0,1-.54.37c-1.45,0-2.9,0-4.34-.05a4.61,4.61,0,0,1-2.41-.74l-.51-.33V36c0,.41,0,.41-.43.41H35.54a.71.71,0,0,1-.63-.31c-.33-.44-.7-.87-1.06-1.32a.43.43,0,0,0,0,.1c0,.33,0,.65,0,1,0,.58.09.54-.53.54H8a.34.34,0,0,1-.36-.25c-.15-.41-.32-.8-.47-1.2a.31.31,0,0,0-.32-.23H5.51a.29.29,0,0,0-.32.22c-.15.39-.32.77-.47,1.17a.38.38,0,0,1-.42.29H1.86c-.41,0-.41,0-.41.41V71c0,.4,0,.4.41.4H69.93c.41,0,.41,0,.41-.41V49.83l-.13.06a4.82,4.82,0,0,1-2.68.69H46.15c-1.22,0-1.22,0-2-1-.16-.22-.34-.42-.55-.69v1.21c0,.43,0,.43-.43.44H39.56c-.64,0-.55,0-.55-.56,0-.77,0-1.53,0-2.33-.19.06-.34.13-.49.16-.45.08-.9.16-1.36.2s-1,0-1.53.06c0,.51,0,1,0,1.54a5.61,5.61,0,0,0,0,.58c0,.26-.08.35-.35.35H29a.47.47,0,0,1-.43-.22c-.35-.47-.72-.93-1.09-1.41-.36.47-.7.9-1,1.35a.61.61,0,0,1-.55.28H15.16c-.19,0-.37,0-.37-.27q0-5.17,0-10.35c0-.22.07-.28.28-.28H26a.59.59,0,0,1,.38.2C26.76,40.32,27.1,40.78,27.49,41.27ZM19.32,29l.11,0v.34c0,1.74,0,3.48,0,5.23,0,.24.06.34.32.33.45,0,.9,0,1.35,0,.23,0,.32-.05.31-.3V27.19c0-.25-.08-.31-.31-.31-.87,0-1.74,0-2.62,0a.34.34,0,0,0-.39.28c-.5,1.46-1,2.92-1.52,4.38-.05.15-.12.3-.18.46a.66.66,0,0,1-.17-.28l-1.6-4.56c0-.16-.12-.28-.33-.28-.92,0-1.84,0-2.76,0-.19,0-.25.06-.25.25v7.59c0,.17.06.23.23.23.47,0,.94,0,1.41,0,.28,0,.34-.09.34-.35,0-1.75,0-3.51,0-5.26,0-.1,0-.21,0-.31h.08l.12.3,1.89,5.35a.35.35,0,0,0,.39.28c.4,0,.8,0,1.2,0a.3.3,0,0,0,.35-.25q.78-2.22,1.58-4.45C19,29.86,19.18,29.45,19.32,29Zm43.07,2.78-.08,0-.2-.28c-1-1.49-1.91-3-2.87-4.46a.38.38,0,0,0-.36-.22q-1,0-2.07,0c-.21,0-.29.06-.29.28q0,3.77,0,7.53c0,.22.08.28.29.27h1.44c.24,0,.3-.07.3-.31,0-1.5,0-3,0-4.51v-.3l.07,0a2.69,2.69,0,0,1,.2.27c1,1.54,2,3.09,3,4.63a.49.49,0,0,0,.34.23c.66,0,1.33,0,2,0,.19,0,.24-.07.24-.25V27.15c0-.21-.07-.27-.27-.26-.46,0-.92,0-1.38,0-.24,0-.33.07-.32.33,0,1.43,0,2.87,0,4.31ZM45.58,46.23a3.05,3.05,0,0,1,.29-.11,2.56,2.56,0,0,0-.68-5H40.71c-.2,0-.29,0-.28.27V48.9c0,.19,0,.27.26.26.5,0,1,0,1.49,0,.22,0,.28-.08.27-.29V46.61c0-.1,0-.2,0-.32a3,3,0,0,0,.43,0,.65.65,0,0,1,.65.3c.67.81,1.34,1.6,2,2.4a.42.42,0,0,0,.27.17c.76,0,1.52,0,2.35,0ZM38.37,35,35.76,32l.25-.1a2.45,2.45,0,0,0,1.85-2.78,2.4,2.4,0,0,0-2.43-2.24c-1.5,0-3,0-4.51,0-.21,0-.28.08-.28.29,0,2.51,0,5,0,7.52,0,.2.06.28.26.27h1.32c.4,0,.4,0,.4-.38,0-.75,0-1.5,0-2.24a.37.37,0,0,1,.09-.27.93.93,0,0,1,.93.22c.72.85,1.44,1.71,2.17,2.56A.3.3,0,0,0,36,35Zm-15.54-4c0,1.24,0,2.49,0,3.73,0,.18,0,.31.26.3h6.06c.21,0,.26-.08.25-.27a11.61,11.61,0,0,1,0-1.18c0-.28-.09-.35-.36-.35-1.31,0-2.62,0-3.94,0-.22,0-.31-.07-.3-.29a7.12,7.12,0,0,0,0-.8c0-.27.08-.35.35-.34,1.28,0,2.56,0,3.85,0,.2,0,.29,0,.28-.27a10.46,10.46,0,0,1,0-1.12c0-.28-.08-.35-.35-.35H25.11c-.22,0-.31-.07-.3-.29a6.26,6.26,0,0,0,0-.75c0-.26.08-.34.35-.34h4c.21,0,.29-.05.28-.27,0-.4,0-.79,0-1.18s-.09-.31-.32-.31c-2,0-4,0-5.95,0-.26,0-.31.1-.31.34C22.84,28.46,22.83,29.69,22.83,30.93ZM18.25,47.37c0-.38,0-.73,0-1.07s.08-.37.37-.36H22.4c.22,0,.29-.07.28-.28,0-.38,0-.75,0-1.12s-.07-.31-.29-.3H20.52c-.64,0-1.29,0-1.93,0-.28,0-.37-.09-.35-.37a4.21,4.21,0,0,0,0-.71c0-.27.08-.35.34-.34,1.3,0,2.61,0,3.91,0,.24,0,.32-.08.31-.32s0-.78,0-1.18c0-.17,0-.25-.24-.25H16.46c-.17,0-.24.06-.24.23q0,3.8,0,7.59c0,.19.08.24.26.24h6.06c.19,0,.26-.06.25-.24,0-.42,0-.83,0-1.24,0-.23-.05-.32-.3-.32-.69,0-1.38,0-2.07,0Zm32.36,0c0-.4,0-.76,0-1.11s.06-.33.32-.32h3.82c.22,0,.31-.06.3-.29s0-.65,0-1,0-.43-.44-.43H50.93c-.23,0-.34,0-.32-.3a5.08,5.08,0,0,0,0-.78c0-.27.08-.34.34-.33h3.91c.24,0,.32-.08.31-.32s0-.76,0-1.15c0-.2,0-.29-.27-.29h-6c-.19,0-.27,0-.27.25q0,3.78,0,7.56c0,.19.06.25.25.25h6.09c.18,0,.24-.06.23-.23,0-.42,0-.83,0-1.24,0-.25-.07-.33-.33-.33-1.27,0-2.54,0-3.82,0ZM11,35c-.06-.15-.09-.25-.13-.34L9.74,32,7.67,27.16a.4.4,0,0,0-.43-.28c-.7,0-1.4,0-2.09,0a.3.3,0,0,0-.35.22q-1.5,3.54-3,7.08L1.45,35H3.39a.31.31,0,0,0,.36-.25c.16-.4.33-.79.47-1.2a.31.31,0,0,1,.34-.22H7.81a.34.34,0,0,1,.36.25c.16.42.33.83.51,1.24A.29.29,0,0,0,8.9,35Zm35.7,0c.69,0,1.31,0,1.93,0a.35.35,0,0,0,.38-.26c.15-.4.32-.8.47-1.2a.29.29,0,0,1,.32-.22h3.27a.31.31,0,0,1,.34.23c.17.42.33.83.51,1.24,0,.08.14.19.21.19h2.1a2.23,2.23,0,0,0-.08-.24L52.9,27.13a.37.37,0,0,0-.39-.25c-.69,0-1.38,0-2.07,0a.39.39,0,0,0-.42.28c-.89,2.1-1.79,4.18-2.69,6.27C47.12,33.92,46.92,34.42,46.69,35Zm16.22,6.17-.13,0c-1.49,0-3-.05-4.48,0a2.29,2.29,0,0,0-2.25,1.61,2.44,2.44,0,0,0,.56,2.65A2.39,2.39,0,0,0,58.3,46c.69,0,1.39,0,2.09,0a.68.68,0,0,1,.67.48.65.65,0,0,1-.67.89H56.45c-.15,0-.29,0-.28.21,0,.46,0,.92,0,1.38a.27.27,0,0,0,.2.19c1.46,0,2.93.05,4.39,0a2.5,2.5,0,0,0,2.16-3.51,2.07,2.07,0,0,0-2-1.33H58.76A.82.82,0,0,1,58,44a.7.7,0,0,1,.63-1.12h3.22c.1,0,.27-.05.31-.13C62.45,42.2,62.67,41.68,62.91,41.13ZM34.17,46.52h.38c.87,0,1.74,0,2.61-.07a2.41,2.41,0,0,0,1.72-.9,2.79,2.79,0,0,0,.59-2A2.5,2.5,0,0,0,37,41.1H32.42c-.2,0-.27,0-.27.26v7.55c0,.19.06.26.25.25.48,0,1,0,1.46,0,.26,0,.32-.09.32-.33C34.16,48.08,34.17,47.32,34.17,46.52Zm-2.3,2.64-.16-.23-2.9-3.64a.27.27,0,0,1,0-.42c.69-.83,1.36-1.67,2-2.51l1-1.26a10.47,10.47,0,0,1-1.38,0,1.57,1.57,0,0,0-1.74.88,19.38,19.38,0,0,1-1.22,1.6l-.21-.23c-.52-.67-1-1.35-1.56-2a.59.59,0,0,0-.37-.21c-.71,0-1.42,0-2.12,0a.51.51,0,0,0-.14,0,.72.72,0,0,0,.07.11c1,1.2,1.91,2.39,2.88,3.58.15.19.22.33,0,.56-.68.82-1.35,1.66-2,2.5l-1,1.27c.82,0,1.58,0,2.33,0,.08,0,.18-.09.24-.16.33-.42.64-.84,1-1.26l.84-1.1.14.16c.55.72,1.1,1.45,1.66,2.16a.47.47,0,0,0,.32.2C30.29,49.17,31.05,49.16,31.87,49.16Zm14.68-16a4.4,4.4,0,0,1-.82,0,3.21,3.21,0,0,1-1-.33,1.84,1.84,0,0,1-.85-1.54c-.16-1.4.48-2.64,2.16-2.6.58,0,1.17,0,1.75,0,.2,0,.28-.05.27-.26,0-.43,0-.86,0-1.29,0-.16,0-.27-.21-.26a28.9,28.9,0,0,0-2.95.08,3.24,3.24,0,0,0-2.8,2.39,5.38,5.38,0,0,0-.15,2.55,3.22,3.22,0,0,0,2,2.71,8.47,8.47,0,0,0,1.59.33.35.35,0,0,0,.25-.16,6.45,6.45,0,0,0,.29-.59Zm-7.74-2.24c0,1.25,0,2.49,0,3.73,0,.22.06.31.29.3H40.5c.2,0,.29,0,.29-.27q0-3.75,0-7.52c0-.24-.09-.29-.3-.29q-.68,0-1.35,0c-.27,0-.34.09-.34.35C38.81,28.46,38.81,29.7,38.81,30.93Z"></path><path class="cls-1" d="M42.45,44.53c0-.52,0-1,0-1.52a.23.23,0,0,1,.18-.16c.74,0,1.49,0,2.23,0a.88.88,0,0,1,.84.9.85.85,0,0,1-.91.8c-.7,0-1.39,0-2.09,0Z"></path><path class="cls-1" d="M33.93,30.35H32.84c-.16,0-.22-.05-.22-.21q0-.63,0-1.26c0-.17.05-.25.23-.25H35a.86.86,0,1,1,0,1.71H33.93Z"></path><path class="cls-1" d="M7.35,31.54H5l1.1-2.74h.09Z"></path><path class="cls-1" d="M52.59,31.54H50.28l1.1-2.75h.1Z"></path><path class="cls-1" d="M34.17,44.72c0-.6,0-1.16,0-1.72,0,0,.08-.15.12-.15.83,0,1.67,0,2.49,0a.93.93,0,0,1-.19,1.82Z"></path><rect class="cls-2" x="1.37" y="2.45" width="69.1" height="69.1"></rect></g></g></svg>