<svg xmlns="http://www.w3.org/2000/svg" viewBox="0 0 113.84 74"><defs><style>.cls-1{fill:#dff2f2;}</style></defs><g id="Layer_2"><g id="gusto"><path class="cls-1" d="M20.57,24.78c0-.65,0-1.14,0-1.62s.11-.51.5-.51c1.57,0,3.15,0,4.72,0,.38,0,.51.15.51.51,0,.76,0,1.51,0,2.27,0,6.89,0,13.77,0,20.66a12.38,12.38,0,0,1-18,10.54l-.43-.23a1.9,1.9,0,0,1-.2-.18l2.81-4.91c2.87,1.47,5.56,1.3,8-.85,1.86-1.65,2.25-3.85,2.06-6.29a4,4,0,0,0-.37.27,8.4,8.4,0,0,1-5.95,2.49,12.38,12.38,0,0,1-2.65-24.54,10,10,0,0,1,7.81,1.37C19.65,24,20,24.36,20.57,24.78Zm-6.78,3.16a6.63,6.63,0,0,0-6.65,6.62,6.72,6.72,0,0,0,6.65,6.66,6.73,6.73,0,0,0,6.65-6.65A6.66,6.66,0,0,0,13.79,27.94Z"></path><path class="cls-1" d="M100.13,46.93a12.38,12.38,0,1,1,12.4-12.33A12.37,12.37,0,0,1,100.13,46.93Zm0-5.71a6.74,6.74,0,0,0,6.7-6.62,6.65,6.65,0,1,0-6.7,6.62Z"></path><path class="cls-1" d="M49.84,30.23c0,2.28.1,4.56,0,6.82-.17,3.19-1.12,6.07-3.79,8.12a8.54,8.54,0,0,1-5,1.74,10.82,10.82,0,0,1-4.65-.59,8.86,8.86,0,0,1-5.51-6.87,20.28,20.28,0,0,1-.38-3.89c-.05-4.06,0-8.11,0-12.17,0-.6.19-.76.77-.75,1.43,0,2.86,0,4.3,0,.54,0,.7.17.69.7,0,3.79,0,7.58,0,11.37a20.78,20.78,0,0,0,.36,3.78,3.41,3.41,0,0,0,2.67,2.89,3.46,3.46,0,0,0,3.61-1.1A5.3,5.3,0,0,0,44,36.78c.07-4.4.08-8.81.12-13.21,0-.92,0-.92.94-.92,1.37,0,2.74,0,4.11,0,.56,0,.69.18.69.71,0,2.29,0,4.59,0,6.88Z"></path><path class="cls-1" d="M87.54,44.11A10.26,10.26,0,0,1,82,46.85c-2.86.36-5.41-.3-7.23-2.75A9,9,0,0,1,73,39.93a28,28,0,0,1-.25-3.55c0-6.53,0-13.06,0-19.6,0-.63.18-.8.79-.78,1.41.05,2.83.05,4.24,0,.6,0,.82.13.8.78,0,1.74,0,3.48,0,5.22,0,.52.18.66.68.66,1.9,0,3.8,0,5.7,0,.47,0,.66.11.64.62,0,1.25,0,2.5,0,3.75,0,.45-.13.6-.59.6-1.92,0-3.85,0-5.77,0-.51,0-.66.15-.66.66,0,3.17,0,6.35,0,9.52a6.09,6.09,0,0,0,.18,1.34A2.45,2.45,0,0,0,82.2,41a15.7,15.7,0,0,0,2-1Z"></path><path class="cls-1" d="M68.81,26,65.27,29.5c-.42-.34-.86-.73-1.34-1.07a4.23,4.23,0,0,0-3.43-.95,1.68,1.68,0,0,0-1.43,1.18A1.43,1.43,0,0,0,60,30.32c1.12.63,2.3,1.17,3.42,1.8a34.63,34.63,0,0,1,3.24,2,7,7,0,0,1-1.54,12c-3.75,1.63-9.12,1-12.12-2.85-.07-.08-.12-.17-.23-.31l3.4-3.72c1,.67,1.88,1.35,2.84,1.9a3.92,3.92,0,0,0,3,.55,3.35,3.35,0,0,0,1.16-.5,1.56,1.56,0,0,0,.35-2.45,6.09,6.09,0,0,0-1.6-1.3c-1.06-.63-2.18-1.13-3.26-1.71A11.39,11.39,0,0,1,55,32.8c-2.8-3.56-1.19-8.59,3.24-10.15a9.63,9.63,0,0,1,10.38,3A3.53,3.53,0,0,1,68.81,26Z"></path></g></g></svg>