<svg xmlns="http://www.w3.org/2000/svg" viewBox="0 0 121.78 74"><defs><style>.cls-1{fill:#dff2f2;}</style></defs><g id="Layer_2"><g id="stripe"><path class="cls-1" d="M7.89,52.78a22,22,0,0,1-5-1.06c-.53-.18-1.06-.37-1.58-.6a.35.35,0,0,1-.23-.39V43.11a1,1,0,0,1,.38.16,23.46,23.46,0,0,0,6,2.18,7.4,7.4,0,0,0,1.55.2c.14.07.3,0,.44.05a9.35,9.35,0,0,0,1.4,0c.11-.05.22,0,.32-.05a2.51,2.51,0,0,0,1.75-.76,1.77,1.77,0,0,0,.17-2,3.9,3.9,0,0,0-2-1.44c-1.34-.59-2.74-1-4.09-1.56a12,12,0,0,1-4.5-2.79A6.63,6.63,0,0,1,.83,33.48c0-.2,0-.41-.08-.62s0-.38,0-.56v-.57c.06-.19,0-.38,0-.57a8.56,8.56,0,0,1,1.61-4.57A8.24,8.24,0,0,1,5,24.22a13,13,0,0,1,5-1.53c.1-.05.22,0,.32-.05h.29c.19-.06.38,0,.57-.05h1.72c.21.07.42,0,.63.05H14c.1.06.22,0,.32.05h.3c.09.06.21,0,.31.05a23.72,23.72,0,0,1,4.62,1.1c.73.27.74.25.74,1v6.77c0,.33,0,.33-.29.19a18.65,18.65,0,0,0-5-1.7c-.44-.09-.88-.13-1.32-.19-.1-.06-.22,0-.32-.05H13c-.18-.07-.38,0-.56-.05h-.74c-.14.05-.3,0-.44.05a2.57,2.57,0,0,0-1.54.51,1.62,1.62,0,0,0,.06,2.44,9.27,9.27,0,0,0,3,1.43A33.85,33.85,0,0,1,17.12,36a9,9,0,0,1,3.46,2.91,7.4,7.4,0,0,1,1.2,3.31c0,.12,0,.24.06.36s0,.33.05.5v1c-.06.13,0,.26,0,.39A8.81,8.81,0,0,1,20.11,49a9.27,9.27,0,0,1-2.58,2.21,13.42,13.42,0,0,1-4,1.46c-.37.08-.75.1-1.13.15-.1,0-.21,0-.31,0h-.36c-.14,0-.3,0-.44,0H9c-.14-.06-.3,0-.44,0H8.21C8.11,52.77,8,52.83,7.89,52.78Z"></path><path class="cls-1" d="M35.86,45.53a6.22,6.22,0,0,0,1.84-.42c.21-.08.28,0,.28.21,0,2.07,0,4.15,0,6.22a.35.35,0,0,1-.24.37,9.44,9.44,0,0,1-2.8.79l-.56.08c-.1,0-.22,0-.32,0h-.29c-.16.06-.34,0-.5,0H31.41c-.12-.07-.26,0-.38,0a8.29,8.29,0,0,1-4.59-1.91,8.14,8.14,0,0,1-2.35-3.29,13.58,13.58,0,0,1-.54-2.06,2.44,2.44,0,0,1,0-.54.81.81,0,0,1,0-.31v-22a.76.76,0,0,1,0-.3c0-1.49,0-3,0-4.47,0-.27.09-.36.34-.41q3.75-.78,7.48-1.59c.28-.06.37,0,.33.27a.75.75,0,0,0,0,.21.74.74,0,0,0,0,.33v5.87a.92.92,0,0,1,0,.33c0,.22.16.14.26.14h5.72c.26,0,.35.05.35.33q0,3.24,0,6.48c0,.25-.08.3-.31.3H31.92c-.19,0-.29,0-.29.26q0,5.72,0,11.44s0,.08,0,.12c.06.2,0,.42.05.62a2.84,2.84,0,0,0,2.51,2.86,6.75,6.75,0,0,0,1.27,0C35.6,45.52,35.74,45.59,35.86,45.53Z"></path><path class="cls-1" d="M52.45,30.61A4.94,4.94,0,0,0,49,32.43a.48.48,0,0,0-.09.34q0,9.75,0,19.5c-.07.07-.16,0-.24,0H40.83c-.08,0-.17,0-.23,0V36.88q0-6.69,0-13.38c0-.31.09-.36.37-.36h6.48c.24,0,.37,0,.42.32.11.68.29,1.35.46,2.12a5.17,5.17,0,0,1,4.52-2.77,1.63,1.63,0,0,1,.54,0,8.93,8.93,0,0,1,1.63.26.29.29,0,0,1,.26.33q0,3.57,0,7.14c0,.26-.1.28-.3.22a6.27,6.27,0,0,0-2.2-.2C52.67,30.61,52.55,30.55,52.45,30.61Z"></path><path class="cls-1" d="M57.28,52.27c0-.27,0-.55,0-.82V23.59c0-.13,0-.27,0-.4a.51.51,0,0,1,.3,0h7.76c.25,0,.32.06.32.32q0,14.27,0,28.53c0,.22,0,.32-.29.32H57.54C57.46,52.31,57.36,52.35,57.28,52.27Z"></path><path class="cls-1" d="M65.6,18.86c-1.39.28-2.78.6-4.17.9s-2.62.53-3.92.85c-.23.05-.22-.08-.22-.23V17.12c0-1,0-2,0-3,0-.21.06-.3.27-.35l7.63-1.59.26-.07c.12,0,.21,0,.21.12a.75.75,0,0,1,0,.15c0,2.08,0,4.16,0,6.24C65.65,18.69,65.7,18.79,65.6,18.86Z"></path><path class="cls-1" d="M57.28,52.27l.31,0c2.57,0,5.15,0,7.73,0,.28,0,.33-.08.33-.34V23.5c0-.23,0-.34-.3-.34-2.6,0-5.2,0-7.8,0a2.48,2.48,0,0,0-.27,0c.09-.11.21-.06.31-.06h7.77c.27,0,.33.08.33.34V52c0,.26-.06.34-.34.34H57.59C57.49,52.34,57.36,52.39,57.28,52.27Z"></path><path class="cls-1" d="M23.53,22.46c0,.11,0,.22,0,.33q0,10.58,0,21.15c0,.37,0,.73,0,1.1-.09-.1-.05-.22-.05-.32V22.78C23.48,22.67,23.44,22.55,23.53,22.46Z"></path><path class="cls-1" d="M40.6,52.27l.27,0h7.82l.25,0c-.09.12-.21.07-.31.07H40.9C40.8,52.34,40.68,52.39,40.6,52.27Z"></path><path class="cls-1" d="M76.1,23.14l-1.95,0H69.1l-.36,0c.05-.13.17-.08.26-.08h6.82C75.92,23.07,76,23,76.1,23.14Z"></path><path class="cls-1" d="M65.6,18.86a.62.62,0,0,0,.05-.33V12.4c0-.14.06-.33-.21-.3.26-.14.25,0,.25.2v2.55c0,1.23,0,2.46,0,3.68C65.68,18.64,65.74,18.78,65.6,18.86Z"></path><path class="cls-1" d="M118.91,50.7c0-2.16,0-4.33,0-6.49,0-.06,0-.12-.06-.16s.1,0,.11,0a1.62,1.62,0,0,1,0,.22v6.12C119,50.51,119,50.62,118.91,50.7Z"></path><path class="cls-1" d="M77.07,60.19l0-6.23a.74.74,0,0,1,0-.36c0,2.13,0,4.25,0,6.38C77.14,60.05,77.15,60.14,77.07,60.19Z"></path><path class="cls-1" d="M31.65,23c0-2.13,0-4.26,0-6.38a.42.42,0,0,1,0-.15V22.8A.24.24,0,0,1,31.65,23Z"></path><path class="cls-1" d="M108.69,52.84h2.18a4.57,4.57,0,0,1-1.17,0A3.12,3.12,0,0,1,108.69,52.84Z"></path><path class="cls-1" d="M82.32,52.84h1.45A4.41,4.41,0,0,1,82.32,52.84Z"></path><path class="cls-1" d="M94.38,38.83a5.25,5.25,0,0,1,.05-1A4.11,4.11,0,0,1,94.38,38.83Z"></path><path class="cls-1" d="M94.43,37.33a4.7,4.7,0,0,1-.05-1A3.64,3.64,0,0,1,94.43,37.33Z"></path><path class="cls-1" d="M13.55,22.63a1.92,1.92,0,0,1-.63-.05A1.49,1.49,0,0,1,13.55,22.63Z"></path><path class="cls-1" d="M31.7,42.68a1.44,1.44,0,0,1-.05-.62C31.75,42.26,31.68,42.47,31.7,42.68Z"></path><path class="cls-1" d="M11.2,22.58a1.38,1.38,0,0,1-.57.05A1.22,1.22,0,0,1,11.2,22.58Z"></path><path class="cls-1" d="M.71,32.3a1.75,1.75,0,0,1,0,.56C.65,32.68.72,32.49.71,32.3Z"></path><path class="cls-1" d="M53.38,22.81h-.54A.64.64,0,0,1,53.38,22.81Z"></path><path class="cls-1" d="M12.4,29.83a1.32,1.32,0,0,1,.56.05C12.77,29.86,12.58,29.93,12.4,29.83Z"></path><path class="cls-1" d="M95.9,38.75a1.51,1.51,0,0,1,0,.56C95.84,39.13,95.91,38.94,95.9,38.75Z"></path><path class="cls-1" d="M95.94,36.34a1.32,1.32,0,0,1,0,.56C95.91,36.71,95.84,36.52,95.94,36.34Z"></path><path class="cls-1" d="M.75,31.16a1.83,1.83,0,0,1,0,.57C.72,31.54.65,31.34.75,31.16Z"></path><path class="cls-1" d="M21.89,43.05a1.24,1.24,0,0,1-.05-.5C22,42.7,21.88,42.88,21.89,43.05Z"></path><path class="cls-1" d="M33.27,52.89a1.2,1.2,0,0,1,.5,0C33.61,52.94,33.44,52.87,33.27,52.89Z"></path><path class="cls-1" d="M11.22,29.88a.83.83,0,0,1,.44-.05C11.52,29.93,11.37,29.86,11.22,29.88Z"></path><path class="cls-1" d="M9.47,45.7A.94.94,0,0,1,9,45.65C9.18,45.66,9.33,45.6,9.47,45.7Z"></path><path class="cls-1" d="M8.56,52.84a.94.94,0,0,1,.44,0C8.86,52.88,8.7,52.94,8.56,52.84Z"></path><path class="cls-1" d="M11.28,52.89a.94.94,0,0,1,.44,0C11.58,52.94,11.43,52.88,11.28,52.89Z"></path><path class="cls-1" d="M94.32,39.8a.71.71,0,0,1,.05-.38C94.36,39.55,94.41,39.68,94.32,39.8Z"></path><path class="cls-1" d="M111.4,52.82a.87.87,0,0,1,.39,0C111.67,52.87,111.53,52.82,111.4,52.82Z"></path><path class="cls-1" d="M21.85,44.43a.66.66,0,0,1,0-.39C21.88,44.17,21.94,44.31,21.85,44.43Z"></path><path class="cls-1" d="M31,52.84a.82.82,0,0,1,.38,0C31.28,52.88,31.15,52.93,31,52.84Z"></path><path class="cls-1" d="M94.37,35.86a.82.82,0,0,1-.05-.38C94.41,35.6,94.36,35.74,94.37,35.86Z"></path><path class="cls-1" d="M35.86,45.53a.71.71,0,0,1-.38,0C35.6,45.48,35.73,45.54,35.86,45.53Z"></path><path class="cls-1" d="M96,35.61A.79.79,0,0,1,96,36C96,35.86,95.91,35.72,96,35.61Z"></path><path class="cls-1" d="M10.34,22.64a.59.59,0,0,1-.32.05C10.12,22.6,10.23,22.65,10.34,22.64Z"></path><path class="cls-1" d="M112.08,52.77a.45.45,0,0,1,.32-.05C112.3,52.81,112.19,52.76,112.08,52.77Z"></path><path class="cls-1" d="M7.89,52.78a.59.59,0,0,1,.32,0C8.1,52.82,8,52.87,7.89,52.78Z"></path><path class="cls-1" d="M12.08,52.83a.42.42,0,0,1,.31,0C12.3,52.87,12.18,52.82,12.08,52.83Z"></path><path class="cls-1" d="M34.06,52.83a.51.51,0,0,1,.32,0C34.28,52.87,34.17,52.82,34.06,52.83Z"></path><path class="cls-1" d="M107.9,52.78a.52.52,0,0,1,.32,0C108.11,52.82,108,52.87,107.9,52.78Z"></path><path class="cls-1" d="M52.45,30.61a.45.45,0,0,1,.32-.05C52.67,30.65,52.56,30.6,52.45,30.61Z"></path><path class="cls-1" d="M13.31,29.89a.45.45,0,0,1,.32.05C13.52,29.93,13.41,30,13.31,29.89Z"></path><path class="cls-1" d="M14.89,22.75a.47.47,0,0,1-.31-.05C14.68,22.71,14.8,22.66,14.89,22.75Z"></path><path class="cls-1" d="M94.31,35.19a.57.57,0,0,1,0-.31C94.35,35,94.3,35.08,94.31,35.19Z"></path><path class="cls-1" d="M96,39.73A.48.48,0,0,1,96,40C95.92,40,96,39.83,96,39.73Z"></path><path class="cls-1" d="M94.26,40.47a.59.59,0,0,1,0-.32C94.3,40.26,94.35,40.37,94.26,40.47Z"></path><path class="cls-1" d="M14.28,22.69a.59.59,0,0,1-.32-.05C14.07,22.65,14.18,22.6,14.28,22.69Z"></path><path class="cls-1" d="M11.19,45.65a.59.59,0,0,1-.32.05C11,45.61,11.08,45.66,11.19,45.65Z"></path><path class="cls-1" d="M94.43,37.33c-.07-.33,0-.67-.05-1v-.48c-.06-.12,0-.25-.05-.38v-.29c-.06-.1,0-.21,0-.31-.15-.88-.27-1.77-.5-2.64a14.38,14.38,0,0,0-3.09-6.07A10.25,10.25,0,0,0,84,22.63a.79.79,0,0,1-.37-.05H82.45a.71.71,0,0,1-.38.05h0a10.74,10.74,0,0,0-2.37.55,9,9,0,0,0-3,1.86c-.11.1-.16.11-.19,0-.13-.62-.25-1.24-.37-1.86-.07-.07-.16,0-.23,0q-3.47,0-6.91,0c-.08,0-.17-.05-.22,0s0,.26,0,.39V61.76c0,.16,0,.22.21.18l3.21-.71,4.9-1c.07-.1,0-.21,0-.32,0-2,0-4,0-5.94a.74.74,0,0,1,0-.33V50.81a11.64,11.64,0,0,0,2.45,1.42,8.32,8.32,0,0,0,2.74.61,11.69,11.69,0,0,0,1.45,0c.22,0,.44,0,.66-.07a10,10,0,0,0,5.79-2.85,12.72,12.72,0,0,0,3.06-5,22.43,22.43,0,0,0,1-4.44c0-.1,0-.22,0-.32V39.8c.05-.12,0-.26.05-.38v-.59c.06-.35,0-.71.05-1Zm-9.26,5.23a4.89,4.89,0,0,1-2.65,2.69,5.2,5.2,0,0,1-5.25-1.12.53.53,0,0,1-.15-.41v-6h0V31.89a.59.59,0,0,1,.19-.48,4.93,4.93,0,0,1,6.09-.67,6,6,0,0,1,2.19,3.17A11.71,11.71,0,0,1,85.17,42.56Z"></path><path class="cls-1" d="M82.45,22.58c-.12,0-.26,0-.38.05C82.19,22.58,82.33,22.64,82.45,22.58Z"></path><path class="cls-1" d="M82.45,22.58c-.12.06-.26,0-.38.05h0A.71.71,0,0,0,82.45,22.58Z"></path><path class="cls-1" d="M84,22.63c-.11-.1-.25,0-.37-.05h0C83.7,22.64,83.83,22.58,84,22.63Z"></path><path class="cls-1" d="M84,22.63c-.12-.05-.25,0-.37-.05A.79.79,0,0,0,84,22.63Z"></path><path class="cls-1" d="M120.44,34.57a17,17,0,0,0-2.26-6.68,11,11,0,0,0-4.2-4,11.74,11.74,0,0,0-4.2-1.22.94.94,0,0,1-.44-.05H108a1.2,1.2,0,0,1-.5.05h0l-.9.13a11,11,0,0,0-5.84,2.69,12.85,12.85,0,0,0-2.38,2.86,15,15,0,0,0-1.56,3.41A15.62,15.62,0,0,0,96,35.61c-.06.12,0,.25-.05.37l0,.36c0,.18,0,.38,0,.56v1.85c.07.18,0,.38,0,.56v.42c.06.1,0,.21,0,.31a14.82,14.82,0,0,0,.29,2.12A17.92,17.92,0,0,0,97,44.73a13.56,13.56,0,0,0,1,2.21,12.16,12.16,0,0,0,2.55,3,11.61,11.61,0,0,0,3.4,2,13.11,13.11,0,0,0,3.87.87c.1,0,.21,0,.32,0l.47,0c.73,0,1.46,0,2.18,0l.53,0c.13,0,.26,0,.39,0h.29c.1-.06.22,0,.32-.05a17.17,17.17,0,0,0,6.51-2s0-.05,0-.08c0-2.14,0-4.27,0-6.4,0-.07,0-.15-.08-.17l-.13.08a17.51,17.51,0,0,1-9.59,1.62,5.84,5.84,0,0,1-2.72-1,4.9,4.9,0,0,1-2.06-3.54c-.07-.44-.06-.44.39-.44h15.59c.19,0,.27,0,.27-.25A37.32,37.32,0,0,0,120.44,34.57Zm-7.92.12h-8c-.14,0-.3,0-.28-.19a6.55,6.55,0,0,1,.65-2.82,4.1,4.1,0,0,1,4-2.31,4,4,0,0,1,3.63,3,6.89,6.89,0,0,1,.34,2.06C112.79,34.63,112.73,34.69,112.52,34.69Z"></path><path class="cls-1" d="M108,22.58c-.17,0-.34,0-.5.05C107.63,22.57,107.81,22.65,108,22.58Z"></path><path class="cls-1" d="M108,22.58c-.16.07-.34,0-.5.05h0A1.2,1.2,0,0,0,108,22.58Z"></path><path class="cls-1" d="M109.78,22.63c-.14-.1-.3,0-.45-.05h0C109.48,22.64,109.63,22.58,109.78,22.63Z"></path><path class="cls-1" d="M109.78,22.63c-.15-.05-.3,0-.44-.05A.94.94,0,0,0,109.78,22.63Z"></path></g></g></svg>