<svg xmlns="http://www.w3.org/2000/svg" viewBox="0 0 54.88 74"><defs><style>.cls-1{fill:#dff2f2;}</style></defs><g id="Layer_2"><g id="xero"><path class="cls-1" d="M41.79,32.73A4.2,4.2,0,1,0,46,36.92,4.2,4.2,0,0,0,41.79,32.73Zm0,5.64a1.45,1.45,0,1,1,1.45-1.45A1.45,1.45,0,0,1,41.79,38.37Z"></path><path class="cls-1" d="M24.33,32.71a4.24,4.24,0,0,0-4.1,3.19V36h8.2A4.22,4.22,0,0,0,24.33,32.71Z"></path><path class="cls-1" d="M27.49,10.94A26.06,26.06,0,1,0,53.55,37,26.06,26.06,0,0,0,27.49,10.94Zm-9.71,31.8a.79.79,0,0,1-.57-.25l-4.44-4.43L8.31,42.51a.79.79,0,0,1-.56.23.8.8,0,0,1-.8-.8.84.84,0,0,1,.24-.57l4.45-4.45L7.19,32.47a.79.79,0,0,1,.56-1.36.79.79,0,0,1,.56.23l4.46,4.45,4.45-4.44a.76.76,0,0,1,.56-.24.8.8,0,0,1,.8.8.79.79,0,0,1-.23.56L13.9,36.92l4.45,4.46a.79.79,0,0,1,.23.56A.8.8,0,0,1,17.78,42.74Zm10.7-5.18H20.16s0,.08,0,.13a4.57,4.57,0,0,0,.18.66,4.27,4.27,0,0,0,4,2.8,4.19,4.19,0,0,0,2-.49,4.68,4.68,0,0,0,1.15-.93l.28-.36a.8.8,0,0,1,1.18-.18A.87.87,0,0,1,29,40.41l0,0a6.23,6.23,0,0,1-1.5,1.41,5.9,5.9,0,0,1-3.84.89,5.89,5.89,0,0,1-5-4.37A5.62,5.62,0,0,1,18.5,37a5.83,5.83,0,0,1,11.56-1.15A1.47,1.47,0,0,1,28.48,37.56Zm6.71-4.79c-1.73.22-1.91,1-1.91,3v6a.8.8,0,1,1-1.6,0V32a.79.79,0,0,1,.79-.79.8.8,0,0,1,.78.63,3.29,3.29,0,0,1,2-.69h.24a.8.8,0,0,1,.8.8.78.78,0,0,1-.81.78A2.08,2.08,0,0,0,35.19,32.77Zm6.6,10a5.85,5.85,0,1,1,5.84-5.85A5.85,5.85,0,0,1,41.79,42.77Z"></path></g></g></svg>