<svg xmlns="http://www.w3.org/2000/svg" viewBox="0 0 80.08 74"><defs><style>.cls-1{fill:#dff2f2;}</style></defs><g id="Layer_2"><g id="adp"><path class="cls-1" d="M.9,54.6c1.29-2.21,2.52-4.33,3.76-6.44Q12.87,34.11,21.05,20a1.16,1.16,0,0,1,1.2-.68c5.75,0,11.5,0,17.24,0A17.43,17.43,0,0,1,50.34,23c.83.65,1.59,1.39,2.48,2.17V19.37H64.63a13.84,13.84,0,0,1,2.09,27.55,7.81,7.81,0,0,1-1.28.11c-.51,0-.71.14-.7.7,0,2.05,0,4.09,0,6.14v.72H52.88V49l-.15-.07-.41.38a17.5,17.5,0,0,1-13,5.38c-3.42,0-6.84,0-10.25,0h-.79V47.12c-.27,0-.48,0-.7,0-2.56,0-5.11,0-7.67,0a.93.93,0,0,0-.91.55q-1.89,3.28-3.84,6.56a1,1,0,0,1-.68.45c-4.38,0-8.75,0-13.13,0Zm31.68-4.32h2.47c2,0,4,.12,5.89-.09A13,13,0,0,0,51.4,43.1a.69.69,0,0,1,.71-.42h4.54c.16,0,.31,0,.52.05v.89q0,3,0,6.07c0,.25-.08.58.34.58h2.87v-7.6h1a41.79,41.79,0,0,0,5.14-.16,9.44,9.44,0,0,0-.7-18.68c-2.62-.17-5.27-.05-7.91-.1-.56,0-.73.15-.73.72,0,3.27,0,6.55,0,9.82,0,.25,0,.51,0,.82-1.25,0-2.43,0-3.61,0-.59,0-.8-.16-.91-.74A13.26,13.26,0,0,0,39.9,23.76c-5.08,0-10.15,0-15.22,0a.93.93,0,0,0-.92.54Q16.38,37,9,49.66c-.1.16-.18.34-.33.62,1.08,0,2.06,0,3,0a.92.92,0,0,0,1-.54c1.25-2.2,2.55-4.38,3.81-6.58a.88.88,0,0,1,.87-.5c4.87,0,9.74,0,14.61,0,.2,0,.4,0,.64,0Z"></path><path class="cls-1" d="M71.4,52.49a2.17,2.17,0,1,1-2.14-2.21A2.14,2.14,0,0,1,71.4,52.49Zm-4,0a1.83,1.83,0,1,0,1.8-1.86A1.84,1.84,0,0,0,67.41,52.49Z"></path><path class="cls-1" d="M35.84,31.32V27.05s.07-.08.1-.08a40,40,0,0,1,5.8.25,10,10,0,0,1-.51,19.68,52.45,52.45,0,0,1-5.37.23V42.71l.59,0h3.13a5.68,5.68,0,1,0,0-11.36Z"></path><path class="cls-1" d="M60.41,39.47V35.16h2.15c.76,0,1.51,0,2.27,0a2,2,0,0,0,1.88-2,1.93,1.93,0,0,0-2-1.87c-1.42,0-2.85,0-4.32,0V27A.58.58,0,0,1,60.6,27c1.53,0,3.07-.05,4.59,0a6.25,6.25,0,0,1,.19,12.47C63.74,39.57,62.09,39.47,60.41,39.47Z"></path><path class="cls-1" d="M32.55,39.5H18.7a4,4,0,0,1,.2-.45c.66-1.15,1.34-2.29,2-3.45a.75.75,0,0,1,.76-.45c2,0,3.89,0,5.83,0h.72V27h4.35Z"></path><path class="cls-1" d="M68.49,53.71c0-.8,0-1.6,0-2.44.52-.06,1.07-.29,1.42.21a.91.91,0,0,1-.26,1.3l.5.86-.15.14c-.15-.17-.29-.34-.44-.5s-.36-.33-.54-.5l-.21.68a2,2,0,0,0-.06.23Zm.84-2.31h-.27a2.21,2.21,0,0,0-.24.52c0,.26,0,.6.36.51.2,0,.49-.27.51-.43S69.46,51.6,69.33,51.4Z"></path></g></g></svg>