<svg xmlns="http://www.w3.org/2000/svg" viewBox="0 0 82.01 74"><defs><style>.cls-1{fill:#dff2f2;}</style></defs><g id="Layer_2"><g id="morgan"><path class="cls-1" d="M15.6,18.73q-2,7.41-4,14.81c-.17.62-.15,1.28-1.19,1.27s-1.05-.53-1.23-1.2Q7.28,26.5,5.33,19.41c-.09-.32,0-.78-.52-1-.33.36-.17.8-.17,1.18,0,4.71,0,9.41,0,14.12,0,.84-.23,1.07-1.05,1s-1.1-.09-1.09-1c0-5.94,0-11.88,0-17.82,0-.88.3-1,1.09-1,2.44,0,2.42,0,3,2.3,1.19,4.49,2.4,9,3.85,13.47.5-1.89,1-3.77,1.51-5.67.78-3,1.57-6,2.31-9,.2-.8.46-1.18,1.41-1.15,2.46.07,2.46,0,2.46,2.44,0,5.43,0,10.86,0,16.29,0,.87-.19,1.11-1.09,1.13s-1.05-.39-1.05-1.18c0-5,0-9.92,0-14.88C15.92,18.1,15.76,18.54,15.6,18.73Z"></path><path class="cls-1" d="M3.59,44.87a4.6,4.6,0,0,1,4.54-4.29,2.07,2.07,0,0,1,1.39,0c2.46.12,4.22,2.39,4.72,4.15.23.78-.37.78-.81,1-.59.28-.68-.15-.81-.54-.54-1.71-1.48-3-3.41-3.27a3.28,3.28,0,0,0-3.85,2.78,2.33,2.33,0,0,0,0,1.5c.54,2,2.31,2.56,3.91,3.27s3.15,1.28,4.21,2.69a6.13,6.13,0,0,1,0,6.35C12.6,60,9.82,61.06,7.89,60.68a6.56,6.56,0,0,1-5.3-4.32c-.17-.45-.46-1,.33-1.19s1.22-.16,1.42.6a4.82,4.82,0,0,0,2.08,2.74,4.14,4.14,0,0,0,4.21.3,3.2,3.2,0,0,0,1.9-3.17,3.58,3.58,0,0,0-2.06-3.59c-1.68-.88-3.54-1.4-5.1-2.52a3.54,3.54,0,0,1-1.78-3A2.7,2.7,0,0,1,3.59,44.87Z"></path><path class="cls-1" d="M80.68,29.12c0,1.44,0,2.88,0,4.32,0,.66.27,1.36-1,1.38s-1-.61-1-1.32c0-2.92,0-5.84,0-8.77,0-.93,0-1.94-.92-2.48s-2-.05-2.84.48a3,3,0,0,0-1.75,3c.16,2.66,0,5.34.07,8,0,.89-.29,1-1.07,1s-1-.11-1-.95c0-4.07,0-8.14,0-12.21,0-.42-.18-1.07.6-.9.49.11,1.39-.59,1.43.59,0,.74.39.46.73.26a15.8,15.8,0,0,1,1.53-.91c2.47-1.09,4.77.08,5.06,2.74a51.74,51.74,0,0,1,0,5.71Z"></path><path class="cls-1" d="M80.86,47c-.48,1.61-.92,3.23-1.43,4.83-1,3.25-2.1,6.48-3.16,9.72a5,5,0,0,1-4.2,3.67c-1,.14-1.58-.3-1.49-1,.06-.53.16-.64.78-.55a3.33,3.33,0,0,0,3.42-4.25c-1.31-3.82-2.72-7.61-4-11.43-.15-.43-.88-1.12,0-1.47s1.34.16,1.63,1c.92,2.79,1.91,5.57,2.92,8.34.12.32,0,1,.62.92.42,0,.45-.54.57-.9q1.38-4.24,2.78-8.51a5.93,5.93,0,0,1,.29-.69C80,46.63,80.58,46.26,80.86,47Z"></path><path class="cls-1" d="M19.89,46.19l.29.29c.91.3,1.88-.1,2.78.23.26,1.08-.23,1.39-1.26,1.32-.59,0-1.25-.25-1.8.21a88.47,88.47,0,0,0,0,10.17,1.84,1.84,0,0,0,2.29.8c.29-.1.72-.15.78.36s.07.76-.54.93c-2.24.64-4.39.07-4.33-3.11,0-2.74,0-5.49,0-8.24,0-.85-.18-1.28-1.11-1.15-1.11.16-1-.6-.92-1.29.56-.32,1.21.06,1.77-.23.54-1.42.08-2.91.28-4.35,1.64-.26,1.62-.26,1.65,1.3A12.13,12.13,0,0,0,19.89,46.19Z"></path><path class="cls-1" d="M19.9,58.41a.78.78,0,0,1-.24-.68v-8.8a.8.8,0,0,1,.24-.69Z"></path><path class="cls-1" d="M19.89,46.19a4.28,4.28,0,0,1-.2-2.57c.09-1.24-.36-1.69-1.55-1.49,1.52-.58,1.78-.43,1.78,1C19.92,44.19,19.9,45.19,19.89,46.19Z"></path><path class="cls-1" d="M23,46.71c-.92-.12-1.89.26-2.78-.23C21.11,46.57,22.07,46.15,23,46.71Z"></path><path class="cls-1" d="M17.86,46.48c-.54.45-1.18.14-1.77.23C16.63,46.19,17.27,46.54,17.86,46.48Z"></path><path class="cls-1" d="M80.86,47c-.35-.48-.86-.24-1.3-.3C80.56,46.26,80.9,46.34,80.86,47Z"></path><path class="cls-1" d="M33.36,60.22l1.65,0A1.3,1.3,0,0,1,33.36,60.22Z"></path><path class="cls-1" d="M5.36,46.19a1.2,1.2,0,0,1,0-1.5Z"></path><path class="cls-1" d="M3.59,44.87v1.64A1.35,1.35,0,0,1,3.59,44.87Z"></path><path class="cls-1" d="M52.77,60.21h1.54A1.18,1.18,0,0,1,52.77,60.21Z"></path><path class="cls-1" d="M9.52,40.58H8.13A1,1,0,0,1,9.52,40.58Z"></path><path class="cls-1" d="M39.26,60.21h1.36A1,1,0,0,1,39.26,60.21Z"></path><path class="cls-1" d="M46.87,60.22h1.36A1,1,0,0,1,46.87,60.22Z"></path><path class="cls-1" d="M55,21.79c1.09.15.89-.56.9-1.18,0-.93-.68-.58-1.09-.53a3,3,0,0,0-1.29.49,1.35,1.35,0,0,1-1.6.05,5.05,5.05,0,0,0-6.14,1.08,4.91,4.91,0,0,0-.14,6.21c.45.62.27.9-.17,1.34-1.54,1.57-1.45,2.45.38,3.85a3,3,0,0,1-.37.3A2.73,2.73,0,0,0,43.69,36a3,3,0,0,0,2.25,2.79,11.06,11.06,0,0,0,7.83-.13,3.22,3.22,0,0,0,1.62-4.46,3.94,3.94,0,0,0-2.82-2c-1.68-.47-3.44-.41-5.14-.72-.52-.09-1.14-.17-1-.87a1.39,1.39,0,0,1,1.35-1.13,3.42,3.42,0,0,1,.73.19,4.67,4.67,0,0,0,4.91-1.56A4.74,4.74,0,0,0,54.16,23C53.73,22,54,21.67,55,21.79Zm-5.72,12a11.53,11.53,0,0,1,3.25.44,1.53,1.53,0,0,1,.25,2.93,7.33,7.33,0,0,1-6.13,0c-1.22-.55-1.26-1.8-.22-2.65A3.92,3.92,0,0,1,49.24,33.74Zm.25-5.56c-1.77,0-2.86-1.19-2.87-3.13s1.17-3.36,3-3.37,2.91,1.23,2.92,3.24S51.42,28.18,49.49,28.18Z"></path><path class="cls-1" d="M67.33,31.5c0-2.33,0-4.66,0-7a3.87,3.87,0,0,0-2.66-3.79A5.25,5.25,0,0,0,58.5,22.3c-.26.3-1.13.6-.27,1.25.58.43,1,.82,1.62,0a3.32,3.32,0,0,1,3.8-1.34,2.2,2.2,0,0,1,1.64,2.28c0,1.22-1,.93-1.59,1.14-1.84.6-3.79,1-5.21,2.46a4.4,4.4,0,0,0-.37,5.49,3.94,3.94,0,0,0,5.44.91c.57-.36,1.09-.79,1.75-1.28-.14,2,1.15,1.6,2.41,1.48A9,9,0,0,1,67.33,31.5Zm-2-2.21A3.77,3.77,0,0,1,62,33.18,2.11,2.11,0,0,1,59.57,32a2.25,2.25,0,0,1,.5-2.86c.85-.88,2.88-1.7,5.21-2.11Z"></path><path class="cls-1" d="M32.15,24a5.18,5.18,0,0,0-5-3.75A5.13,5.13,0,0,0,22,23.87a11.72,11.72,0,0,0,0,7.84,5.07,5.07,0,0,0,5.05,3.49,5.14,5.14,0,0,0,5.06-3.69,10.12,10.12,0,0,0,.57-3.63A11.31,11.31,0,0,0,32.15,24ZM29.74,31.8A2.79,2.79,0,0,1,27,33.45a3.08,3.08,0,0,1-2.73-1.78,9.36,9.36,0,0,1-.81-4,8,8,0,0,1,1-4.2,3,3,0,0,1,5.24.15A8.85,8.85,0,0,1,29.74,31.8Z"></path><path class="cls-1" d="M41.64,20.56A3.38,3.38,0,0,0,39,22.09c-.22.31-.3.79-.91,1a11,11,0,0,1,0-1.53c.11-.82-.33-.86-1-.85s-1.09,0-1.08.9q.08,6.16,0,12.32c0,1,.49.83,1.1.87s1-.1,1-.87c-.06-2.12,0-4.24,0-6.36s1.93-4.88,3.84-5.09c1.19-.13,1-.78.94-1.44C42.82,20,42.06,20.54,41.64,20.56Z"></path><path class="cls-1" d="M68,57.43c-.49-.31-.81-.33-1.22.27a3.71,3.71,0,0,1-3.6,1.54c-2.09-.15-3.23-2.58-3.2-4.78,0-.67.24-.89.89-.87,1.15,0,2.29,0,3.44,0h1.91c2.33,0,2.64-.4,2.11-2.72-.06-.25-.12-.49-.19-.73-.54-2.08-2.27-3.82-3.94-4a4.89,4.89,0,0,0-5.22,2.94,10.55,10.55,0,0,0-.42,7.65,4.9,4.9,0,0,0,4.31,3.91,5.29,5.29,0,0,0,5.08-2.16C68.2,58.14,68.59,57.82,68,57.43Zm-7.79-6.36a4.53,4.53,0,0,1,2.32-3.3h0A1.09,1.09,0,0,1,64,47.72a4.18,4.18,0,0,1,2.36,3.65c.06.57-.1.74-.66.73-1.56,0-3.13,0-4.7,0C60.2,52.12,60.08,51.71,60.16,51.07Z"></path><path class="cls-1" d="M34.73,55c0-1.65,0-3.3,0-4.95a3.08,3.08,0,0,0-.32-1.46c-1.44-3-5.44-3.24-8-.64-.57.57-.71,1-.08,1.54a.56.56,0,0,0,.76,0,3.31,3.31,0,0,1,2.56-1.81,1.6,1.6,0,0,1,1.77,0h0a2.11,2.11,0,0,1,1.35,1.08c.89,1.32.47,2.32-1.1,2.69a12.23,12.23,0,0,0-4.77,1.93,4,4,0,0,0-.94,5.8,3.81,3.81,0,0,0,5.61.5c1.35-1.09,1.35-1.09,1.83.51a2.4,2.4,0,0,0,1.65,0A24.06,24.06,0,0,1,34.73,55Zm-4.59,3.76a2.35,2.35,0,0,1-2.54-3.88c1.31-1.36,3.13-1.61,4.81-2.17.41-.14.53.11.53.46v1.66C33,57,32.2,58.05,30.14,58.77Z"></path><polygon class="cls-1" points="48.23 60.21 48.23 60.21 48.22 60.22 48.23 60.21"></polygon><path class="cls-1" d="M48.22,50.22h0a3.56,3.56,0,0,0-1.61-3.58,3.67,3.67,0,0,0-4,.3l-.85.54c-.65.43-.91.16-.94-.52-1.37-.45-1.5-.37-1.5,1q0,6.15,0,12.3a2,2,0,0,0,1.35,0c.36-.36.2-.81.2-1.21a72.44,72.44,0,0,0,0-7.37c-.2-2.09.89-3,2.49-3.71,1.94-.94,3.44,0,3.4,2.18-.06,2.92,0,5.85,0,8.77,0,.45-.17.94.21,1.34a2,2,0,0,0,1.35,0v-10Z"></path><polygon class="cls-1" points="39.26 60.21 39.27 60.22 39.27 60.22 39.26 60.21 39.26 60.21"></polygon><path class="cls-1" d="M52.77,41.05V60.21a2.32,2.32,0,0,0,1.54,0q0-9.08,0-18.13C54.35,40.69,54.23,40.62,52.77,41.05Z"></path><polygon class="cls-1" points="52.77 60.22 52.77 60.22 52.77 60.22 52.77 60.22"></polygon><path class="cls-1" d="M52.77,60.21a2.08,2.08,0,0,1-.1-1V42.05a2,2,0,0,1,.1-1c-.31.26-.23.62-.23.94V59.28c0,.32-.11.69.23.93Z"></path><polygon class="cls-1" points="52.77 60.22 52.77 60.22 52.77 60.21 52.77 60.21 52.77 60.22"></polygon><polygon class="cls-1" points="52.77 60.21 52.77 60.22 52.77 60.22 52.77 60.21 52.77 60.21"></polygon><path class="cls-1" d="M52.67,42.05V59.22a2.08,2.08,0,0,0,.1,1h0V41.05A2,2,0,0,0,52.67,42.05Z"></path><path class="cls-1" d="M39.17,52.88c0-1.74,0-3.47,0-5.2,0-1.28.41-1.45,1.63-.72-.14-1-.86-.46-1.3-.47-.67,0-.46.59-.46,1,0,3.95,0,7.89,0,11.84,0,.32-.11.68.23.92h0C39,57.77,39.21,55.32,39.17,52.88Z"></path><polygon class="cls-1" points="39.27 60.22 39.27 60.22 39.27 60.22 39.27 60.22 39.27 60.22"></polygon><polygon class="cls-1" points="39.26 60.21 39.27 60.22 39.27 60.22 39.26 60.21"></polygon><path class="cls-1" d="M40.79,47c-1.22-.73-1.62-.56-1.63.72,0,1.73,0,3.46,0,5.2,0,2.44-.14,4.89.1,7.34h0q0-6.15,0-12.3C39.29,46.59,39.42,46.51,40.79,47Z"></path><polygon class="cls-1" points="48.22 60.22 48.22 60.22 48.22 60.22 48.22 60.22"></polygon><path class="cls-1" d="M48.46,50.9a.73.73,0,0,0-.24-.68,92.66,92.66,0,0,1,0,10h0c.26-.16.23-.42.23-.67Z"></path><polygon class="cls-1" points="48.22 60.22 48.23 60.21 48.22 60.22 48.22 60.22"></polygon><path class="cls-1" d="M48.22,50.22h0v10h0A92.66,92.66,0,0,0,48.22,50.22Z"></path><path class="cls-1" d="M29.61,47.7h1.77A3,3,0,0,0,29.61,47.7Z"></path><path class="cls-1" d="M29.61,47.7a3,3,0,0,1,1.77,0A1.6,1.6,0,0,0,29.61,47.7Z"></path><path class="cls-1" d="M64,47.72a1.09,1.09,0,0,0-1.52.05h0A1.83,1.83,0,0,1,64,47.72Z"></path><path class="cls-1" d="M62.48,47.77,64,47.72A1.83,1.83,0,0,0,62.48,47.77Z"></path><polygon class="cls-1" points="80.32 12.86 80.32 12.86 80.31 12.86 80.32 12.86"></polygon><path class="cls-1" d="M79.38,13.81v-.42A1.48,1.48,0,0,0,79.38,13.81Z"></path><path class="cls-1" d="M80.32,9.16V9.05h0S80.31,9.12,80.32,9.16Z"></path><path class="cls-1" d="M79.55,12.93l0,0,0,0Z"></path><path class="cls-1" d="M80.32,17.44c-.49-1.21-.17-2.54-.5-3.78-.07-.26,0-.56-.23-.76l0,0v1.66h-.17v-.78a1.48,1.48,0,0,1,0-.42V10.6c.34.16.1.49.17.74,1,.15.17,1.18.76,1.52h0V9.16s0-.08,0-.11H70.92q4.59,4.8,9.41,9.37h0c0-.32,0-.64,0-1Zm-5.6-7.57h4V10h-4Zm4.36,4.93-4.32-4.49h3.89c.42,0,.43.34.43.64Z"></path><path class="cls-1" d="M80.26,9s0,.06,0,.09h.3c-.06-.27-.27-.29-.48-.29H71.21c-.13,0-.49-.11-.29.28h0C74,8.79,77.15,9,80.26,9Z"></path><path class="cls-1" d="M80.26,9C77.15,9,74,8.79,70.92,9h9.36S80.27,9,80.26,9Z"></path><path class="cls-1" d="M80.58,9.05c-.09.12-.18.12-.26,0v.11a20.11,20.11,0,0,1,.12,3.47.41.41,0,0,1-.12.23h0v2.68c.06.6,0,1.22.06,1.82a1.46,1.46,0,0,1,0,1.05h0c.06,0,.16.08.18.05a.3.3,0,0,0,.1-.21C80.61,15.18,80.59,12.11,80.58,9.05Z"></path><path class="cls-1" d="M80.44,12.63a20.11,20.11,0,0,0-.12-3.47v3.7A.41.41,0,0,0,80.44,12.63Z"></path><path class="cls-1" d="M80.38,17.36c-.11-.6,0-1.22-.06-1.82v1.9h0c0,.33,0,.65,0,1A1.46,1.46,0,0,0,80.38,17.36Z"></path><path class="cls-1" d="M80.58,9.05h-.26C80.4,9.17,80.49,9.17,80.58,9.05Z"></path><path class="cls-1" d="M79.94,12.7c-.27-.34-.18-.81-.38-1.17a0,0,0,0,0,0,0v.13a1.87,1.87,0,0,1,0,.88v.35l0,0,.12-.09a1.81,1.81,0,0,1,.44.78,4.81,4.81,0,0,1,.17-.73h0C80.21,13,80.07,12.87,79.94,12.7Z"></path><path class="cls-1" d="M79.56,11.53c.2.36.11.83.38,1.17.13.17.27.25.37.16-.59-.34.2-1.37-.76-1.52v.16A0,0,0,0,1,79.56,11.53Z"></path><path class="cls-1" d="M79.55,11.63v.88A1.87,1.87,0,0,0,79.55,11.63Z"></path><path class="cls-1" d="M80.15,13.59a1.81,1.81,0,0,0-.44-.78l-.12.09c.23.2.16.5.23.76.33,1.24,0,2.57.5,3.78A22.57,22.57,0,0,1,80.15,13.59Z"></path><path class="cls-1" d="M80.3,15.38c0,.06,0,.11,0,.16V12.86a4.81,4.81,0,0,0-.17.73A17.75,17.75,0,0,1,80.3,15.38Z"></path><path class="cls-1" d="M80.15,13.59a22.57,22.57,0,0,0,.17,3.85h0v-1.9s0-.1,0-.16A17.75,17.75,0,0,0,80.15,13.59Z"></path><path class="cls-1" d="M79.48,11.3c0-.06,0,0,0,.1l0,.08s0,0,0-.06S79.49,11.34,79.48,11.3Z"></path><path class="cls-1" d="M79.48,14.14c.06,0,.1,0,0,0Z"></path><path class="cls-1" d="M79.51,12.73a5.49,5.49,0,0,0-.13.66v.42l0,.15a.31.31,0,0,0,0,.11v0c.1-.35-.18-.79.12-1.1v-.07Z"></path><path class="cls-1" d="M79.51,11.48l0-.08c0-.11,0-.16,0-.1s0,.08,0,.12l0-.08c-.07-.25.17-.58-.17-.74v2.79a5.49,5.49,0,0,1,.13-.66A2.05,2.05,0,0,1,79.51,11.48Z"></path><path class="cls-1" d="M79.43,14v0a.1.1,0,0,0,0,.07c.1,0,.06,0,0,0h0s0,0,0-.07a.31.31,0,0,1,0-.11l0-.15v.78h.17V12.93C79.25,13.24,79.53,13.68,79.43,14Z"></path><path class="cls-1" d="M79.48,14.14h0a.1.1,0,0,1,0-.07S79.45,14.15,79.48,14.14Z"></path><path class="cls-1" d="M79.51,11.48s0,.1,0,.15V11.5l0-.08S79.51,11.46,79.51,11.48Z"></path><path class="cls-1" d="M79.55,12.86v-.35a2.07,2.07,0,0,1,0,.22Z"></path><path class="cls-1" d="M79.51,12.73a2.07,2.07,0,0,0,0-.22v-.88c0-.05,0-.1,0-.15A2.05,2.05,0,0,0,79.51,12.73Z"></path><path class="cls-1" d="M79.55,11.5v-.16l0,.08Z"></path><path class="cls-1" d="M78.72,9.87h-4V10h4Z"></path></g></g></svg>