<svg xmlns="http://www.w3.org/2000/svg" viewBox="0 0 146.73 74"><defs><style>.cls-1{fill:#dff2f2;}</style></defs><g id="Layer_2"><g id="fidelity"><path class="cls-1" d="M25.84,47.57a2.64,2.64,0,0,1-.23-.28c-.3-.47-.58-.95-.87-1.43l-2-3.22c-.11-.18-.24-.35-.35-.54s-.11-.26,0-.32a.33.33,0,0,1,.3.06c.12.12.29.15.41.24a3.88,3.88,0,0,0,.79.46,2.81,2.81,0,0,0,.52.26c.09,0,.16.11.25.17a2,2,0,0,0,.25.14c.31.15.53.45.9.48a.63.63,0,0,0,.48.27.25.25,0,0,1,.17.08c.16.25.46.23.69.35.06,0,.17,0,.26-.06a1.34,1.34,0,0,0-.09-.26s-.1-.08-.16-.09a.47.47,0,0,1-.4-.3.35.35,0,0,0-.2-.16.54.54,0,0,1-.32-.29.5.5,0,0,0-.26-.24.55.55,0,0,1-.35-.26c0-.08-.1-.17-.18-.19a.53.53,0,0,1-.37-.34c0-.09-.15-.14-.24-.2s-.21-.07-.26-.14-.3-.26-.43-.39a3.42,3.42,0,0,0-.71-.61,2.6,2.6,0,0,1-.43-.38,3.75,3.75,0,0,0-.71-.61,5.2,5.2,0,0,1-.44-.38,3.15,3.15,0,0,0-.67-.59c-.17-.1-.29-.33-.51-.41-.06,0-.08-.12-.14-.21l.2,0,2.24.35,1.73.26,2.62.4,1.87.28a1.31,1.31,0,0,0,.22,0,1.25,1.25,0,0,0-.15-.19,2.49,2.49,0,0,0-1.15-.44,2.71,2.71,0,0,1-.69-.28,1.55,1.55,0,0,0-.36-.13,2,2,0,0,1-1-.36.89.89,0,0,0-.46-.14,1.69,1.69,0,0,1-.81-.29,1.07,1.07,0,0,0-.49-.17,1.66,1.66,0,0,1-.77-.27,1.29,1.29,0,0,0-.53-.18,2.08,2.08,0,0,1-.77-.27,2,2,0,0,0-.64-.22,1.07,1.07,0,0,1-.58-.22c.08,0,.12-.1.17-.11l1.23-.24a4.56,4.56,0,0,0,.81-.2,6.65,6.65,0,0,1,1.76-.42,2.11,2.11,0,0,0,.7-.17,6.43,6.43,0,0,1,1.84-.44,2.67,2.67,0,0,0,.62-.15l1.27-.38c.13,0,.28,0,.32-.28l-.41.06L27.82,34a1.23,1.23,0,0,1-.34,0,.43.43,0,0,0-.4,0,.51.51,0,0,1-.21.06l-2.46.15a4,4,0,0,1-.49,0c-.07,0-.17,0-.22,0a1.27,1.27,0,0,1-.66.12l-1.63.12H20.9l0-.09c.15-.1.3-.22.45-.31a4,4,0,0,0,.91-.73,5.54,5.54,0,0,1,1.14-.8,3.76,3.76,0,0,0,.72-.6,4,4,0,0,1,.92-.65,4,4,0,0,0,1-.78,6,6,0,0,1,1-.68c.25-.17.51-.33.74-.52.07-.05.12-.22.09-.25a.46.46,0,0,0-.28-.13.79.79,0,0,0-.28.1l-.78.39a.59.59,0,0,0-.23.14,1.6,1.6,0,0,1-.71.49,18.54,18.54,0,0,1-2.31,1.05,3,3,0,0,0-1.08.55,9.52,9.52,0,0,1-1.83,1,2.8,2.8,0,0,1-.38.13c0-.09-.05-.14,0-.16a4.09,4.09,0,0,0,.4-.67,2.71,2.71,0,0,1,.23-.41,3.84,3.84,0,0,0,.45-.79c.16-.34.41-.64.56-1a1,1,0,0,1,.14-.17c0-.05.13-.09.13-.14,0-.34.3-.53.37-.84a.29.29,0,0,1,.12-.18.52.52,0,0,0,.22-.38.26.26,0,0,1,0-.15c.16-.26.34-.51.5-.77a1,1,0,0,0,.1-.24c0-.07.05-.16.11-.19a.62.62,0,0,0,.29-.54c0-.07.08-.13.12-.19s.11-.17.16-.25a3.78,3.78,0,0,1,.22-.33c.11-.12.11-.22,0-.32-.22.15-.54.19-.59.55,0,0-.07.08-.11.1A.44.44,0,0,0,23,26a.5.5,0,0,1-.2.21,1.43,1.43,0,0,0-.26.3,3.22,3.22,0,0,0-.58.69c-.07.11-.23.18-.26.34a.4.4,0,0,1-.15.17.52.52,0,0,0-.31.35c0,.06-.1.1-.15.16l-.21.25-.24.28-.21.24c-.05.06-.08.15-.13.17a.46.46,0,0,0-.35.41s-.07.1-.11.14-.08,0-.1.06c-.2.25-.4.52-.61.77s-.48.35-.54.66c-.23.07-.28.3-.41.47.1-1.48.32-2.95.51-4.41s.36-2.93.52-4.46c-.28.08-.38.2-.4.4a3.78,3.78,0,0,1-.45,1.5,1,1,0,0,0-.07.29c0,.05,0,.11,0,.15-.25.46-.27,1-.5,1.48l0,.06-.3,1.1-.12.48s-.07.08-.08.13c-.06.24-.11.48-.17.72s-.31.38-.24.66a.31.31,0,0,1,0,.19c-.08.27-.16.55-.26.83,0,.08-.12.13-.18.2a1.21,1.21,0,0,1-.2-.19.37.37,0,0,1,0-.15,13.58,13.58,0,0,0-.51-2c-.1-.33-.11-.68-.19-1s-.21-.57-.29-.86-.08-.45-.12-.67a3.17,3.17,0,0,0-.15-.55,3.55,3.55,0,0,1-.31-1.2,3,3,0,0,0-.13-.59c-.12-.38-.25-.75-.38-1.11a.56.56,0,0,0-.12-.16c-.19.18-.12.4-.11.58,0,.7.09,1.39.15,2.08.06.87.14,1.74.2,2.61l.09,1.09c.05.71.1,1.41.14,2.12a1.73,1.73,0,0,1,0,.45,6.38,6.38,0,0,1-1-1.1c-.08-.17-.27-.29-.39-.45a4.07,4.07,0,0,1-.4-.59,2.08,2.08,0,0,0-.56-.69,1.88,1.88,0,0,1-.42-.58,2.29,2.29,0,0,0-.58-.73,1.78,1.78,0,0,1-.43-.61,2.34,2.34,0,0,0-.54-.67,2.57,2.57,0,0,1-.49-.71,1.1,1.1,0,0,0-.68-.62c0,.05-.06.09-.05.11q.13.47.3.93a.67.67,0,0,0,.2.32A2.35,2.35,0,0,1,10,27.29a1.42,1.42,0,0,0,.34.61,1.67,1.67,0,0,1,.45.82,2.15,2.15,0,0,0,.47.88,3.1,3.1,0,0,1,.46.95,1.84,1.84,0,0,0,.34.61,3.42,3.42,0,0,1,.47.86c.07.16,0,.25-.2.27a.53.53,0,0,1-.5-.21.53.53,0,0,0-.48-.25h0c-.32-.26-.74-.34-1-.62a.93.93,0,0,0-.38-.2.62.62,0,0,1-.45-.26s0,0,0,0c-.39-.1-.65-.46-1-.52s-.39-.26-.58-.39-.5,0-.65-.27a.55.55,0,0,0-.47-.27.29.29,0,0,1-.2-.09.68.68,0,0,0-.54-.3.72.72,0,0,1-.36-.25.54.54,0,0,0-.5-.19c-.08,0-.18.09-.19.15s.06.19.11.2a.49.49,0,0,1,.36.31s.05.05.08.07a2.1,2.1,0,0,1,.86.67c.34,0,.42.41.69.55s.55.45.86.63.31.37.51.48.47.43.76.58.35.35.52.53.06.09.1.11a6.6,6.6,0,0,1,.91.66c.28.2.46.5.76.65l.38.23a.81.81,0,0,1-.57,0l-1.92-.2c-.6-.07-1.2-.15-1.81-.21s-1.2-.11-1.81-.18L3.94,33.5c-.32,0-.65-.06-1-.09,0,.18.09.22.2.26.27.09.54.19.82.27l1.6.44,1.7.53.69.2c.15,0,.3.12.45.18a.58.58,0,0,0,.21.07,2.3,2.3,0,0,1,1.11.32.51.51,0,0,0,.21.06,7.86,7.86,0,0,1,.84.19c.13,0,.23.17.39.3-.15.07-.23.12-.32.15-.83.25-1.66.51-2.5.73a2.46,2.46,0,0,1-1,.2.37.37,0,0,0-.14,0,2.32,2.32,0,0,1-1.18.35l-.11,0a8.1,8.1,0,0,1-1.82.6l-.83.25a2.58,2.58,0,0,0-.34.19c.12,0,.19.1.25.09l1.92-.2L7,38.45c.67-.07,1.33-.17,2-.24L10.92,38l.3,0,.54,0c-.08.11-.1.18-.15.2a1.49,1.49,0,0,0-.41.3c-.21.17-.48.27-.61.55a.5.5,0,0,0-.46.39.15.15,0,0,1-.11.08.43.43,0,0,0-.4.35.21.21,0,0,1-.11.1c-.19,0-.27.16-.36.3s-.15.12-.23.18-.17.08-.21.15a.44.44,0,0,1-.35.25c-.22,0-.19.29-.33.38s-.36.06-.42.28a.29.29,0,0,1-.3.24s-.09,0-.1,0c-.11.29-.43.38-.61.62,0,.07-.1.17-.17.19a.59.59,0,0,0-.4.32.17.17,0,0,1-.11.09.44.44,0,0,0-.41.34.31.31,0,0,1-.17.12c-.32.13-.32.13-.33.49,0,0,0,0,.07,0l1.1-.39a.53.53,0,0,0,.28-.18,1.76,1.76,0,0,1,1-.54.94.94,0,0,0,.46-.25,1.76,1.76,0,0,1,.92-.49,1.35,1.35,0,0,0,.59-.31,1.58,1.58,0,0,1,.74-.42,1.64,1.64,0,0,0,1.1-.86c.22-.31.42-.66.62-1a3,3,0,0,0,.21-.4.48.48,0,0,1,.53-.34,8.42,8.42,0,0,0,.87,0l.21,0a1.45,1.45,0,0,0-.86-.77c.33-.57.63-1.11,1-1.65.12-.2.29-.38.42-.58l.92-1.56c0-.07.12-.11.19-.18a.61.61,0,0,1,0,.77,3.33,3.33,0,0,0-.26.81A13.86,13.86,0,0,1,14.64,37a2.06,2.06,0,0,0-.17.6,1.42,1.42,0,0,1-.2.61,1.13,1.13,0,0,0-.15.87l.43,0H19a.86.86,0,0,1,.64.23,7.27,7.27,0,0,0,.92.6l-.37,0H14a.37.37,0,0,0-.39.29c-.07.22-.09.45-.16.66a9.13,9.13,0,0,1-.41,1.25,4.46,4.46,0,0,0-.36,1.14,4.85,4.85,0,0,1-.4,1.22,3.84,3.84,0,0,0-.28.89,6.1,6.1,0,0,1-.41,1.25,4.22,4.22,0,0,0-.35,1.11,6.91,6.91,0,0,1-.35,1.15c-.07.19-.18.36-.26.55a.28.28,0,0,1-.29.18,2.28,2.28,0,0,1-1.21-.49c-.26-.16-.52-.3-.77-.47s-.74-.51-1.09-.81a3.45,3.45,0,0,0-.68-.51A.8.8,0,0,1,6.31,47a2.15,2.15,0,0,0-.93-.91A.42.42,0,0,1,5.17,46a15.2,15.2,0,0,0-1-1.25c-.13-.2-.22-.43-.35-.63-.27-.44-.56-.87-.82-1.31a1.61,1.61,0,0,1-.12-.39,1.41,1.41,0,0,0-.06-.22,5.57,5.57,0,0,1-.74-1.8c-.13-.56-.29-1.12-.4-1.69a13,13,0,0,1-.19-3.29c.05-.71.18-1.42.29-2.13.06-.39.16-.76.25-1.14a.53.53,0,0,1,.08-.17,2.34,2.34,0,0,0,.32-.88A6.71,6.71,0,0,1,2.85,30a4.74,4.74,0,0,1,.39-.6.67.67,0,0,0,.07-.18,2.08,2.08,0,0,1,.54-1c.33-.41.67-.82,1-1.25.12-.16.17-.35.4-.41a.3.3,0,0,0,.11-.15,2,2,0,0,1,1.08-1.08s.12-.05.12-.08c.09-.36.48-.38.68-.62a1.75,1.75,0,0,1,.24-.23,2.51,2.51,0,0,1,.32-.25c.27-.19.55-.36.82-.54,0,0,.07-.09.11-.1.47-.12.76-.53,1.2-.68s.87-.39,1.33-.51.64-.23.95-.33a18.3,18.3,0,0,1,2-.43,3.21,3.21,0,0,1,.53-.07c.47,0,.94,0,1.41-.06a10,10,0,0,1,1.8.12,14.93,14.93,0,0,1,1.76.26,15.59,15.59,0,0,1,1.87.59c.53.2,1.05.44,1.56.69a6,6,0,0,1,.52.36c.38.23.78.42,1.14.67s.62.51.93.77c.05,0,.1.13.16.14.27.05.33.27.46.45a4.29,4.29,0,0,0,.84.81,1.16,1.16,0,0,1,.4.42,4.12,4.12,0,0,0,.47.58,3.24,3.24,0,0,1,.27.35c.13.2.23.42.37.61a4,4,0,0,1,.4.63c.11.23.28.46.42.69a12.72,12.72,0,0,1,.81,1.91,11.63,11.63,0,0,1,.61,2.37,13.17,13.17,0,0,1,.07,4.34c-.09.51-.15,1-.26,1.53a4.75,4.75,0,0,1-.23.63,1.11,1.11,0,0,0-.07.29,3.12,3.12,0,0,1-.09.44,8,8,0,0,1-.3.82,2.29,2.29,0,0,1-.18.29c0,.07-.12.14-.13.22a1.67,1.67,0,0,1-.49,1l-.05.06c-.36.76-1,1.34-1.39,2-.16.27-.42.43-.55.73a2.57,2.57,0,0,1-.62.66c-.08.08-.17.19-.27.21S25.94,47.27,25.84,47.57Z"></path><path class="cls-1" d="M124.36,52.35l1.11-4c.46,0,.9,0,1.34,0a5.7,5.7,0,0,0,.83-.09,1.41,1.41,0,0,0,1-.8,2.24,2.24,0,0,0,.28-1.27c-.13-1.29-.24-2.57-.36-3.86l-.33-3.67c-.1-1.16-.21-2.32-.31-3.48,0-.07,0-.14-.06-.23h-3.75c0,.13-.09.26-.13.39-.51,1.83-1,3.65-1.53,5.48a5.7,5.7,0,0,0-.17,1.16c0,.53.17.76.71.85a5.22,5.22,0,0,0,.79,0H125c-.3,1.24-.67,2.42-1,3.64h-.39c-2,0-3.9,0-5.85,0a5.76,5.76,0,0,1-1.24-.15,2.06,2.06,0,0,1-1.63-2,7,7,0,0,1,.27-2.44q1.89-6.72,3.77-13.44c0-.06,0-.12.08-.19h7l-.9,3.27c1.64,0,3.23,0,4.82,0s3.16,0,4.79,0c0,2.72-.1,5.4-.07,8.09l.08,0,.19-.39c1.13-2.44,2.27-4.89,3.38-7.34a.56.56,0,0,1,.6-.39h6.27l.46,0c-.08.14-.13.24-.19.33l-10.12,16a17.91,17.91,0,0,1-2.07,2.76,5.34,5.34,0,0,1-4,1.73h-4.56Z"></path><path class="cls-1" d="M74,26.06h7q-2.87,10.23-5.7,20.41H68.47L68.89,45l0-.05-.31.23a7.3,7.3,0,0,1-3,1.52,6.41,6.41,0,0,1-3.34,0,2.84,2.84,0,0,1-2.1-2.53,9.13,9.13,0,0,1,.12-2.61,22,22,0,0,1,1.92-6.33,8.27,8.27,0,0,1,1.13-1.84,5.75,5.75,0,0,1,3.56-1.94,6.33,6.33,0,0,1,3.14.26A3.74,3.74,0,0,1,71.9,33a1.11,1.11,0,0,0,.16.17ZM67.43,40.59v.2a1,1,0,0,0,1.11,1.08,4.24,4.24,0,0,0,.85-.16.63.63,0,0,0,.46-.49c.4-1.44.82-2.87,1.24-4.3.1-.36.07-.42-.24-.66a1.6,1.6,0,0,0-2.35.61c-.19.4-.35.82-.5,1.23A8.27,8.27,0,0,0,67.43,40.59Z"></path><path class="cls-1" d="M33.4,46.47l5.7-20.41H53.69c-.44,1.61-.91,3.19-1.37,4.81H44.85l-1,3.51h7.45c-.39,1.52-.82,3-1.23,4.44H42.64l-2.13,7.65Z"></path><path class="cls-1" d="M95.24,40H85.55a6,6,0,0,0-.4,2.2A.89.89,0,0,0,86,43a1.47,1.47,0,0,0,1.68-.94c.13-.27.22-.56.33-.86H94.9c0,.14-.05.27-.08.39a6,6,0,0,1-2.08,3.06,10,10,0,0,1-4,1.87,12.19,12.19,0,0,1-3,.33,16.16,16.16,0,0,1-3.92-.4,6,6,0,0,1-.9-.31,3.67,3.67,0,0,1-2.32-3.28,10.5,10.5,0,0,1,.28-3.06,18.59,18.59,0,0,1,1.43-4,7.8,7.8,0,0,1,5.1-4.12,12.11,12.11,0,0,1,3.33-.46,17.06,17.06,0,0,1,3.71.31,6.32,6.32,0,0,1,1.67.61A3.61,3.61,0,0,1,96,34.83a6.94,6.94,0,0,1-.09,2.49c-.15.81-.35,1.61-.53,2.41C95.31,39.79,95.28,39.85,95.24,40Zm-6-2.89a2.58,2.58,0,0,0,.18-1.34.74.74,0,0,0-.47-.64,1.54,1.54,0,0,0-1.65.16,3.06,3.06,0,0,0-1,1.82Z"></path><path class="cls-1" d="M101,26.06h7l-5.7,20.4h-7Q98.19,36.24,101,26.06Z"></path><path class="cls-1" d="M111.69,46.47h-6.93l0,0a0,0,0,0,1,0,0c0-.15.05-.3.09-.45l4-14.37h7C114.46,36.57,113.07,41.51,111.69,46.47Z"></path><path class="cls-1" d="M54.18,31.58h7c-1.39,5-2.77,9.94-4.16,14.89H50.1l0,0a.08.08,0,0,1,0,0,.22.22,0,0,1,0-.08q2-7.24,4.06-14.51Z"></path><path class="cls-1" d="M110.36,26.06h7l-1.13,4h-7C109.6,28.72,110,27.4,110.36,26.06Z"></path><path class="cls-1" d="M55.7,26.06h7l-1.11,4c-.31.1-6.62.11-7,0Z"></path><path class="cls-1" d="M87.62,52.46H86l.77-2.59-.06,0-.24.31c-.5.7-1,1.39-1.5,2.1a.47.47,0,0,1-.46.24H83.16l-.23-2.59h-.09c-.31.84-.51,1.72-.81,2.58H80.59l1.08-3.59h2.61c.15.75.06,1.54.2,2.39l.28-.4c.38-.58.76-1.16,1.13-1.75a.51.51,0,0,1,.48-.28c.65,0,1.29,0,1.94,0l.4,0C88.34,50.06,88,51.25,87.62,52.46Z"></path><path class="cls-1" d="M100,48.85h2.55l.63,2.31h.09c.28-.76.46-1.55.73-2.32h1.47c-.35,1.22-.72,2.4-1.09,3.6h-2.47L101.2,50a4.6,4.6,0,0,0-.47,1.21c-.14.42-.26.84-.4,1.27H98.86C99.2,51.24,99.58,50.06,100,48.85Z"></path><path class="cls-1" d="M39.78,52.45H38.3l1.07-3.59h2.57l.63,2.33h.08l.73-2.34h1.48l-1.11,3.6H41.32l-.7-2.5h-.08Z"></path><path class="cls-1" d="M69.76,49.81H68.34A1.09,1.09,0,0,0,67,49.53a.45.45,0,0,0-.21.28c0,.16.12.21.24.24l1,.25a7.29,7.29,0,0,1,.94.28.64.64,0,0,1,.38,1,1.15,1.15,0,0,1-.62.64,6.63,6.63,0,0,1-1.15.35,7.51,7.51,0,0,1-2.27,0,2.16,2.16,0,0,1-.44-.1c-.48-.16-.6-.38-.46-.93H66c0,.4.35.46.68.44a2.53,2.53,0,0,0,.67-.1.33.33,0,0,0,.26-.34c0-.18-.16-.21-.29-.24L66,51a4.64,4.64,0,0,1-.72-.23.54.54,0,0,1-.36-.7,1.13,1.13,0,0,1,.56-.78,2.57,2.57,0,0,1,1.1-.37,7.32,7.32,0,0,1,2.24,0,2.42,2.42,0,0,1,.51.14C69.73,49.16,69.82,49.34,69.76,49.81Z"></path><path class="cls-1" d="M116.83,51.47c0,.35.18.45.43.46a4.21,4.21,0,0,0,.79-.06.52.52,0,0,0,.28-.17.22.22,0,0,0-.09-.39,5.45,5.45,0,0,0-.69-.2c-.41-.1-.84-.19-1.25-.32-.64-.21-.77-.69-.36-1.24a1.53,1.53,0,0,1,.85-.54A6.6,6.6,0,0,1,118,48.8a14.79,14.79,0,0,1,1.63.05,2.27,2.27,0,0,1,.51.14c.38.16.47.35.4.81H119.1a.46.46,0,0,0-.41-.35,1.42,1.42,0,0,0-.93.11.37.37,0,0,0-.13.28c0,.07.12.16.2.18.35.1.71.18,1.07.27a7.84,7.84,0,0,1,.94.29.63.63,0,0,1,.39.92,1.27,1.27,0,0,1-.57.64,3,3,0,0,1-1.11.37,7.57,7.57,0,0,1-2.6,0,1.21,1.21,0,0,1-.46-.17.65.65,0,0,1-.27-.34c-.11-.34,0-.49.37-.5Z"></path><path class="cls-1" d="M49,52.47l-.72-3.61h1.89l.34,2.24a2.68,2.68,0,0,0,.24-.24c.45-.59.91-1.18,1.35-1.78a.55.55,0,0,1,.51-.25c.44,0,.88,0,1.38,0a2,2,0,0,1-.17.28l-2.52,3.14a.4.4,0,0,1-.33.22Z"></path><path class="cls-1" d="M58.47,51l-.22.74h2.29l-.19.71h-4l1.09-3.6h4l-.18.68h-2c-.21,0-.33.07-.37.28s-.08.29-.12.46a4.21,4.21,0,0,0,1.06,0h1.07l-.22.68Z"></path><path class="cls-1" d="M92.33,48.85h4l-.19.69H94c-.18,0-.29.06-.32.24s-.09.32-.16.52c.71.08,1.39,0,2.12.06L95.5,51H93.36l-.24.75c.79,0,1.52,0,2.32,0l-.23.69h-4Z"></path><path class="cls-1" d="M73.3,49.65l.24-.79H78l-.24.83h-1c-.34,0-.34,0-.44.33l-.63,2.06c0,.12-.08.24-.13.37H73.84c.22-.91.54-1.78.78-2.7C74.18,49.61,73.75,49.75,73.3,49.65Z"></path><path class="cls-1" d="M113,48.86l-.25.82h-.92c-.48,0-.43-.06-.57.41l-.6,2-.13.36h-1.69c.23-.92.55-1.79.79-2.71-.44-.13-.87,0-1.32-.1l.23-.78Z"></path><path class="cls-1" d="M33.24,48.85H35l-1.1,3.61H32.15C32.5,51.24,32.87,50.06,33.24,48.85Z"></path><path class="cls-1" d="M140.23,43.52a1.9,1.9,0,1,1-1.9,1.89A1.89,1.89,0,0,1,140.23,43.52Zm1.6,1.89a1.59,1.59,0,1,0-3.18,0,1.59,1.59,0,1,0,3.18,0Z"></path><path class="cls-1" d="M15.55,33.76l.11-.28.06,0-.07.28Z"></path><path class="cls-1" d="M140.55,45.61l.42.71c-.27.08-.27.09-.38-.07s-.21-.34-.31-.51a.24.24,0,0,0-.37-.11l0,.74h-.27V44.45c.3,0,.59,0,.87,0a.49.49,0,0,1,.49.4.56.56,0,0,1-.27.65Zm-.63-.34.21,0h.19c.22,0,.33-.12.34-.27s-.13-.28-.36-.3h-.38Z"></path></g></g></svg>