<svg xmlns="http://www.w3.org/2000/svg" viewBox="0 0 82.65 74"><defs><style>.cls-1{fill:#dff2f2;}</style></defs><g id="Layer_2"><g id="citi"><path class="cls-1" d="M29.15,35.29l-3.7,4.47c-.32-.29-.62-.58-.94-.86a11.07,11.07,0,0,0-5.25-2.73A9.77,9.77,0,0,0,7.74,43.4a11.11,11.11,0,0,0,1.2,8.84,9.3,9.3,0,0,0,6.75,4.45c3.64.6,6.65-.71,9.26-3.16l.42-.41.09,0,3.7,4.48-.59.67a14.34,14.34,0,0,1-7.69,4.58,17.49,17.49,0,0,1-5.59.18,17,17,0,0,1-5.95-1.74A15,15,0,0,1,1.2,50.85,18.59,18.59,0,0,1,2,39.55a15,15,0,0,1,9.58-8.88,17.19,17.19,0,0,1,10.21-.43,14.19,14.19,0,0,1,6.81,4.34c.18.19.35.39.52.59Z"></path><path class="cls-1" d="M57.55,20.22v10h6.74V36.3H57.94c-.31,0-.4.09-.4.4,0,5.55,0,11.1,0,16.66a7.33,7.33,0,0,0,.25,1.92,2.43,2.43,0,0,0,2.29,1.84,8,8,0,0,0,4.38-1c.47-.23.92-.5,1.44-.78-.07.29-.12.53-.18.78-.44,1.69-.86,3.38-1.31,5.06a.81.81,0,0,1-.35.46,10,10,0,0,1-7.17,1.17,6.87,6.87,0,0,1-5.44-5.45,11.78,11.78,0,0,1-.36-2.91c0-5.89,0-11.78,0-17.68V36.3H45.51V30.24H51.1V24a.38.38,0,0,1,.2-.42c2-1.06,4-2.14,6-3.21Z"></path><path class="cls-1" d="M28.64,24.82C34.79,16.47,43,11.62,53.4,10.94a32.17,32.17,0,0,1,28.4,14l-.3,0h-7a.76.76,0,0,1-.49-.22,26.84,26.84,0,0,0-12.56-7.27,25.28,25.28,0,0,0-9.21-.6,26.21,26.21,0,0,0-15.7,7.72,1.18,1.18,0,0,1-.92.39c-2.32,0-4.64,0-7,0Z"></path><path class="cls-1" d="M33,62.51V30.24l.37,0c1.93,0,3.86,0,5.8,0,.33,0,.42.1.42.43q0,15.72,0,31.45c0,.35-.11.43-.45.43-1.92,0-3.84,0-5.76,0Z"></path><path class="cls-1" d="M77.66,30.24V62.48H71.12c0-.12,0-.25,0-.38V30.62c0-.31.08-.41.4-.41,1.94,0,3.88,0,5.82,0Z"></path></g></g></svg>