<svg xmlns="http://www.w3.org/2000/svg" viewBox="0 0 130.83 74"><defs><style>.cls-1{fill:#dff2f2;}</style></defs><g id="Layer_2"><g id="quickbooks"><path class="cls-1" d="M11.52,46.51a10.95,10.95,0,1,1,10.9-11A10.88,10.88,0,0,1,11.52,46.51Zm-.68-3.69a1.2,1.2,0,0,0,.07-.27c0-3.62,0-7.24,0-10.86,0-.37-.18-.46-.51-.45-.95,0-1.9,0-2.84,0a4.35,4.35,0,0,0-4,5.43A4.29,4.29,0,0,0,8.4,39.83a5.13,5.13,0,0,0-.05-1.47c0-.16-.68-.13-1-.19a2.64,2.64,0,0,1-2.17-2.53,2.58,2.58,0,0,1,2-2.59A18.81,18.81,0,0,1,9.2,32.9v.78c0,2.46,0,4.92,0,7.38A1.59,1.59,0,0,0,10.84,42.82Zm1.22-14.46c0,.2,0,.36,0,.53V39.31c0,.28-.08.62.39.62a33.62,33.62,0,0,0,3.48-.1,4.28,4.28,0,0,0,3.56-4.76,4.39,4.39,0,0,0-4.52-3.83c-.14,0-.38.07-.39.12a6.29,6.29,0,0,0,0,1.37c0,.1.45.19.69.21a2.64,2.64,0,0,1,2.54,2.3,2.5,2.5,0,0,1-1.8,2.82,13,13,0,0,1-2.22.19v-.83c0-2.44,0-4.88,0-7.32A1.6,1.6,0,0,0,12.06,28.36Z"></path><path class="cls-1" d="M76.23,43.48l0,1.23H73.74V30.13H76.3V36.2c.12,0,.18,0,.2,0,2.41-2.39,6.77-1,7.4,2.89A4.93,4.93,0,0,1,79.61,45,3.79,3.79,0,0,1,76.23,43.48Zm0-3.45a2.54,2.54,0,1,0,2.49-2.81A2.68,2.68,0,0,0,76.24,40Z"></path><path class="cls-1" d="M35.71,35.33V49.38H33.14V43.76c-.12,0-.19,0-.22,0-2.28,2.31-6.63,1.34-7.4-2.69a4.92,4.92,0,0,1,3.69-6,4,4,0,0,1,4,1.38V35.33ZM28.14,40a2.54,2.54,0,1,0,5,0,2.68,2.68,0,0,0-2.55-2.82A2.59,2.59,0,0,0,28.14,40Z"></path><path class="cls-1" d="M111.28,40.07v4.64H108.7V30.13h2.56v9.08c.21-.2.33-.3.43-.41.89-1,1.77-2.09,2.69-3.1a1.34,1.34,0,0,1,.84-.39c.9-.05,1.81,0,2.88,0l-3.88,4.29,4.07,5.18c-1.16,0-2.19,0-3.21,0a.9.9,0,0,1-.52-.38c-.94-1.22-1.85-2.45-2.78-3.68C111.66,40.52,111.53,40.37,111.28,40.07Z"></path><path class="cls-1" d="M68.83,39.58l2,2.57,2.06,2.61c-1.17,0-2.19,0-3.22,0-.18,0-.39-.21-.52-.37-1.06-1.39-2.1-2.78-3.26-4.32v4.67h-2.6V30.12h2.56v9l.14,0,1.62-1.88c.57-.65,1-1.54,1.74-1.87a6.78,6.78,0,0,1,2.56-.1h.78Z"></path><path class="cls-1" d="M101.83,45a5,5,0,1,1,0-10A4.9,4.9,0,0,1,107,40,5,5,0,0,1,101.83,45Zm0-2.26A2.53,2.53,0,0,0,104.3,40a2.5,2.5,0,1,0-5,0A2.53,2.53,0,0,0,101.8,42.78Z"></path><path class="cls-1" d="M90.34,45a4.93,4.93,0,0,1-5.17-5,5.15,5.15,0,0,1,10.29-.07A5,5,0,0,1,90.34,45Zm-2.5-4.94a3.78,3.78,0,0,0,.06.58,2.4,2.4,0,0,0,1.76,2A2.3,2.3,0,0,0,92.12,42a3.14,3.14,0,0,0,0-3.86,2.62,2.62,0,0,0-1.23-.79C89.22,36.87,87.84,38.1,87.84,40.1Z"></path><path class="cls-1" d="M44.3,35.31h2.52v9.41H44.38l-.06-1.37c-.24.27-.38.45-.54.6a3.25,3.25,0,0,1-3.59.87A3.11,3.11,0,0,1,38,42c-.12-1.08-.08-2.18-.1-3.27s0-2.26,0-3.44h2.63v.75c0,1.38,0,2.77,0,4.16a8.39,8.39,0,0,0,.06,1,1.55,1.55,0,0,0,1.15,1.5,1.82,1.82,0,0,0,2-.84,3.79,3.79,0,0,0,.43-1.61c.06-1.6,0-3.19,0-4.79A.71.71,0,0,1,44.3,35.31Z"></path><path class="cls-1" d="M126.13,36.37l-1.38,1.55a3,3,0,0,0-2.59-.88,1.72,1.72,0,0,0-.58.23.66.66,0,0,0,.07,1.21,14,14,0,0,0,1.43.46,13.09,13.09,0,0,1,1.66.6,2.74,2.74,0,0,1,.52,4.55c-1.72,1.5-5.46,1.19-6.94-.61l1.5-1.42a12.12,12.12,0,0,0,1.82.85,2.28,2.28,0,0,0,1.34-.09,1.06,1.06,0,0,0,.55-.8,1,1,0,0,0-.53-.74,8.55,8.55,0,0,0-1.43-.47,12,12,0,0,1-1.2-.38,2.6,2.6,0,0,1-.74-4.4A5.09,5.09,0,0,1,126.13,36.37Z"></path><path class="cls-1" d="M60.37,42.05l1.54,1.64c-1.11,1.65-4.86,1.79-6.82.26a5.21,5.21,0,0,1-.58-7.29,5.28,5.28,0,0,1,7.32-.33L60.17,38c-1.28-.91-2.52-.92-3.38,0a3.24,3.24,0,0,0,0,4.07C57.6,43,58.86,43,60.37,42.05Z"></path><path class="cls-1" d="M51.58,44.73H49V35.34h2.54Z"></path><path class="cls-1" d="M42.26,27.75h1.16v4.73H42.36l-.07-.5a.49.49,0,0,0-.16.06A1.76,1.76,0,0,1,39,30.8c0-1,0-2,0-3.05h1.21v2a8.36,8.36,0,0,0,0,1,.82.82,0,0,0,.7.85.94.94,0,0,0,1.09-.57,3.75,3.75,0,0,0,.18-1.16C42.28,29.2,42.26,28.49,42.26,27.75Z"></path><path class="cls-1" d="M29.27,27.74h1.06l.09.6a1.78,1.78,0,0,1,2.19-.62,1.83,1.83,0,0,1,1.06,1.91c0,.94,0,1.88,0,2.86H32.45V30.34a7.48,7.48,0,0,0,0-.82c-.06-.47-.22-.87-.78-.93a1,1,0,0,0-1.1.74,4.59,4.59,0,0,0-.12,1.18c0,.65,0,1.29,0,2H29.27Z"></path><path class="cls-1" d="M36.85,32.5H35.63V28.78H34.3v-1h3.83v1l-1.28.07Z"></path><path class="cls-1" d="M49.3,28.77v3.72H48.14V28.81H46.79V27.74h3.83v1Z"></path><path class="cls-1" d="M26.8,27.74H28v4.75H26.8Z"></path><path class="cls-1" d="M44.75,27.75h1.13v4.72H44.75Z"></path><path class="cls-1" d="M37.06,26.52c-.28.19-.55.49-.85.53s-.71-.27-.7-.71a.63.63,0,0,1,.74-.68c.3.06.55.37.82.57Z"></path><path class="cls-1" d="M49.53,26.51c-.27.19-.53.5-.83.54s-.7-.24-.7-.69.29-.76.71-.7.55.35.82.54Z"></path><path class="cls-1" d="M129.65,43.68a1.13,1.13,0,0,1-1.09,1.09,1.09,1.09,0,1,1,0-2.17A1.13,1.13,0,0,1,129.65,43.68Zm-.21,0a.91.91,0,0,0-.87-.91.92.92,0,0,0-.93.91.93.93,0,0,0,.87.91A.92.92,0,0,0,129.44,43.69Z"></path><path class="cls-1" d="M128.17,43.11c.76,0,.75,0,.64.67,0,.14.1.29.08.5l-.46-.44-.16.41-.1,0Z"></path></g></g></svg>