<svg xmlns="http://www.w3.org/2000/svg" viewBox="0 0 130.83 74"><defs><style>.cls-1{fill:#dff2f2;}</style></defs><g id="Layer_2"><g id="bamboohr"><path class="cls-1" d="M12.19,27.06V27h2.13V35a.06.06,0,0,1,0,0s0,0,0,0c-.24-.12-.19-.35-.19-.54,0-1.11,0-2.22,0-3.32s0-2.31,0-3.46c0-.57,0-.58-.6-.61S12.6,27.31,12.19,27.06Z"></path><path class="cls-1" d="M9.7,33.52A23.86,23.86,0,0,0,6,27.43c-.07-.09-.18-.16-.18-.29a7.28,7.28,0,0,1,2.47,1.75,8.06,8.06,0,0,1,1.82,3.3c.37,1.21.75,2.41,1.14,3.65-2.44-.26-4.7-.73-6.3-2.73a28.52,28.52,0,0,0-3.82-3.95s-.41-.14,0-.27a13.91,13.91,0,0,1,7.14,3.32c.48.45.94.94,1.41,1.41C9.71,33.66,9.74,33.62,9.7,33.52Z"></path><path class="cls-1" d="M9.7,33.52c.08.06.16.18.09.23s-.14,0-.19-.13Z"></path><path class="cls-1" d="M61.41,36.49A4.75,4.75,0,0,0,54,34.27a5.21,5.21,0,0,0-1.36,1.58,4.61,4.61,0,0,0-7.91-.59c0-.47,0-.84,0-1.2s0-.38-.34-.36q-.74,0-1.47,0c-.25,0-.32.06-.32.32q0,6,0,12.06c0,.26.09.32.33.31.45,0,.89,0,1.34,0s.47-.08.47-.45c0-2.26,0-4.52,0-6.79a4.44,4.44,0,0,1,.73-2.6,3.06,3.06,0,0,1,3.14-1.32,2.78,2.78,0,0,1,2.28,2,5.42,5.42,0,0,1,.28,1.92c0,2.29,0,4.58,0,6.87,0,.28.06.39.36.37a9.24,9.24,0,0,1,1.29,0c.4,0,.49-.1.49-.49q0-3.49,0-7a4,4,0,0,1,.8-2.44,3.13,3.13,0,0,1,3.2-1.21,2.73,2.73,0,0,1,2.24,2.24,5.29,5.29,0,0,1,.17,1.31c0,2.38,0,4.76,0,7.14,0,.38.1.48.47.45a10.26,10.26,0,0,1,1.24,0c.32,0,.43-.06.43-.4,0-2.29,0-4.59,0-6.88A8.7,8.7,0,0,0,61.41,36.49Z"></path><path class="cls-1" d="M17.37,33.33A6.36,6.36,0,0,0,14.32,35s0,0,0,0l0,0c0-.13,0-.26,0-.39,0-2.36,0-4.72,0-7.08,0-.44-.13-.56-.55-.53s-1,0-1.51,0a.51.51,0,0,0,0,.13q0,6.73,0,13.47a5.91,5.91,0,0,0,.6,2.61A6.79,6.79,0,0,0,20.09,47a7,7,0,1,0-2.72-13.62ZM23.74,41a4.58,4.58,0,0,1-3.92,4,4.94,4.94,0,1,1,1.37-9.34A5.08,5.08,0,0,1,23.74,41Z"></path><path class="cls-1" d="M74.13,34.46a6.76,6.76,0,0,0-8.19.1c-.18.15-.34.31-.59.53v-.33q0-3.06,0-6.12c0-.3-.07-.42-.39-.4a11.1,11.1,0,0,1-1.29,0c-.39,0-.46.11-.46.47,0,3.91,0,7.83,0,11.74a7.2,7.2,0,0,0,.13,1.32,6.65,6.65,0,0,0,8.21,5.09,6.51,6.51,0,0,0,5.3-5.44A6.58,6.58,0,0,0,74.13,34.46ZM70,45.09a5,5,0,1,1,4.85-4.87A4.64,4.64,0,0,1,70,45.09Z"></path><path class="cls-1" d="M40.7,34c0-.24-.07-.31-.31-.3-.5,0-1,0-1.51,0-.26,0-.32.09-.32.33,0,.46,0,.91,0,1.45a2.09,2.09,0,0,1-.17-.15c-2.52-3-6.69-2.32-8.8-.4A7.18,7.18,0,0,0,28,42.84a6.35,6.35,0,0,0,9.79,2.66c.27-.21.51-.46.82-.75,0,.49,0,.9,0,1.31,0,.25.06.34.32.33a12.71,12.71,0,0,1,1.38,0c.35,0,.44-.08.44-.43q0-5.16,0-10.32C40.69,35.09,40.68,34.54,40.7,34ZM35.14,44.87a4.46,4.46,0,0,1-5.4-3.63A5.38,5.38,0,0,1,30.55,37a4.51,4.51,0,0,1,7.9,1.23,5.14,5.14,0,0,1-3.31,6.67Z"></path><path class="cls-1" d="M84.88,33.27a6.79,6.79,0,1,0,6.75,6.87A6.64,6.64,0,0,0,84.88,33.27ZM88.15,43.5a4.22,4.22,0,0,1-4.34,1.27,4.51,4.51,0,0,1-3.28-3.18A5.25,5.25,0,0,1,80.3,40a4.65,4.65,0,0,1,2.94-4.49,4.56,4.56,0,0,1,6.18,4A5,5,0,0,1,88.15,43.5Z"></path><path class="cls-1" d="M99.71,33.27a6.79,6.79,0,1,0,6.74,6.78A6.64,6.64,0,0,0,99.71,33.27Zm4,9.2a4.39,4.39,0,0,1-4,2.45A4.64,4.64,0,0,1,95.21,41a4.93,4.93,0,0,1,1.45-4.66,4.34,4.34,0,0,1,4.69-.84,4.4,4.4,0,0,1,2.86,3.71A5.25,5.25,0,0,1,103.7,42.47Z"></path><path class="cls-1" d="M125.23,41l.31-.11a2.5,2.5,0,0,0,.25-.09,3.44,3.44,0,0,0,2.29-3,3.59,3.59,0,0,0-3.57-4c-1.28-.09-2.56,0-3.83-.06-.4,0-.52.09-.52.51,0,3.65,0,7.3,0,10.95,0,.38-.16.88.07,1.11s.76,0,1.15.09.36-.1.36-.38c0-1.49,0-3,0-4.47,0-.3.06-.44.38-.41a4,4,0,0,0,.85,0,.69.69,0,0,1,.69.35c1.08,1.53,2.19,3.05,3.29,4.57.11.15.17.34.42.34h1.79ZM122,39.69c-.23,0-.26-.12-.26-.31,0-.64,0-1.29,0-1.94s0-1.3,0-1.95c0-.12,0-.29.16-.29a17.3,17.3,0,0,1,2.88.08,2,2,0,0,1,1.7,2.32,2.09,2.09,0,0,1-1.91,2C123.72,39.75,122.86,39.66,122,39.69Z"></path><path class="cls-1" d="M117.85,34.83c0-1.1,0-1.09-1.11-1.1-.32,0-.43.07-.42.42,0,1.53,0,3.07,0,4.61,0,.27-.06.38-.36.38q-3,0-6,0c-.3,0-.37-.09-.36-.37,0-1.31,0-2.63,0-3.94,0-1.08,0-1.06-1.08-1.09-.39,0-.49.1-.49.49,0,3.68,0,7.36,0,11,0,.37-.17.86.08,1.06s.71,0,1.08.07.41-.09.41-.41c0-1.67,0-3.34,0-5,0-.32.09-.39.39-.39,2,0,4,0,5.93,0,.29,0,.37.08.37.37,0,1.43,0,2.86,0,4.3,0,.36-.16.84.06,1.06s.71,0,1.07.08.4-.07.4-.39c0-2,0-3.93,0-5.89Z"></path></g></g></svg>