<svg xmlns="http://www.w3.org/2000/svg" viewBox="0 0 128.15 74"><defs><style>.cls-1{fill:#dff2f2;}</style></defs><g id="Layer_2"><g id="wave"><path class="cls-1" d="M61.39,39.17c-.93,3.09-1.85,6-2.67,8.95a2.08,2.08,0,0,1-2,1.69,8.21,8.21,0,0,1-2.57-.11,1.75,1.75,0,0,1-1.4-1.28c-1.63-5.09-3.3-10.17-5-15.25-.46-1.4,0-2,1.42-2.23a6.07,6.07,0,0,1,1.65,0,1.92,1.92,0,0,1,1.78,1.5c1,3.27,2,6.52,3,9.78a.83.83,0,0,0,.08.18c.22-.14.22-.35.28-.53q1.53-4.79,3-9.57a1.86,1.86,0,0,1,2.06-1.44c1.28,0,1.87.31,2.25,1.36L67,42.1c.07.19.15.37.28.65l2-7.15c.3-1.08.61-2.16.9-3.25a1.8,1.8,0,0,1,1.58-1.41A6.25,6.25,0,0,1,74,31a1.31,1.31,0,0,1,1.13,1.88L70.22,48.54A1.61,1.61,0,0,1,69,49.69a7.11,7.11,0,0,1-2.68.08,1.85,1.85,0,0,1-1.59-1.34c-1-2.85-2-5.69-3-8.53C61.6,39.71,61.52,39.52,61.39,39.17Z"></path><path class="cls-1" d="M20.79,52.88c2.11-.87,2.49-2.75,3-4.53q2.47-8.33,5-16.65l2.47-8.26a4.1,4.1,0,0,1,4.17-3.13,4.56,4.56,0,0,1,4.36,3.41,4.58,4.58,0,0,1-.2,2.46c-2.08,7-4.14,14-6.26,21.06a8.54,8.54,0,0,1-6.81,6.33A11.46,11.46,0,0,1,20.79,52.88Z"></path><path class="cls-1" d="M4.73,49.38a14.09,14.09,0,0,0,1.5.35,6,6,0,0,0,6.28-4.35c1.55-5.06,3.06-10.12,4.57-15.19a5.7,5.7,0,0,1,1.75-3,4.34,4.34,0,0,1,5.05-.34,4.45,4.45,0,0,1,1.83,5c-.86,3-1.78,6-2.69,9-.62,2-1.25,4.1-1.91,6.14a9.5,9.5,0,0,1-2,3.62,8.51,8.51,0,0,1-8.87,2.4A10.46,10.46,0,0,1,5.16,50,1.29,1.29,0,0,1,4.73,49.38Z"></path><path class="cls-1" d="M5.79,47a4.36,4.36,0,0,1-4.27-5.75c.88-2.57,1.6-5.19,2.41-7.78A4.18,4.18,0,0,1,9.3,30.73a4.17,4.17,0,0,1,3,5.27c-.81,2.7-1.64,5.39-2.47,8.09A4.08,4.08,0,0,1,5.79,47Z"></path><path class="cls-1" d="M114.82,42.08c1.72,0,3.44,0,5.16,0s3.4,0,5.1,0a1.5,1.5,0,0,0,1.68-1.66c0-.77,0-1.55,0-2.33a7.22,7.22,0,0,0-6-7,12.39,12.39,0,0,0-3.54-.25,7,7,0,0,0-6.64,4.77,13.5,13.5,0,0,0-.13,9.13,7,7,0,0,0,5.43,4.88,11.71,11.71,0,0,0,8.06-.92A7.38,7.38,0,0,0,126,47.09a1,1,0,0,0,.1-1.53,4.14,4.14,0,0,0-2-1.42,1.06,1.06,0,0,0-1.14.2c-2,1.87-4.26,1.73-6.59.8a3.34,3.34,0,0,1-2-2.5C114.28,42.24,114.34,42.07,114.82,42.08ZM114.35,38a3.31,3.31,0,0,1,3.3-3.1,5.79,5.79,0,0,1,2.82.38,3.31,3.31,0,0,1,1.86,2.89c.06.39-.22.31-.42.31h-3.56v0c-1.19,0-2.37,0-3.56,0C114.42,38.44,114.29,38.37,114.35,38Z"></path><path class="cls-1" d="M90.75,36.3c-.16-2.95-1.56-4.5-4.45-5.13a13.08,13.08,0,0,0-5.36,0,7.9,7.9,0,0,0-4.36,2.34,1,1,0,0,0-.07,1.57,4.28,4.28,0,0,0,1.29,1.11A1.52,1.52,0,0,0,79.87,36a4.64,4.64,0,0,1,2.45-1.17,4.9,4.9,0,0,1,3.38.56,2.53,2.53,0,0,1,.85,2.91c-.27.49-1,.17-1.57.23h-.37a43.91,43.91,0,0,0-4.59.16,5.38,5.38,0,0,0-4.6,4,5.09,5.09,0,0,0,1.67,5.59,6.56,6.56,0,0,0,3.61,1.39c2,.25,4.09.33,6-1,.13.64.26.83.78,1a4.08,4.08,0,0,0,2.82,0,1,1,0,0,0,.68-1c0-1.67,0-3.35-.06-5C90.86,41.16,90.89,38.72,90.75,36.3ZM86.5,44.36a1.5,1.5,0,0,1-1,1.12,7.43,7.43,0,0,1-4.75,0,1.74,1.74,0,0,1-1.35-1.82c.06-.81.58-1.33,1.55-1.57A12.07,12.07,0,0,1,84,42h2.26c.21,0,.43,0,.42.29A8.39,8.39,0,0,1,86.5,44.36Z"></path><path class="cls-1" d="M108.5,31a5.83,5.83,0,0,0-1.77-.1A1.94,1.94,0,0,0,105,32.2q-1.39,3.49-2.82,7c-.49,1.23-1,2.44-1.52,3.76-.12-.28-.21-.47-.28-.65l-2.1-5.43c-.55-1.42-1.1-2.86-1.67-4.27a2.44,2.44,0,0,0-2-1.75,5.19,5.19,0,0,0-1.88.18,1.24,1.24,0,0,0-1,1.48,4.65,4.65,0,0,0,.4,1.28C94,38.58,96,43.36,97.85,48.17a2.34,2.34,0,0,0,2.36,1.67c.34,0,.69,0,1,0a2.24,2.24,0,0,0,2.14-1.54c1.68-4.24,3.4-8.48,5.11-12.72.37-.93.78-1.84,1.09-2.79A1.29,1.29,0,0,0,108.5,31Z"></path></g></g></svg>