<svg xmlns="http://www.w3.org/2000/svg" viewBox="0 0 133.35 74"><defs><style>.cls-1{fill:#dff2f2;}</style></defs><g id="Layer_2"><g id="chase"><path class="cls-1" d="M63.2,46.17c.07-.12.11-.19.16-.26.57-.9,1.15-1.78,1.71-2.68a.53.53,0,0,1,.51-.29h9.59a4.87,4.87,0,0,0,.54,0,1.08,1.08,0,0,0,1.13-1,22.8,22.8,0,0,0,0-2.48,1,1,0,0,0-1.06-1H67.87a5,5,0,0,1-1.77-.28,3.81,3.81,0,0,1-2.45-2.58,8.45,8.45,0,0,1-.06-4.78,4,4,0,0,1,3.65-2.93c.33,0,.67,0,1,0H80.1L80,28l-1.74,2.73a.38.38,0,0,1-.36.2H68.56c-1.11,0-1.47.35-1.47,1.45,0,.53,0,1.06,0,1.59a1,1,0,0,0,1,1.05,3.85,3.85,0,0,0,.48,0H76a5.29,5.29,0,0,1,2.32.49,3.75,3.75,0,0,1,2.15,2.72,10.57,10.57,0,0,1,0,4.48A4,4,0,0,1,77,46.06a9.84,9.84,0,0,1-1.43.11H63.2Z"></path><path class="cls-1" d="M84.12,27.83h16.16c0,.09-.08.15-.12.21-.58.91-1.17,1.82-1.74,2.73a.38.38,0,0,1-.37.2H87.83v4.2H98v3.12H87.83v4.64l.33,0H98a.44.44,0,0,1,.43.24l1.75,2.75c0,.06.07.13.13.22H84.12Z"></path><path class="cls-1" d="M34.78,35.09V27.83h3.69V46.16H34.78V38.3H24.6v7.86H20.91V27.83h3.67v7.26Z"></path><path class="cls-1" d="M61.66,46.16l-.25,0H57.78a.33.33,0,0,1-.34-.22c-.48-1.11-1-2.2-1.46-3.31a.39.39,0,0,0-.42-.27H46.62a.35.35,0,0,0-.38.24c-.49,1.12-1,2.22-1.48,3.33a.33.33,0,0,1-.37.23H40.55a2.49,2.49,0,0,1,.11-.27Q44.91,37,49.14,28.06a.36.36,0,0,1,.38-.25c1.06,0,2.11,0,3.16,0a.35.35,0,0,1,.37.24Q57.3,37,61.56,45.92ZM51.09,31.61l-3.33,7.64h6.69Z"></path><path class="cls-1" d="M18.69,46.18H7.17A6.64,6.64,0,0,1,4,45.51,4.84,4.84,0,0,1,1.42,41.8a8.26,8.26,0,0,1-.11-1.4c0-2.29,0-4.57,0-6.86a7.07,7.07,0,0,1,.33-2.24A4.84,4.84,0,0,1,5.6,28a8.7,8.7,0,0,1,1.53-.13c3.76,0,7.53,0,11.29,0h.26a1.5,1.5,0,0,1-.11.22c-.6.94-1.21,1.89-1.8,2.84a.37.37,0,0,1-.37.19H7.6a3.92,3.92,0,0,0-.76.08A1.91,1.91,0,0,0,5.17,33a8.46,8.46,0,0,0,0,.87q0,3.06,0,6.11a6.35,6.35,0,0,0,.09,1.07A1.87,1.87,0,0,0,7,42.77a7,7,0,0,0,.92.06h8.35a.42.42,0,0,1,.42.21c.6,1,1.22,1.92,1.83,2.88C18.58,46,18.62,46.06,18.69,46.18Z"></path><path class="cls-1" d="M124.7,48.34V33.08c0-.34,0-.34.33-.34h5.43c.66,0,1,.26,1,.92a5.63,5.63,0,0,1,0,.82V41a.75.75,0,0,1-.2.53q-3.18,3.31-6.34,6.65a1.59,1.59,0,0,0-.15.21Z"></path><path class="cls-1" d="M130.81,31.72H115.47c-.33,0-.33,0-.33-.34,0-1.79,0-3.58,0-5.37a1.81,1.81,0,0,1,0-.4A.76.76,0,0,1,116,25h7.58a.64.64,0,0,1,.38.18l4.94,4.67,1.75,1.66Z"></path><path class="cls-1" d="M114.11,25.62V40.93c0,.33,0,.33-.34.33H108.4a2.19,2.19,0,0,1-.36,0,.76.76,0,0,1-.68-.83V36.17c0-1.08,0-2.16,0-3.23a.6.6,0,0,1,.14-.39q3.21-3.39,6.44-6.77C114,25.73,114,25.7,114.11,25.62Z"></path><path class="cls-1" d="M108.06,42.29H123.3c.37,0,.38,0,.38.37,0,1.8,0,3.6,0,5.39a.84.84,0,0,1-1,1h-7.35a.66.66,0,0,1-.41-.14q-3.4-3.19-6.79-6.42l-.15-.1Z"></path></g></g></svg>