<svg xmlns="http://www.w3.org/2000/svg" viewBox="0 0 74.14 74"><defs><style>.cls-1{fill:#dff2f2;}</style></defs><g id="Layer_2"><g id="usaa"><path class="cls-1" d="M1.33,14.34c0-.13,0-.23,0-.33-.05-1.79-.09-3.58-.15-5.37a.44.44,0,0,1,.23-.45,5.5,5.5,0,0,1,3.34-1,5.62,5.62,0,0,1,2.41.68c.85.45,1.68.93,2.5,1.41l13.61,7.86,1,.57.13-.5Q26.25,9.57,28.16,2A1.85,1.85,0,0,1,29.57.52a2.15,2.15,0,0,1,.51-.05c1.87,0,3.74,0,5.61,0a1.79,1.79,0,0,1,1.62.82.43.43,0,0,0,.41.19h2.63a2.27,2.27,0,0,1,1.74.71,2.1,2.1,0,0,1,.6,1.37c0,.64,0,1.29,0,2l-.56.21c-.07-.19-.13-.34-.18-.49a.6.6,0,0,0-.82-.45l-2.68.82c-.37.12-.42.21-.32.58.36,1.36.73,2.72,1.08,4.08a.67.67,0,0,0,.34.44l7,4,10.67,6.16a9.61,9.61,0,0,0,1.76.8,4.87,4.87,0,0,0,3.71-.21c.28-.13.55-.29.82-.44l.24-.12c0,.1,0,.16,0,.23.06,1.81.1,3.62.16,5.43a.51.51,0,0,1-.26.51,6.53,6.53,0,0,1-2.59,1,4.85,4.85,0,0,1-2.14-.26,11.7,11.7,0,0,1-2.33-1.14L35.92,14.8c-.52-.3-1-.61-1.56-.9a.51.51,0,0,1-.28-.37q-.73-3.15-1.48-6.3a1.73,1.73,0,0,0-.14-.42c-.36,1.26-.64,2.53-.94,3.8s-.59,2.56-.89,3.84S30,17,29.74,18.26l-.9,3.84c-.3,1.28-.6,2.56-.9,3.86l-.6-.33-19-11A11.25,11.25,0,0,0,6,13.55a5.11,5.11,0,0,0-4.38.6Z"></path><path class="cls-1" d="M64.88,73.06h-4l-1.17-3.33h-7l-1.16,3.32H44.64l-1.17-3.34H36.89c-.44,0-.37,0-.5.36-.3.87-.6,1.74-.91,2.62,0,.11-.08.23-.14.37H31.72l.24-.64q3.15-8.33,6.31-16.66a.89.89,0,0,0,0-.75c-.18-.39-.32-.79-.49-1.22h4L48.3,72c.09-.22.15-.35.2-.48L53.74,57.7c.24-.64.48-1.3.74-1.94a.86.86,0,0,0,0-.75c-.18-.38-.32-.79-.49-1.22h4Q61.44,63.42,64.88,73.06ZM40.18,59.63h-.09c-.88,2.48-1.77,5-2.66,7.47h5.12ZM58.75,67.1l-2.38-7.48H56.3L53.64,67.1Z"></path><path class="cls-1" d="M34.62,15.77l1,.55L56.83,28.61a11.07,11.07,0,0,0,2.05,1,5.17,5.17,0,0,0,4.54-.55l.27-.16h.06a1.5,1.5,0,0,1,0,.22c0,1.8.09,3.6.15,5.4a.48.48,0,0,1-.26.5,6.74,6.74,0,0,1-2.59,1,4.56,4.56,0,0,1-1.91-.2,8.94,8.94,0,0,1-2-.89l-15.76-9.1C39.74,24.9,38.11,24,36.48,23a.54.54,0,0,1-.28-.36c-.51-2.22-1-4.43-1.54-6.64C34.64,16,34.64,15.89,34.62,15.77Z"></path><path class="cls-1" d="M63.76,36.74c0,1.25.06,2.44.1,3.63,0,.7,0,1.4.06,2.11a.39.39,0,0,1-.2.39A6.69,6.69,0,0,1,61,43.94a4.56,4.56,0,0,1-1.87-.22,8.69,8.69,0,0,1-1.9-.83L38.73,32.21a.81.81,0,0,1-.43-.57c-.5-2.17-1-4.33-1.52-6.5,0-.06,0-.11,0-.23l.36.19L50.3,32.72c2.19,1.27,4.38,2.52,6.56,3.8a10.25,10.25,0,0,0,2.25,1,5.13,5.13,0,0,0,4.34-.65Z"></path><path class="cls-1" d="M26.32,32.93l-.39-.22-18-10.4a9.47,9.47,0,0,0-2.22-.95,4.46,4.46,0,0,0-2.82.13c-.43.17-.84.39-1.25.59l-.3.16c0-.13,0-.23,0-.33-.05-1.79-.09-3.58-.15-5.37a.43.43,0,0,1,.24-.44,6.93,6.93,0,0,1,2.55-1,4.72,4.72,0,0,1,2,.2A9.63,9.63,0,0,1,8,16.18l19.3,11.15.29.18Z"></path><path class="cls-1" d="M13,53.83h3.34c0,.11,0,.21,0,.31,0,3.89,0,7.78,0,11.67a9.49,9.49,0,0,1-.55,3.3,6.28,6.28,0,0,1-5,4.22,10.85,10.85,0,0,1-4.64-.11,5.8,5.8,0,0,1-4.5-4.45A10.84,10.84,0,0,1,1.35,66V54.12c0-.08,0-.16,0-.24a26.52,26.52,0,0,1,3.69,0V65.45a7.3,7.3,0,0,0,.31,2.32,5.67,5.67,0,0,0,.46,1,3.26,3.26,0,0,0,2.59,1.63,5,5,0,0,0,1.76-.08,3.4,3.4,0,0,0,2.6-2.51A6.4,6.4,0,0,0,13,65.9V53.83Z"></path><path class="cls-1" d="M38.88,34l.31.17,14.66,8.46c1.23.71,2.45,1.43,3.68,2.13a6.6,6.6,0,0,0,2.47.85,5.17,5.17,0,0,0,3.44-.82l.23-.14.09,0,.17,5.94a5.25,5.25,0,0,1-5.16.9,15.39,15.39,0,0,1-2.22-1.12l-15.77-9.1a.66.66,0,0,1-.34-.47q-.73-3.21-1.49-6.4C38.93,34.32,38.91,34.22,38.88,34Z"></path><path class="cls-1" d="M1.32,30.1l0-.31c-.05-1.78-.09-3.55-.15-5.33A.47.47,0,0,1,1.38,24,7.54,7.54,0,0,1,3.7,23a4.47,4.47,0,0,1,2.48.25,11.81,11.81,0,0,1,1.7.77q8.91,5.13,17.8,10.28l.28.16L24.7,39.89l-1.66-1L7.94,30.22a9.47,9.47,0,0,0-2.22-.95,4.38,4.38,0,0,0-2.88.13C2.33,29.6,1.85,29.85,1.32,30.1Z"></path><path class="cls-1" d="M24.34,41.43l-1.26,5.41c-.13-.07-.23-.11-.32-.17L8.11,38.22a12.78,12.78,0,0,0-1.75-.84,4.8,4.8,0,0,0-4.24.22L1.34,38a1.45,1.45,0,0,1,0-.28c-.06-1.81-.1-3.62-.16-5.43a.37.37,0,0,1,.17-.38,7,7,0,0,1,2.43-1,4.34,4.34,0,0,1,2.42.24,12.21,12.21,0,0,1,1.73.78l16,9.22Z"></path><path class="cls-1" d="M30.49,54.58V58L30,57.7a6.22,6.22,0,0,0-2.23-1.07,6.55,6.55,0,0,0-2.92-.11,3.07,3.07,0,0,0-1.23.53,2.16,2.16,0,0,0-.56,3,3.6,3.6,0,0,0,1.5,1.26c.93.45,1.87.9,2.81,1.33A6.78,6.78,0,0,1,30,64.58a4.83,4.83,0,0,1,1,3.8A5.65,5.65,0,0,1,26.6,73.2a7.18,7.18,0,0,1-2.12.28,21.62,21.62,0,0,1-4.47-.4l-.7-.2a.28.28,0,0,1-.23-.29c-.06-.65-.13-1.31-.19-2,0-.48-.08-1-.13-1.48l.23.09a11.05,11.05,0,0,0,5.15,1.33A3.56,3.56,0,0,0,26.23,70a2.27,2.27,0,0,0,.13-3.74,4.65,4.65,0,0,0-.64-.41l-2.83-1.37a8.49,8.49,0,0,1-2.42-1.6A4.8,4.8,0,0,1,19,59.39a5.19,5.19,0,0,1,1.67-4.07,6.57,6.57,0,0,1,2.62-1.42,9.63,9.63,0,0,1,5.6.1c.38.11.76.25,1.14.39C30.2,54.44,30.34,54.52,30.49,54.58Z"></path><path class="cls-1" d="M73.06,57.07a3.46,3.46,0,0,1-1.13,2.54,4.17,4.17,0,0,1-5.5.17,3.54,3.54,0,0,1,.1-5.59,4.16,4.16,0,0,1,5.7.57A3.52,3.52,0,0,1,73.06,57.07Zm-4.07,3a3.4,3.4,0,0,0,1.78-.43,3,3,0,0,0,.7-4.73,3.44,3.44,0,0,0-4.78,0,2.89,2.89,0,0,0,0,4.15A3.25,3.25,0,0,0,69,60.08Z"></path><path class="cls-1" d="M71.33,58.74c-.37,0-.74,0-1.1,0a.47.47,0,0,1-.28-.17c-.27-.3-.53-.61-.79-.92a.35.35,0,0,0-.48-.12v1.17a2.09,2.09,0,0,1-1,0,24.94,24.94,0,0,1,0-3.5A3.83,3.83,0,0,1,69.32,55a2.27,2.27,0,0,1,.72.2A1,1,0,0,1,70.16,57l-.28.16,1.47,1.52ZM68.7,55.69v1.17c.28,0,.55.09.73-.18a.65.65,0,0,0,.06-.72C69.32,55.69,69,55.67,68.7,55.69Z"></path></g></g></svg>