<svg xmlns="http://www.w3.org/2000/svg" viewBox="0 0 61.93 74"><defs><style>.cls-1{fill:#dff2f2;}</style></defs><g id="Layer_2"><g id="wellsfargo"><path class="cls-1" d="M24.47,31.78c0-.26-.06-.49-.08-.72l0-.22c-.14-.66-.38-.88-1.06-.9-.32,0-.65,0-1,0a20.84,20.84,0,0,0,0,3.36l.27,0h3a4.5,4.5,0,0,0,.63-.07,1.47,1.47,0,0,0,1.27-1.12c.12-.43.16-.87.24-1.31,0-.08,0-.16,0-.26h1.1a34,34,0,0,1,0,3.92H18v-1l.34,0c.3,0,.59,0,.89,0a.74.74,0,0,0,.73-.77c0-.12,0-.25,0-.37V26.92a4.89,4.89,0,0,0,0-.54.59.59,0,0,0-.56-.59,9.21,9.21,0,0,0-1.39,0,.86.86,0,0,0-.68.47,7.23,7.23,0,0,0-.42.89c-.86,2.3-1.7,4.61-2.55,6.92,0,.08-.07.17-.1.26a.22.22,0,0,1-.23.17H12.41l-2.26-5.39h-.07l-.15.37L8,34.18c-.14.36-.11.32-.47.32H6.52c-.42,0-.36,0-.52-.35L4.42,30.22l-1.31-3.3a2.07,2.07,0,0,0-.47-.74,1.47,1.47,0,0,0-.93-.43l-.32,0V24.59H6.3v1.13l-.43,0H5.64c-.45,0-.68.16-.46.79s.55,1.34.81,2c.39,1,.75,2,1.12,3l.14.36a.84.84,0,0,0,.15-.21C8,30.2,8.65,28.66,9.26,27.1a1.06,1.06,0,0,0-.82-1.33,3.62,3.62,0,0,0-.57,0c-.13,0-.25,0-.36,0a3,3,0,0,1,0-1.13c.22-.06,4.78-.08,5.2,0v1.12l-.34,0c-.26,0-.51,0-.76,0a.39.39,0,0,0-.37.51,2.14,2.14,0,0,0,.09.27q1,2.55,2,5.1l.12.26c.16,0,.16-.17.2-.27.45-1.16.89-2.33,1.33-3.49.14-.36.29-.71.4-1.07a3.91,3.91,0,0,0,.15-.83c0-.32-.09-.45-.41-.48s-.47,0-.7,0H14V24.59H28.7V28.4h-1c0-.12,0-.24-.05-.37-.06-.36-.1-.73-.19-1.08a1.44,1.44,0,0,0-1.25-1.11,9.22,9.22,0,0,0-1.29-.1H22.57l-.3,0v3a3.42,3.42,0,0,0,1.56-.14.75.75,0,0,0,.43-.53c.07-.29.12-.59.17-.89a2.43,2.43,0,0,0,0-.3h1c.07.28.07,4.57,0,4.91Z"></path><path class="cls-1" d="M32.17,44.4l.14.06.38.15a2,2,0,0,1,1.37,1.84c0,.3,0,.59,0,.89a2.3,2.3,0,0,0,.12.58.53.53,0,0,0,.56.33.5.5,0,0,0,.45-.45,2.94,2.94,0,0,0,0-.51c0-.19,0-.37,0-.59h.85a4.27,4.27,0,0,1-.05,1.13,3.67,3.67,0,0,1-.25.84,1.55,1.55,0,0,1-1.24.92,3.84,3.84,0,0,1-1.51-.08A1.57,1.57,0,0,1,31.85,48c0-.33,0-.65,0-1a8,8,0,0,0-.11-1.1,1.24,1.24,0,0,0-1.17-1.14,14.46,14.46,0,0,0-2-.06,1.38,1.38,0,0,0,0,.26c0,.84,0,1.69,0,2.53a1.21,1.21,0,0,0,0,.19c0,.35.13.47.49.5s.63,0,.95,0h.4a5.77,5.77,0,0,1,0,1.1c-.27.08-10.82.09-11.19,0a8.43,8.43,0,0,1,0-1.12h.61c.27,0,.55,0,.82,0s.48-.2.43-.55a1.09,1.09,0,0,0-.08-.31c-.14-.32-.29-.63-.42-1a.28.28,0,0,0-.29-.19H16.88a.26.26,0,0,0-.28.19c-.19.44-.38.87-.56,1.31s0,.46.28.49.55,0,.82,0h.69a5.82,5.82,0,0,1,0,1.1,50.84,50.84,0,0,1-5.11,0V48.28a1.51,1.51,0,0,1,.3,0,1.25,1.25,0,0,0,1.36-.89c.71-1.71,1.46-3.4,2.19-5.09.35-.83.72-1.65,1.05-2.48a.42.42,0,0,1,.48-.3h1.64c.46,0,.39,0,.55.36l3,7.34c.08.17.16.35.25.51a1,1,0,0,0,.87.54c.33,0,.66,0,1,0a.8.8,0,0,0,.86-.88c0-.18,0-.36,0-.54v-5.1a4.43,4.43,0,0,0,0-.63c0-.33-.16-.48-.49-.5a8.81,8.81,0,0,0-.89,0h-.36V39.52l.35,0h6.49a7.47,7.47,0,0,1,1.7.15,4.27,4.27,0,0,1,.61.18A2,2,0,0,1,35,42.08a2.09,2.09,0,0,1-1.1,1.71,3.82,3.82,0,0,1-1.27.47l-.43.09Zm-3.63-.76.14,0,2.37-.1a3.78,3.78,0,0,0,.56-.08,1.29,1.29,0,0,0,1.1-1.57.51.51,0,0,0,0-.13,1.13,1.13,0,0,0-.87-1,4.17,4.17,0,0,0-1-.15c-.66,0-1.32,0-2,0l-.29,0ZM18.7,41.32A38.72,38.72,0,0,0,17.14,45a18.81,18.81,0,0,0,3,0Z"></path><path class="cls-1" d="M53,33.53l-.4,1h-.92a34.35,34.35,0,0,1,0-3.94h1.11a2.09,2.09,0,0,1,.08.23,3,3,0,0,0,2.49,2.43,5.81,5.81,0,0,0,2.2,0,3,3,0,0,0,.51-.14,1.4,1.4,0,0,0,1-1.39.8.8,0,0,0-.52-.83,5,5,0,0,0-.94-.24c-1.1-.2-2.21-.37-3.3-.59a6.2,6.2,0,0,1-1.32-.44,2.25,2.25,0,0,1-1.41-2.13A2.66,2.66,0,0,1,53.2,24.8a4.29,4.29,0,0,1,1.68-.42,7.54,7.54,0,0,1,2.27.2,4.36,4.36,0,0,1,1.46.65l.19.11c.13-.21.26-.39.37-.59a.34.34,0,0,1,.34-.19h.64V28h-1c0-.07-.05-.15-.07-.23a2.43,2.43,0,0,0-1.23-1.64,4.71,4.71,0,0,0-1.9-.57,3,3,0,0,0-1.22.08A3.55,3.55,0,0,0,54,26a1.2,1.2,0,0,0-.52.61.91.91,0,0,0,.6,1.34,12.87,12.87,0,0,0,1.64.33,24.6,24.6,0,0,1,2.8.52,6.28,6.28,0,0,1,.83.29,2.33,2.33,0,0,1,1.45,1.86,4.19,4.19,0,0,1,0,1.54,2.47,2.47,0,0,1-1.19,1.61,4.73,4.73,0,0,1-1.68.54,6.46,6.46,0,0,1-4.23-.67C53.46,33.82,53.26,33.68,53,33.53Z"></path><path class="cls-1" d="M53.83,39.29a7.54,7.54,0,0,1,2.93.5,4.86,4.86,0,0,1,3.11,4.77,4.57,4.57,0,0,1-2.71,4.28,6.74,6.74,0,0,1-6.53-.23,4.93,4.93,0,0,1-1.27-7.36,5.57,5.57,0,0,1,3.11-1.77C53,39.36,53.55,39.33,53.83,39.29Zm3.71,5.17c0-.44-.08-.88-.17-1.31a3.09,3.09,0,0,0-2.79-2.65,3.18,3.18,0,0,0-3.49,2,5.16,5.16,0,0,0,0,4,3.14,3.14,0,0,0,3.19,2,3.19,3.19,0,0,0,3-2.27A6.65,6.65,0,0,0,57.54,44.46Z"></path><path class="cls-1" d="M46,42.66c-.29,0-.56,0-.82,0a.44.44,0,0,1-.18-.13.26.26,0,0,1-.05-.12,2.88,2.88,0,0,0-2.71-1.94A2.7,2.7,0,0,0,39.55,42a4.77,4.77,0,0,0-.45,1.77,6.74,6.74,0,0,0,.21,2.45,3.22,3.22,0,0,0,.24.61,2.51,2.51,0,0,0,1.83,1.42,3,3,0,0,0,2.2-.34,1.56,1.56,0,0,0,.88-1.53c0-.21,0-.42,0-.63,0-.37-.13-.48-.51-.5l-.72,0-.33,0v-1c.24-.07,4.24-.08,4.62,0a6.63,6.63,0,0,1,0,1,1.18,1.18,0,0,1-.25,0l-.48,0c-.31,0-.41.11-.44.42a2.75,2.75,0,0,0,0,.41v3.23c-.28,0-.53,0-.78,0-.08,0-.16-.1-.21-.17s-.25-.38-.39-.6l-.31.2a5.63,5.63,0,0,1-4.16.76,3.27,3.27,0,0,1-1.36-.57,5.54,5.54,0,0,1-2.43-3.57,5.15,5.15,0,0,1,1.41-4.8,4.15,4.15,0,0,1,1.83-1,6.1,6.1,0,0,1,3-.1,3.48,3.48,0,0,1,1.85,1,6.07,6.07,0,0,0,.32-.71.48.48,0,0,1,.61-.38l.33,0Z"></path><path class="cls-1" d="M10.29,48.27v1.11c-.26.07-5.66.08-6,0a8.07,8.07,0,0,1,0-1.11l.39,0c.25,0,.5,0,.75,0a.56.56,0,0,0,.52-.52,2.31,2.31,0,0,0,0-.37v-5.8c0-.74-.2-.93-1-.94H4.31a2.44,2.44,0,0,1,0-1c.23-.07,9.68-.09,10,0a32,32,0,0,1,0,3.8h-1c0-.33-.05-.66-.1-1a6.64,6.64,0,0,0-.18-.74,1,1,0,0,0-.79-.77,5.14,5.14,0,0,0-1.1-.17c-.91,0-1.83,0-2.75,0l-.2,0v3a5.17,5.17,0,0,0,1.58-.08.69.69,0,0,0,.52-.54c0-.27.07-.54.11-.82,0-.1,0-.2,0-.32h.9c.07.24.08,4.53,0,4.92h-.91c0-.29,0-.56-.07-.83a2.88,2.88,0,0,0-.13-.65.73.73,0,0,0-.56-.51,6.36,6.36,0,0,0-1.45-.07c0,.14,0,.23,0,.32,0,.8,0,1.6,0,2.41v.06c0,.57.14.7.72.71h1.35Z"></path><path class="cls-1" d="M50.69,34.48H40.91v-1c.25,0,.48,0,.71-.06.43-.06.59-.22.64-.64,0-.16,0-.32,0-.48V26.89a4.89,4.89,0,0,0,0-.54.59.59,0,0,0-.62-.59c-.3,0-.59,0-.89,0h-.33V24.62c.27-.07,5.68-.07,6,0v1.11l-.35,0c-.31,0-.62,0-.92,0s-.54.2-.57.59a3.7,3.7,0,0,0,0,.47v6.05c0,.13,0,.27,0,.42l.31,0c.83,0,1.66,0,2.5,0a5.69,5.69,0,0,0,1-.12,1.11,1.11,0,0,0,.83-.71,4.26,4.26,0,0,0,.32-1.41v-.52a8.67,8.67,0,0,1,1.14,0C50.73,30.8,50.75,34,50.69,34.48Z"></path><path class="cls-1" d="M29.76,25.73V24.59h5.91v1.13l-.38,0-.89,0a.57.57,0,0,0-.59.61c0,.11,0,.21,0,.32v6.23c0,.12,0,.23,0,.36l.26,0c.9,0,1.8,0,2.69,0a5.26,5.26,0,0,0,1-.13,1.1,1.1,0,0,0,.81-.68A4.24,4.24,0,0,0,38.88,31c0-.14,0-.29,0-.46H40a33.33,33.33,0,0,1,0,3.89c-.23.06-9.69.09-10.15,0a2.57,2.57,0,0,1,0-1l.3,0c.25,0,.5,0,.75,0,.49-.05.68-.27.7-.77,0-.1,0-.21,0-.31V26.85c0-.13,0-.27,0-.41a.64.64,0,0,0-.64-.66c-.27,0-.54,0-.82,0Z"></path></g></g></svg>