<svg xmlns="http://www.w3.org/2000/svg" viewBox="0 0 127.8 74"><defs><style>.cls-1{fill:#dff2f2;}</style></defs><g id="Layer_2"><g id="square"><path class="cls-1" d="M28,21.34l.7.19a5.21,5.21,0,0,1,3.94,5.19q0,8.41,0,16.83a37.75,37.75,0,0,1-.1,4.64,5.08,5.08,0,0,1-5.29,4.47c-5.11,0-10.22,0-15.34,0h-5a5.23,5.23,0,0,1-5.55-4.41,1.47,1.47,0,0,0-.1-.22V26c0-.13.1-.26.13-.4a5.14,5.14,0,0,1,3.84-4.06l.69-.19ZM16.93,47h7.86c1.58,0,2.19-.61,2.19-2.19Q27,37,27,29.18c0-1.59-.6-2.19-2.19-2.19H9.07c-1.59,0-2.18.6-2.19,2.19V44.84c0,1.59.6,2.19,2.19,2.19Z"></path><path class="cls-1" d="M55,30.12c-.05.05-.1.12-.16.17L53.43,31.4a6.4,6.4,0,0,0-7.59-1.87,2.82,2.82,0,0,0-1.77,2.7,2.53,2.53,0,0,0,1.78,2.47c1.37.51,2.8.88,4.19,1.35a20.84,20.84,0,0,1,2.56,1c4.16,2,3.37,7.05.59,9-3.5,2.4-9.4,1.34-11.75-2.18,0,0,0-.11-.12-.25L43,42.38a2.18,2.18,0,0,1,.26.29A6.76,6.76,0,0,0,50.61,45,5.19,5.19,0,0,0,52,44.27c1.56-1.07,2.16-4.33-.6-5.42-1.15-.46-2.37-.74-3.55-1.14a27.91,27.91,0,0,1-3.48-1.3c-3.48-1.76-3-6.23-.59-8C47,25.94,52.76,26.79,55,30.12Z"></path><path class="cls-1" d="M69.14,34.63V32.79h1.92V52.61H69.19V45c-.17.1-.26.13-.31.2A6.17,6.17,0,0,1,58.33,43a8.57,8.57,0,0,1,.93-8,6.1,6.1,0,0,1,9.45-.6,2,2,0,0,1,.26.39ZM59.7,39.8l.13.05A14.83,14.83,0,0,0,60,41.61a4.25,4.25,0,0,0,3.4,3.65A4.31,4.31,0,0,0,68,43.65a7,7,0,0,0,0-7.61c-1.7-2.36-6.22-2.56-7.59.78A21.38,21.38,0,0,0,59.7,39.8Z"></path><path class="cls-1" d="M115.21,40.14a4.9,4.9,0,0,0,2.5,4.72c2.12,1.06,4.32.58,6.52-1.45l1.36,1.21a6.69,6.69,0,0,1-4,2.47c-3.51.74-7.11-.77-8.2-4.74a9.29,9.29,0,0,1,0-5.07,6.53,6.53,0,0,1,1.88-3.17,6.43,6.43,0,0,1,6.8-1.28,5.81,5.81,0,0,1,4,5.07c.1.72.08,1.45.12,2.24Zm8.88-1.73c-.18-2.77-2.17-4.37-5-4.11-2.1.2-4,2.25-3.76,4.11Z"></path><path class="cls-1" d="M91.11,35.69l-.92-1.39a7.9,7.9,0,0,1,3.16-1.57,8.15,8.15,0,0,1,4.59,0,3.75,3.75,0,0,1,2.85,3.81c0,3.28,0,6.57,0,9.85a4.77,4.77,0,0,1,0,.51H98.87V45.44a3.53,3.53,0,0,0-.36.26c-1.73,1.89-5.07,1.95-6.94.91a4,4,0,0,1-2.06-4,3.37,3.37,0,0,1,2.3-3.24c1.33-.47,2.76-.66,4.14-1a12.71,12.71,0,0,0,1.76-.5,1.62,1.62,0,0,0,1.14-1.65,1.71,1.71,0,0,0-1.22-1.6,6.12,6.12,0,0,0-4.2,0A24.77,24.77,0,0,0,91.11,35.69Zm7.66,3.62c-.74.22-1.49.49-2.26.67-1.11.27-2.25.43-3.34.73a1.91,1.91,0,0,0-1.62,2,2.15,2.15,0,0,0,1.59,2.38,6.37,6.37,0,0,0,2.17.22,3.55,3.55,0,0,0,3.44-3.17A20.83,20.83,0,0,0,98.77,39.31Z"></path><path class="cls-1" d="M74.8,32.77h1.88V41q0,.61,0,1.23c.14,2.37,1.76,3.59,4.11,3.11a4.57,4.57,0,0,0,3.65-4.72c0-2.34,0-4.69,0-7v-.77h1.9v14.1H84.49V45.12l-.2-.11a3.3,3.3,0,0,1-.34.49A5.75,5.75,0,0,1,77.8,47a4.06,4.06,0,0,1-3-3.91C74.7,39.64,74.8,36.24,74.8,32.77Z"></path><path class="cls-1" d="M111.91,34.76c-3.23-1.2-5.31,1-5.45,3.55s-.09,5.17-.12,7.76v.82h-1.91V32.77h1.91v1.58l.26.18a2,2,0,0,1,.32-.56,4.84,4.84,0,0,1,5-1.27c.52.16.7.41.45.94C112.16,34,112.06,34.36,111.91,34.76Z"></path><path class="cls-1" d="M12.67,36.91c0-1,0-2,0-2.94s.32-1.22,1.2-1.23H20c.86,0,1.2.33,1.2,1.18,0,2.06,0,4.11,0,6.17,0,.79-.33,1.14-1.11,1.15H13.78c-.78,0-1.1-.37-1.11-1.15C12.66,39,12.67,38,12.67,36.91Z"></path></g></g></svg>