<svg xmlns="http://www.w3.org/2000/svg" viewBox="0 0 134.34 74"><defs><style>.cls-1{fill:#dff2f2;}</style></defs><g id="Layer_2"><g id="usbank"><path class="cls-1" d="M128.1,27.34a1.07,1.07,0,0,1-.25.35L126,29.61l-2.16,2.3-1.86,2c-.19.2-.19.2,0,.43l1.78,2.71q2.16,3.29,4.31,6.57c.34.51.67,1,1,1.54a.67.67,0,0,1,.06.12c-.08.1-.18.07-.27.07h-7.65a.55.55,0,0,1-.54-.33q-1.65-3-3.32-6a.46.46,0,0,0-.07-.1,1,1,0,0,0-.37.34,7.69,7.69,0,0,1-.61.66.68.68,0,0,0-.23.55c0,1.44,0,2.88,0,4.33v.27c0,.16-.07.23-.23.23h-6.37c-.24,0-.25,0-.26-.26a2.53,2.53,0,0,1,0-.28V21.1c0-.58,0-.53.52-.53h6.13c.16,0,.23.07.22.23V32.39c.14,0,.18-.08.23-.14,1.32-1.59,2.64-3.18,3.94-4.77a.5.5,0,0,1,.41-.2h7.28C128,27.29,128,27.26,128.1,27.34Z"></path><path class="cls-1" d="M94.59,29.58c.33-.33.56-.64.84-.92a6,6,0,0,1,3-1.58,9.15,9.15,0,0,1,2.44-.2,6.07,6.07,0,0,1,4.38,1.93,5.32,5.32,0,0,1,1.13,2,7.18,7.18,0,0,1,.3,2.11q0,6,0,11.92c0,.47,0,.47-.47.47h-6.13c-.24,0-.26,0-.27-.26v-.27c0-3.11,0-6.21,0-9.32a6.75,6.75,0,0,0-.19-1.61,1.79,1.79,0,0,0-1.82-1.49,2.74,2.74,0,0,0-1.92.55A2.4,2.4,0,0,0,95.12,34a4.8,4.8,0,0,0-.29,1.73c0,3,0,6,0,9.07,0,.51,0,.51-.51.51H88.19c-.23,0-.26-.05-.27-.27a1.92,1.92,0,0,1,0-.24V27.77c0-.53,0-.48.49-.48h5.68c.51,0,.48,0,.48.49v1.46C94.57,29.33,94.58,29.41,94.59,29.58Z"></path><path class="cls-1" d="M44.34,21c0-.5,0-.46-.47-.46H1.45C.9,20.5,1,20.44,1,21V45.87c0,.2,0,.34.25.37l.13,0,5.56,1.9,7.89,2.69,7.45,2.56a1.11,1.11,0,0,0,.74,0l7.92-2.7L41.8,47l2.26-.77c.28-.09.28-.09.28-.39V21ZM22.19,45.33H16.26c-.37,0-.34,0-.34-.33V43.13c-.15,0-.19.15-.25.23a6.44,6.44,0,0,1-4.17,2.36,7.9,7.9,0,0,1-3.86-.29,5.49,5.49,0,0,1-3.77-4.58,8.36,8.36,0,0,1-.1-1.41V27.67c0-.45,0-.38.39-.39h6.38c.1,0,.14,0,.14.15a2.43,2.43,0,0,0,0,.27V37a10,10,0,0,0,.12,1.55,3.44,3.44,0,0,0,.22.73,1.7,1.7,0,0,0,1.31,1,3,3,0,0,0,1.24,0,2.41,2.41,0,0,0,1.87-1.79,5.22,5.22,0,0,0,.21-1.57V27.67c0-.44-.06-.39.39-.39h6.37c.12,0,.17,0,.16.17V44.93C22.57,45.34,22.64,45.33,22.19,45.33Zm19.36-3.24a5.29,5.29,0,0,1-2,2.18,8.91,8.91,0,0,1-3.13,1.23,16.73,16.73,0,0,1-4.89.27A11,11,0,0,1,27,44.41a5.72,5.72,0,0,1-3-4.23,4.2,4.2,0,0,1-.06-.62.12.12,0,0,1,.14-.14h6.16c.17,0,.25.05.29.22a2.26,2.26,0,0,0,2,1.87,3.68,3.68,0,0,0,2.35-.34,1.14,1.14,0,0,0,0-2.06,7.06,7.06,0,0,0-1.79-.52c-1.15-.24-2.31-.4-3.45-.71a11.15,11.15,0,0,1-3-1.2,4.41,4.41,0,0,1-2-2.29,5,5,0,0,1,2-6,9.86,9.86,0,0,1,3.72-1.31A16.94,16.94,0,0,1,34.58,27a11.14,11.14,0,0,1,4.22,1.1,5,5,0,0,1,2.73,3.46,5.05,5.05,0,0,1,.11.78c0,.27,0,.27-.25.28H35.75c-.36,0-.32.06-.42-.31a1.54,1.54,0,0,0-.64-.95l-.25-.19a2,2,0,0,0-1.1-.45,3,3,0,0,0-1.43.15,1.24,1.24,0,0,0-.91,1.1.93.93,0,0,0,.52,1,5.11,5.11,0,0,0,1.51.48c1,.2,2,.36,3,.57a12.15,12.15,0,0,1,3.6,1.26,4.59,4.59,0,0,1,2.24,2.58,5.32,5.32,0,0,1,.25,1.94A6.1,6.1,0,0,1,41.55,42.09Z"></path><path class="cls-1" d="M66.09,33.47a9.51,9.51,0,0,0-1.46-3.7,6.3,6.3,0,0,0-2.95-2.37,8.69,8.69,0,0,0-2.26-.49,7.54,7.54,0,0,0-2.37.14,5.82,5.82,0,0,0-3.19,2c0,.06-.09.16-.22.16a1.07,1.07,0,0,1,0-.4V21c0-.41,0-.41-.42-.41h-6c-.49,0-.47,0-.47.47V45.13a.2.2,0,0,0,.21.22h6.17c.29,0,.32,0,.32-.32s0-.39,0-.59v-.88l.08,0a.43.43,0,0,1,.1.09c.07.07.12.14.18.21a5.47,5.47,0,0,0,1.62,1.33,6.68,6.68,0,0,0,2.77.67,7,7,0,0,0,3.57-.65A7.32,7.32,0,0,0,64.94,42a12,12,0,0,0,1.37-6.54A16.1,16.1,0,0,0,66.09,33.47Zm-6.71,3.27a6.36,6.36,0,0,1-.44,2.39,2.75,2.75,0,0,1-4.6.8,3.85,3.85,0,0,1-.76-1.73,9,9,0,0,1,.05-3.9,3.28,3.28,0,0,1,.93-1.71,2.37,2.37,0,0,1,1-.54,3,3,0,0,1,2.13.16A2.78,2.78,0,0,1,59,33.81a5.44,5.44,0,0,1,.35,2A5.3,5.3,0,0,1,59.38,36.74Z"></path><path class="cls-1" d="M86.17,45.11a5.13,5.13,0,0,1-.48-1.36,11.49,11.49,0,0,1-.21-2.48V33.14a12.73,12.73,0,0,0-.13-1.86,4.49,4.49,0,0,0-.79-2.05,5,5,0,0,0-2.63-1.75,16.33,16.33,0,0,0-4.4-.6,17.36,17.36,0,0,0-2,0,20.8,20.8,0,0,0-2.23.23,9.25,9.25,0,0,0-3,1,5.08,5.08,0,0,0-2.6,4.27c0,.37,0,.38.34.38h5.72c.33,0,.32,0,.38-.33a1.67,1.67,0,0,1,1.15-1.35,4.31,4.31,0,0,1,2-.16,2,2,0,0,1,1.32.69,1.43,1.43,0,0,1-.35,2.18,2.88,2.88,0,0,1-.81.28c-.76.15-1.52.26-2.29.36-1,.13-2,.27-3,.49a9.89,9.89,0,0,0-2.78,1A4.54,4.54,0,0,0,67,38.9a6.13,6.13,0,0,0,0,3,4.66,4.66,0,0,0,1.71,2.65,6.68,6.68,0,0,0,3.7,1.3,11,11,0,0,0,2.68-.13,6.6,6.6,0,0,0,3.91-2,5.82,5.82,0,0,0,.19,1.43c0,.2.15.28.34.26h6.48C86.25,45.33,86.27,45.29,86.17,45.11Zm-7.4-5.42a2.85,2.85,0,0,1-4.15,1.62,1.51,1.51,0,0,1,.12-2.69,6.4,6.4,0,0,1,1.68-.52,8.3,8.3,0,0,0,2.17-.68l0,0c.23-.09.27-.07.28.16v.82A4.41,4.41,0,0,1,78.77,39.69Z"></path><path class="cls-1" d="M132.85,43.86a1.41,1.41,0,0,0-1.6-1.54,1.46,1.46,0,0,0-1.52,1.53,1.55,1.55,0,0,0,1.56,1.58A1.51,1.51,0,0,0,132.85,43.86Zm-1,1.19a1.26,1.26,0,0,1-1.42-.27,1,1,0,0,1-.39-.92,1.22,1.22,0,0,1,.88-1.28,1.34,1.34,0,0,1,1.39.38,1.3,1.3,0,0,1,.26.8A1.21,1.21,0,0,1,131.84,45.05Z"></path><path class="cls-1" d="M131.54,43h-.65c-.19,0-.24.1-.24.26V44c0,.18,0,.37,0,.55s.07.13.16.13.16,0,.17-.13a.66.66,0,0,1,0-.14c0-.27.05-.29.3-.29s.3.06.33.3c0,.06,0,.12,0,.17s.09.09.16.09.12,0,.11-.13.05-.45-.17-.59c0,0,0-.07,0-.07a.42.42,0,0,0,.22-.53A.48.48,0,0,0,131.54,43Zm-.27.77c-.24,0-.27,0-.27-.28s0-.28.27-.27.35.07.36.26S131.53,43.77,131.27,43.77Z"></path></g></g></svg>