<svg xmlns="http://www.w3.org/2000/svg" viewBox="0 0 97.82 74"><defs><style>.cls-1{fill:#dff2f2;}</style></defs><g id="Layer_2"><g id="sage"><path class="cls-1" d="M50.46,51.7l3.79-3.78c.62.33,1.24.73,1.91,1a7.32,7.32,0,0,0,7.69-.9,4.77,4.77,0,0,0,1.91-3.94c0-.58,0-1.17,0-1.84a2.39,2.39,0,0,0-.31.22,9.32,9.32,0,0,1-5.91,2.94,10,10,0,0,1-9.08-3.51,7.73,7.73,0,0,1-1.67-4A43.78,43.78,0,0,1,48.52,30c0-1.1.07-2.2.2-3.28a8,8,0,0,1,5.25-7,10.69,10.69,0,0,1,8.62.2A9.11,9.11,0,0,1,65.34,22a2.4,2.4,0,0,1,.23.38l.17-.1c0-.14,0-.27,0-.41,0-.66,0-1.31,0-2,0-.26.06-.38.35-.38q2.53,0,5.07,0c.24,0,.36.07.33.32a.48.48,0,0,0,0,.12c0,7.93,0,15.86,0,23.79a11,11,0,0,1-2.87,7.6,11.7,11.7,0,0,1-6.08,3.4,13.58,13.58,0,0,1-12-2.9A.68.68,0,0,1,50.46,51.7ZM65.82,32.07c-.06-1.1-.15-2.32-.19-3.53A4.43,4.43,0,0,0,64,25.25a6.79,6.79,0,0,0-7.57-.55,4.44,4.44,0,0,0-2.34,3,9.85,9.85,0,0,0-.2,1.95c0,2,0,3.93.08,5.9A4,4,0,0,0,55.7,38.9a6.67,6.67,0,0,0,7.31.63,4.46,4.46,0,0,0,2.62-3.7C65.72,34.62,65.75,33.4,65.82,32.07Z"></path><path class="cls-1" d="M42,42.51l-.23.2a8.48,8.48,0,0,1-5.58,2.7,13.5,13.5,0,0,1-5.72-.48,7.09,7.09,0,0,1-5-6.33,9.33,9.33,0,0,1,.37-4.07,6.21,6.21,0,0,1,4.29-3.85,14,14,0,0,1,4.12-.56c2.47,0,4.94,0,7.4,0,.4,0,.51-.13.49-.51,0-.85,0-1.71-.07-2.56a3.15,3.15,0,0,0-2-2.68,8.38,8.38,0,0,0-3.24-.66,11.31,11.31,0,0,0-7.1,2c-.16.11-.28.2-.47,0L26,22.55s0-.05-.07-.17c.77-.48,1.54-1,2.36-1.46A15.63,15.63,0,0,1,35.12,19a18.57,18.57,0,0,1,7.44.92,7.37,7.37,0,0,1,5.14,6.72c0,.55.07,1.1.07,1.64,0,5.41,0,10.83,0,16.24,0,.41-.11.51-.52.51-1.57,0-3.14,0-4.7,0-.39,0-.48-.12-.47-.48,0-.67,0-1.33,0-2Zm.1-7.93-.26,0c-2.57,0-5.15,0-7.72,0a8.69,8.69,0,0,0-2.2.39,2.21,2.21,0,0,0-1.76,2,2.52,2.52,0,0,0,1.18,2.59,4.41,4.41,0,0,0,1.36.57,16.15,16.15,0,0,0,6.46.06,3.27,3.27,0,0,0,2.54-2A8.34,8.34,0,0,0,42.1,34.58Z"></path><path class="cls-1" d="M91.79,37.82l3.33,3.33c-.35.32-.7.68-1.09,1a14,14,0,0,1-7.76,3.28,13.15,13.15,0,0,1-9.74-2.65,10.89,10.89,0,0,1-3.94-6.54,16.83,16.83,0,0,1,1-11,10.52,10.52,0,0,1,8.18-6.06,14.87,14.87,0,0,1,8.54.92A9.7,9.7,0,0,1,96,27a17.53,17.53,0,0,1,.36,6.69c-.11.83-.12.83-.94.83h-17c-.52,0-.51,0-.47.48A5.25,5.25,0,0,0,82,39.88a9.93,9.93,0,0,0,9.46-1.79Zm-6.91-7.64h6c1,0,1,0,.91-1A5.8,5.8,0,0,0,89,24.61a7.75,7.75,0,0,0-5.65-.93,6.21,6.21,0,0,0-5.39,6c0,.49,0,.53.48.53Z"></path><path class="cls-1" d="M1.2,40.77l3.71-3.63A31,31,0,0,0,7.57,39a11.17,11.17,0,0,0,9.19.87,5.72,5.72,0,0,0,1.66-1,2.21,2.21,0,0,0,.82-2.36A2,2,0,0,0,17.66,35a26.84,26.84,0,0,0-3.09-.49,33.38,33.38,0,0,1-6.88-1A8.17,8.17,0,0,1,3.43,30.7a6,6,0,0,1-1.16-3.2C2,24,3.9,21.8,6.85,20.32A13.33,13.33,0,0,1,12.15,19a19,19,0,0,1,11,2.6c.34.2.65.43,1,.66l.16.13L21,25.82c-.82-.39-1.62-.81-2.46-1.16a13.52,13.52,0,0,0-6.1-.94,7.42,7.42,0,0,0-3.12.82,4.57,4.57,0,0,0-1.11.84,1.77,1.77,0,0,0,.08,2.5A4.14,4.14,0,0,0,10.63,29q1.95.34,3.93.51a19.76,19.76,0,0,1,6.09,1.13,6.37,6.37,0,0,1,3.68,3.23,7.08,7.08,0,0,1,.52,3.64,7.68,7.68,0,0,1-2,4.68,9.74,9.74,0,0,1-4.75,2.71,18.86,18.86,0,0,1-6.65.49,17,17,0,0,1-9-3.54C2.06,41.53,1.64,41.14,1.2,40.77Z"></path></g></g></svg>